<?xml version="1.0" encoding="UTF-8" standalone="no"?>
<!-- Generator: Adobe Illustrator 15.1.0, SVG Export Plug-In . SVG Version: 6.00 Build 0)  -->

<svg
   xmlns:dc="http://purl.org/dc/elements/1.1/"
   xmlns:cc="http://creativecommons.org/ns#"
   xmlns:rdf="http://www.w3.org/1999/02/22-rdf-syntax-ns#"
   xmlns:svg="http://www.w3.org/2000/svg"
   xmlns="http://www.w3.org/2000/svg"
   xmlns:sodipodi="http://sodipodi.sourceforge.net/DTD/sodipodi-0.dtd"
   xmlns:inkscape="http://www.inkscape.org/namespaces/inkscape"
   version="1.1"
   id="Layer_1"
   x="0px"
   y="0px"
   width="402.436"
   height="174.326"
   viewBox="0 0 402.436 174.326"
   enable-background="new 0 0 453.54 453.54"
   xml:space="preserve"
   inkscape:version="0.91 r13725"
   sodipodi:docname="firrtl_logo.svg"><metadata
     id="metadata3418"><rdf:RDF><cc:Work
         rdf:about=""><dc:format>image/svg+xml</dc:format><dc:type
           rdf:resource="http://purl.org/dc/dcmitype/StillImage" /><dc:title></dc:title></cc:Work></rdf:RDF></metadata><defs
     id="defs3416" /><sodipodi:namedview
     pagecolor="#ffffff"
     bordercolor="#666666"
     borderopacity="1"
     objecttolerance="10"
     gridtolerance="10"
     guidetolerance="10"
     inkscape:pageopacity="0"
     inkscape:pageshadow="2"
     inkscape:window-width="1445"
     inkscape:window-height="861"
     id="namedview3414"
     showgrid="false"
     fit-margin-top="10"
     fit-margin-left="20"
     fit-margin-right="20"
     fit-margin-bottom="10"
     inkscape:zoom="2.8795696"
     inkscape:cx="86.041242"
     inkscape:cy="82.246829"
     inkscape:window-x="0"
     inkscape:window-y="0"
     inkscape:window-maximized="0"
     inkscape:current-layer="Layer_1" /><g
     id="g3398"
     transform="matrix(2,0,0,2,-254.072,-368.374)"><g
       id="g3400"><path
         d="m 185.862,261.783 -7.055,-1.801 -5.085,-3.975 0,-29.107 6.146,-6.662 3.327,2.506 c -0.13,0.275 -0.208,0.578 -0.208,0.901 0,1.172 0.953,2.125 2.125,2.125 1.172,0 2.125,-0.953 2.125,-2.125 0,-1.172 -0.953,-2.125 -2.125,-2.125 -0.486,0 -0.929,0.17 -1.288,0.446 l -2.837,-2.137 5.329,-2.235 3.486,3.517 c -0.132,0.277 -0.212,0.583 -0.212,0.909 0,1.172 0.953,2.125 2.125,2.125 1.172,0 2.125,-0.953 2.125,-2.125 0,-1.172 -0.953,-2.125 -2.125,-2.125 -0.481,0 -0.92,0.167 -1.277,0.437 l -3.127,-3.155 5.172,-2.169 3.317,2.261 c -0.052,0.184 -0.089,0.375 -0.089,0.575 0,1.172 0.953,2.125 2.125,2.125 1.172,0 2.125,-0.953 2.125,-2.125 0,-1.172 -0.953,-2.125 -2.125,-2.125 -0.61,0 -1.157,0.262 -1.544,0.674 l -3.09,-2.106 1.351,-2.852 c 0.133,0.026 0.271,0.042 0.412,0.042 1.172,0 2.125,-0.953 2.125,-2.125 0,-1.172 -0.953,-2.125 -2.125,-2.125 -1.172,0 -2.125,0.953 -2.125,2.125 0,0.673 0.32,1.266 0.81,1.656 l -1.436,3.029 -5.171,2.169 0.805,-5.804 c 1.085,-0.094 1.943,-0.997 1.943,-2.106 0,-1.172 -0.953,-2.125 -2.125,-2.125 -1.172,0 -2.125,0.953 -2.125,2.125 0,0.886 0.545,1.645 1.318,1.964 l -0.888,6.396 -5.561,2.332 0.554,-2.628 c 0.087,0.011 0.172,0.026 0.262,0.026 1.172,0 2.125,-0.953 2.125,-2.125 0,-1.172 -0.953,-2.125 -2.125,-2.125 -1.172,0 -2.125,0.953 -2.125,2.125 0,0.722 0.364,1.359 0.916,1.744 l -0.71,3.366 -5.607,6.077 0,-10.402 1.224,-1.977 8.77,-5.369 0.039,0.032 2.823,-3.428 4.729,-0.078 c 0.232,0.921 1.062,1.608 2.054,1.608 1.172,0 2.125,-0.953 2.125,-2.125 0,-1.172 -0.953,-2.125 -2.125,-2.125 -1.005,0 -1.844,0.703 -2.064,1.642 l -3.884,0.064 2.489,-3.022 c 0.237,0.091 0.493,0.147 0.762,0.147 1.172,0 2.125,-0.953 2.125,-2.125 0,-1.172 -0.953,-2.125 -2.125,-2.125 -1.172,0 -2.125,0.953 -2.125,2.125 0,0.54 0.208,1.028 0.542,1.403 l -5.898,7.162 -7.068,4.326 7.316,-11.814 c 0.167,0.042 0.339,0.072 0.52,0.072 1.172,0 2.125,-0.953 2.125,-2.125 0,-1.172 -0.953,-2.125 -2.125,-2.125 -1.172,0 -2.125,0.953 -2.125,2.125 0,0.631 0.282,1.192 0.72,1.582 l -3.363,5.431 -1.679,-5.257 4.002,-5.089 c 0.252,0.106 0.529,0.165 0.819,0.165 1.172,0 2.125,-0.953 2.125,-2.125 0,-1.172 -0.953,-2.125 -2.125,-2.125 -1.172,0 -2.125,0.953 -2.125,2.125 0,0.52 0.195,0.99 0.505,1.359 l -3.569,4.54 -1.524,-4.77 c 0.641,-0.367 1.078,-1.048 1.078,-1.838 0,-1.172 -0.953,-2.125 -2.125,-2.125 -1.172,0 -2.125,0.953 -2.125,2.125 0,1.172 0.953,2.125 2.125,2.125 0.03,0 0.057,-0.007 0.086,-0.009 l 3.838,12.017 -3.5,5.652 -1.222,-3.791 c 0.596,-0.376 0.996,-1.037 0.996,-1.793 0,-1.172 -0.953,-2.125 -2.125,-2.125 -1.172,0 -2.125,0.953 -2.125,2.125 0,1.172 0.953,2.125 2.125,2.125 0.062,0 0.119,-0.013 0.18,-0.018 l 1.481,4.593 -1.562,2.522 -0.016,0 0,0.026 -0.001,0.002 0.001,0.001 0,12.118 -3.458,0 0,-12.28 -0.015,0 -3.579,-5.727 2.77,-6.237 c 0.145,0.031 0.294,0.05 0.448,0.05 1.172,0 2.125,-0.953 2.125,-2.125 0,-1.172 -0.953,-2.125 -2.125,-2.125 -1.172,0 -2.125,0.953 -2.125,2.125 0,0.659 0.308,1.241 0.779,1.631 l -2.512,5.657 -1.524,-2.439 3.828,-11.984 c 0.029,0.001 0.057,0.009 0.086,0.009 1.172,0 2.125,-0.953 2.125,-2.125 0,-1.172 -0.953,-2.125 -2.125,-2.125 -1.172,0 -2.125,0.953 -2.125,2.125 0,0.79 0.438,1.471 1.078,1.838 l -1.516,4.746 -2.064,-2.754 c 0.381,-0.384 0.618,-0.913 0.618,-1.496 0,-1.172 -0.953,-2.125 -2.125,-2.125 -1.172,0 -2.125,0.953 -2.125,2.125 0,1.172 0.953,2.125 2.125,2.125 0.227,0 0.441,-0.045 0.646,-0.111 l 2.552,3.404 -1.673,5.237 -2.22,-3.552 c 0.397,-0.386 0.646,-0.924 0.646,-1.521 0,-1.172 -0.953,-2.125 -2.125,-2.125 -1.172,0 -2.125,0.953 -2.125,2.125 0,1.172 0.953,2.125 2.125,2.125 0.215,0 0.418,-0.042 0.614,-0.101 l 6.243,9.99 -7.032,-4.305 -6.029,-7.248 c 0.331,-0.375 0.538,-0.861 0.538,-1.399 0,-1.172 -0.953,-2.125 -2.125,-2.125 -1.172,0 -2.125,0.953 -2.125,2.125 0,1.172 0.953,2.125 2.125,2.125 0.271,0 0.528,-0.056 0.767,-0.148 l 2.448,2.943 -3.853,0 c -0.227,-0.93 -1.061,-1.625 -2.06,-1.625 -1.172,0 -2.125,0.953 -2.125,2.125 0,1.172 0.953,2.125 2.125,2.125 0.999,0 1.833,-0.695 2.06,-1.625 l 4.685,0 2.859,3.438 -0.012,0.02 0.059,0.036 0.084,0.101 0.034,-0.029 8.748,5.355 0.005,-0.008 1.118,1.789 0,10.535 -5.606,-6.077 -0.711,-3.367 c 0.552,-0.384 0.916,-1.021 0.916,-1.744 0,-1.172 -0.953,-2.125 -2.125,-2.125 -1.172,0 -2.125,0.953 -2.125,2.125 0,1.172 0.953,2.125 2.125,2.125 0.09,0 0.175,-0.016 0.262,-0.026 l 0.555,2.628 -5.561,-2.332 -0.888,-6.396 c 0.772,-0.319 1.318,-1.078 1.318,-1.964 0,-1.172 -0.953,-2.125 -2.125,-2.125 -1.172,0 -2.125,0.953 -2.125,2.125 0,1.109 0.857,2.013 1.943,2.106 l 0.805,5.804 -5.171,-2.168 -1.436,-3.029 c 0.49,-0.39 0.81,-0.983 0.81,-1.656 0,-1.172 -0.953,-2.125 -2.125,-2.125 -1.172,0 -2.125,0.953 -2.125,2.125 0,1.172 0.953,2.125 2.125,2.125 0.141,0 0.278,-0.015 0.411,-0.042 l 1.352,2.852 -3.09,2.106 c -0.388,-0.413 -0.935,-0.675 -1.544,-0.675 -1.172,0 -2.125,0.953 -2.125,2.125 0,1.172 0.953,2.125 2.125,2.125 1.172,0 2.125,-0.953 2.125,-2.125 0,-0.201 -0.037,-0.391 -0.089,-0.575 l 3.316,-2.261 5.172,2.169 -3.126,3.155 c -0.357,-0.271 -0.796,-0.437 -1.277,-0.437 -1.172,0 -2.125,0.953 -2.125,2.125 0,1.172 0.953,2.125 2.125,2.125 1.172,0 2.125,-0.953 2.125,-2.125 0,-0.327 -0.08,-0.632 -0.212,-0.909 l 3.485,-3.517 5.329,2.235 -2.837,2.137 c -0.358,-0.275 -0.802,-0.446 -1.288,-0.446 -1.172,0 -2.125,0.953 -2.125,2.125 0,1.172 0.953,2.125 2.125,2.125 1.172,0 2.125,-0.953 2.125,-2.125 0,-0.323 -0.078,-0.626 -0.208,-0.901 l 3.327,-2.506 6.167,6.685 0,0.199 0.01,0 0,28.959 -4.966,3.881 -6.815,1.74 -0.366,0.314 -2.358,2.498 0.546,0.516 2.484,-2.633 5.27,-1.344 -4.318,3.936 0.505,0.555 4.625,-4.217 -0.705,3.367 0.734,0.154 0.907,-4.332 4.075,-3.184 -1.674,4.1 -0.041,0.02 0.016,0.033 -1.729,1.779 0.538,0.523 1.526,-1.572 1.903,4.137 0.682,-0.313 -2.101,-4.568 1.976,-4.84 1.847,0 -0.013,1.43 -2.649,2.117 0.333,0.422 2.309,-1.824 -0.06,6.814 0.75,0.006 0.042,-4.771 2.001,1.205 0.289,-0.479 -2.285,-1.303 0.032,-3.617 1.531,0 1.51,4.59 -0.022,0.021 0.045,0.047 0.058,0.176 -1.695,4.621 0.704,0.258 1.6,-4.363 1.946,2.018 0.54,-0.521 -2.495,-2.586 -1.201,-3.648 4.213,3.293 0.907,4.334 0.734,-0.154 -0.654,-3.123 4.107,3.055 0.447,-0.602 -4.104,-3.053 5.948,1.518 2.068,2.324 0.561,-0.498 -2.197,-2.467 -0.248,-0.086 z m -1.817,-38.417 0.506,-0.672 c 0.168,-0.1 0.353,-0.173 0.563,-0.173 0.62,0 1.125,0.505 1.125,1.125 0,0.62 -0.505,1.125 -1.125,1.125 -0.62,0 -1.125,-0.505 -1.125,-1.125 -0.001,-0.099 0.032,-0.188 0.056,-0.28 z m 7.671,-2.47 c 0.62,0 1.125,0.505 1.125,1.125 0,0.62 -0.505,1.125 -1.125,1.125 -0.62,0 -1.125,-0.505 -1.125,-1.125 0,-0.62 0.505,-1.125 1.125,-1.125 z m 6.121,-4.176 c 0.62,0 1.125,0.505 1.125,1.125 0,0.62 -0.505,1.125 -1.125,1.125 -0.62,0 -1.125,-0.505 -1.125,-1.125 0,-0.62 0.505,-1.125 1.125,-1.125 z m -2.871,-8.492 c 0.62,0 1.125,0.505 1.125,1.125 0,0.62 -0.505,1.125 -1.125,1.125 -0.62,0 -1.125,-0.505 -1.125,-1.125 0,-0.62 0.505,-1.125 1.125,-1.125 z m -8.424,0.068 c 0,-0.62 0.505,-1.125 1.125,-1.125 0.62,0 1.125,0.505 1.125,1.125 0,0.62 -0.505,1.125 -1.125,1.125 -0.62,0 -1.125,-0.504 -1.125,-1.125 z m -5.314,4.84 c 0.62,0 1.125,0.505 1.125,1.125 0,0.62 -0.505,1.125 -1.125,1.125 -0.62,0 -1.125,-0.505 -1.125,-1.125 0,-0.62 0.505,-1.125 1.125,-1.125 z m 12.113,-10.551 c 0.62,0 1.125,0.505 1.125,1.125 0,0.62 -0.505,1.125 -1.125,1.125 -0.508,0 -0.922,-0.346 -1.061,-0.81 l -0.01,-0.583 c 0.123,-0.487 0.545,-0.857 1.071,-0.857 z m -2.697,-5.419 c 0.62,0 1.125,0.505 1.125,1.125 0,0.62 -0.505,1.125 -1.125,1.125 -0.153,0 -0.298,-0.032 -0.431,-0.087 l -0.451,-0.372 c -0.143,-0.188 -0.243,-0.412 -0.243,-0.666 0,-0.621 0.504,-1.125 1.125,-1.125 z m -6.714,-0.977 c 0.62,0 1.125,0.505 1.125,1.125 0,0.62 -0.505,1.125 -1.125,1.125 -0.106,0 -0.203,-0.033 -0.3,-0.061 l -0.538,-0.333 c -0.173,-0.198 -0.287,-0.449 -0.287,-0.731 0,-0.62 0.505,-1.125 1.125,-1.125 z m -1.625,-5.293 c 0.62,0 1.125,0.505 1.125,1.125 0,0.62 -0.505,1.125 -1.125,1.125 -0.291,0 -0.55,-0.118 -0.75,-0.299 l -0.053,-0.042 c -0.198,-0.203 -0.323,-0.479 -0.323,-0.784 0.001,-0.62 0.506,-1.125 1.126,-1.125 z m -7.313,1.446 -0.038,0.013 c -0.127,0.05 -0.264,0.083 -0.409,0.083 -0.62,0 -1.125,-0.505 -1.125,-1.125 0,-0.62 0.505,-1.125 1.125,-1.125 0.62,0 1.125,0.505 1.125,1.125 0,0.46 -0.28,0.855 -0.678,1.029 z m -2.373,14.296 c -0.62,0 -1.125,-0.505 -1.125,-1.125 0,-0.62 0.505,-1.125 1.125,-1.125 0.62,0 1.125,0.505 1.125,1.125 0,0.62 -0.505,1.125 -1.125,1.125 z m -3.751,-7.199 c 0.62,0 1.125,0.505 1.125,1.125 0,0.62 -0.505,1.125 -1.125,1.125 -0.62,0 -1.125,-0.505 -1.125,-1.125 0,-0.62 0.505,-1.125 1.125,-1.125 z m -2.593,-8.127 c 0,-0.62 0.505,-1.125 1.125,-1.125 0.62,0 1.125,0.505 1.125,1.125 0,0.62 -0.505,1.125 -1.125,1.125 -0.145,0 -0.281,-0.033 -0.409,-0.083 l -0.038,-0.013 c -0.398,-0.173 -0.678,-0.568 -0.678,-1.029 z m -5.01,3.459 c -0.62,0 -1.125,-0.505 -1.125,-1.125 0,-0.62 0.505,-1.125 1.125,-1.125 0.62,0 1.125,0.505 1.125,1.125 0,0.62 -0.505,1.125 -1.125,1.125 z m -2.173,5.582 c -0.62,0 -1.125,-0.505 -1.125,-1.125 0,-0.62 0.505,-1.125 1.125,-1.125 0.62,0 1.125,0.505 1.125,1.125 0,0.62 -0.505,1.125 -1.125,1.125 z m -6.904,-1.402 -0.454,0.377 c -0.133,0.056 -0.279,0.087 -0.433,0.087 -0.62,0 -1.125,-0.505 -1.125,-1.125 0,-0.62 0.505,-1.125 1.125,-1.125 0.62,0 1.125,0.505 1.125,1.125 0.001,0.252 -0.097,0.473 -0.238,0.661 z m -2.517,5.051 c -0.131,0.476 -0.549,0.833 -1.066,0.833 -0.62,0 -1.125,-0.505 -1.125,-1.125 0,-0.62 0.505,-1.125 1.125,-1.125 0.517,0 0.935,0.357 1.066,0.833 l 0,0.584 z m -2.691,6.476 c -0.62,0 -1.125,-0.505 -1.125,-1.125 0,-0.62 0.505,-1.125 1.125,-1.125 0.62,0 1.125,0.505 1.125,1.125 0,0.62 -0.505,1.125 -1.125,1.125 z m -2.872,8.492 c -0.62,0 -1.125,-0.505 -1.125,-1.125 0,-0.62 0.505,-1.125 1.125,-1.125 0.62,0 1.125,0.505 1.125,1.125 0,0.62 -0.504,1.125 -1.125,1.125 z m 6.122,4.176 c -0.62,0 -1.125,-0.505 -1.125,-1.125 0,-0.62 0.505,-1.125 1.125,-1.125 0.62,0 1.125,0.505 1.125,1.125 0,0.62 -0.505,1.125 -1.125,1.125 z m 4.048,-13.725 c -0.62,0 -1.125,-0.505 -1.125,-1.125 0,-0.62 0.505,-1.125 1.125,-1.125 0.62,0 1.125,0.505 1.125,1.125 0,0.62 -0.505,1.125 -1.125,1.125 z m 2.554,15.35 c -0.62,0 -1.125,-0.505 -1.125,-1.125 0,-0.62 0.505,-1.125 1.125,-1.125 0.209,0 0.395,0.073 0.563,0.173 l 0.506,0.672 c 0.024,0.092 0.057,0.181 0.057,0.28 -0.001,0.62 -0.506,1.125 -1.126,1.125 z m 3.885,-9.385 c -0.62,0 -1.125,-0.505 -1.125,-1.125 0,-0.62 0.505,-1.125 1.125,-1.125 0.62,0 1.125,0.505 1.125,1.125 0,0.62 -0.505,1.125 -1.125,1.125 z"
         id="path3402"
         inkscape:connector-curvature="0"
         style="fill:#136527" /><path
         d="m 212.488,231.115 c -1.067,-2.208 -2.726,-2.988 -3.754,-3.479 -1.583,-0.754 -6.763,-0.726 -8.506,-0.745 -0.307,-0.003 -0.607,-0.009 -0.929,-0.009 l -20.639,0 0,29.75 5.469,0 0,-10.984 14.591,0 c 1.511,0 2.804,0.027 3.842,0.08 0.997,0.053 1.823,0.146 2.456,0.279 0.685,0.145 1.04,0.324 1.216,0.449 0.217,0.154 0.372,0.354 0.474,0.605 0.132,0.33 0.211,0.748 0.236,1.24 0.029,0.596 0.044,1.305 0.044,2.127 l 0,6.203 5.469,0 0,-6.203 c 0,-1.047 -0.055,-2.002 -0.163,-2.838 -0.118,-0.914 -0.366,-1.725 -0.736,-2.408 -0.362,-0.668 -0.868,-1.227 -1.506,-1.662 0.723,-0.441 1.316,-1.025 1.763,-1.738 0.451,-0.717 0.773,-1.584 0.959,-2.58 0.031,-0.164 0.055,-0.34 0.081,-0.516 0.117,-0.811 0.18,-1.717 0.18,-2.711 0,-0.912 -0.022,-1.764 -0.065,-2.533 -0.049,-0.848 -0.158,-1.655 -0.482,-2.327 z m -4.949,6.508 c -0.005,0.16 -0.009,0.336 -0.016,0.48 -0.025,0.494 -0.104,0.91 -0.235,1.238 -0.103,0.256 -0.258,0.455 -0.474,0.607 -0.177,0.125 -0.533,0.307 -1.217,0.451 -0.633,0.133 -1.459,0.227 -2.455,0.277 -1.039,0.053 -2.332,0.08 -3.843,0.08 l -15.169,0 0,-8.984 15.169,0 c 0.749,0 1.438,0.006 2.071,0.014 0.658,0.01 1.255,0.021 1.788,0.041 1.002,0.035 1.832,0.111 2.464,0.227 0.701,0.131 1.066,0.291 1.249,0.402 0.204,0.125 0.341,0.279 0.434,0.482 0.122,0.27 0.196,0.629 0.219,1.068 0.029,0.551 0.044,1.207 0.044,1.969 -0.001,0.623 -0.012,1.158 -0.029,1.648 z"
         id="path3404"
         inkscape:connector-curvature="0"
         style="fill:#000000" /><path
         d="m 250.645,231.109 c -0.004,-0.008 -0.008,-0.014 -0.012,-0.021 -0.296,-0.741 -0.76,-1.394 -1.385,-1.937 -0.02,-0.017 -0.044,-0.032 -0.063,-0.048 -0.815,-0.766 -1.671,-1.175 -2.295,-1.473 -1.583,-0.754 -6.763,-0.726 -8.507,-0.745 -0.307,-0.003 -0.607,-0.009 -0.928,-0.009 l -20.638,0 0,0.006 0,29.744 0,0.006 5.469,0 0,-0.006 0,-10.979 14.591,0 c 1.511,0 2.804,0.027 3.841,0.08 0.997,0.053 1.823,0.146 2.457,0.279 0.684,0.145 1.04,0.324 1.216,0.449 0.216,0.154 0.371,0.352 0.474,0.607 0.133,0.328 0.212,0.746 0.236,1.238 0.029,0.594 0.044,1.303 0.044,2.127 l 0,6.197 0,0.006 5.469,0 0,-0.006 0,-6.197 0,-0.006 c 0,-0.826 -0.044,-1.574 -0.111,-2.271 -0.018,-0.186 -0.027,-0.385 -0.05,-0.561 0,0 -0.001,-0.002 -0.001,-0.004 0,0 0,0 0,-0.002 -0.118,-0.914 -0.365,-1.725 -0.736,-2.408 -0.36,-0.666 -0.865,-1.223 -1.503,-1.66 0.723,-0.439 1.314,-1.021 1.76,-1.734 0.452,-0.719 0.774,-1.588 0.959,-2.578 0.1,-0.537 0.168,-1.133 0.211,-1.77 0.002,-0.035 0.004,-0.072 0.006,-0.109 0.026,-0.432 0.044,-0.877 0.044,-1.35 0,0 0,-0.002 0,-0.004 0,0 0,0 0,-0.002 0,-0.912 -0.021,-1.764 -0.064,-2.533 -0.051,-0.847 -0.16,-1.654 -0.484,-2.326 z m -4.922,4.918 c -0.001,0.309 -0.004,0.592 -0.009,0.867 -0.005,0.244 -0.011,0.477 -0.018,0.697 -0.003,0.092 -0.006,0.184 -0.01,0.27 -0.002,0.08 -0.005,0.164 -0.008,0.236 -0.024,0.494 -0.104,0.91 -0.235,1.238 -0.104,0.256 -0.258,0.455 -0.474,0.607 -0.177,0.125 -0.532,0.307 -1.218,0.451 -0.633,0.133 -1.459,0.227 -2.455,0.277 -1.039,0.053 -2.332,0.08 -3.842,0.08 l -15.169,0 0,-8.979 15.169,0 c 1.527,0 2.814,0.02 3.857,0.055 1.002,0.035 1.832,0.111 2.465,0.227 0.7,0.131 1.066,0.291 1.249,0.402 0.202,0.125 0.34,0.277 0.434,0.484 0.122,0.268 0.195,0.627 0.219,1.064 0.029,0.551 0.044,1.207 0.044,1.969 0.001,0.02 0.001,0.036 0.001,0.055 z"
         id="path3406"
         inkscape:connector-curvature="0"
         style="fill:#000000" /><path
         d="m 253.816,231.773 11.229,0 c 0.355,0.027 0.712,0.049 1.065,0.088 0.523,0.059 1.117,0.201 1.355,0.729 0.142,0.314 0.198,0.656 0.226,0.998 l 0,23.045 5.469,0 0,-23.125 c 0.033,-0.287 0.094,-0.57 0.213,-0.834 0.238,-0.527 0.832,-0.67 1.355,-0.729 0.551,-0.063 1.104,-0.105 1.657,-0.137 0.049,-0.002 0.255,-0.018 0.502,-0.035 l 10.147,0 0,-4.891 -33.219,0 0,4.891 z"
         id="path3408"
         inkscape:connector-curvature="0"
         style="fill:#000000" /><path
         d="m 160.067,239.023 -17.563,0 c 0,-0.623 -0.006,-1.248 0.001,-1.873 0.002,-0.158 0,-0.314 0,-0.473 0,-0.361 0.003,-0.721 0.003,-1.082 -0.001,-0.402 -0.005,-0.803 0.003,-1.203 0.015,-0.732 0.005,-1.541 0.587,-2.125 0.272,-0.271 2.187,-0.402 4.373,-0.463 1.285,-0.037 2.665,-0.047 3.861,-0.049 1.812,0 3.204,0.021 3.204,0.018 l 11.093,0 0,-4.891 -11.093,0 -3.204,0 -1.644,0 0,0 c -0.004,0 -0.167,0 -3.912,0 -4.042,0 -5.693,-0.274 -7.542,1.837 -1.093,1.248 -1.188,5.45 -1.194,7.958 -0.002,0.676 0.002,1.234 -0.004,1.572 l 0,18.383 5.469,0 0,-12.719 17.563,0 0,-4.89 z"
         id="path3410"
         inkscape:connector-curvature="0"
         style="fill:#000000" /><path
         d="m 298.223,251.705 c -0.702,-0.014 -1.935,-0.307 -1.989,-1.113 -0.057,-0.838 0,-21.724 0,-21.724 0.018,-0.642 0.037,-1.284 0.051,-1.926 0,-0.02 0,-0.04 10e-4,-0.06 l -0.052,0 -5.417,0 c 0,0 0,0.09 0,0.26 l 0.033,24.537 c 0.093,1.713 0.461,2.838 1.816,4.023 0.849,0.744 3.064,0.902 5.184,0.93 0.996,0.014 1.972,-0.002 2.774,0 l 17.63,0 0,-4.891 c 0,10e-4 -19.33,-0.022 -20.031,-0.036 z"
         id="path3412"
         inkscape:connector-curvature="0"
         style="fill:#000000" /></g></g></svg>