<?xml version="1.0" encoding="UTF-8" standalone="no"?>
<!DOCTYPE svg PUBLIC "-//W3C//DTD SVG 1.1//EN"
 "http://www.w3.org/Graphics/SVG/1.1/DTD/svg11.dtd">
<!-- Generated by graphviz version 2.41.20190111.1241 (20190111.1241)
 -->
<!-- Title: TypeHierarchy Pages: 1 -->
<svg width="574pt" height="387pt"
 viewBox="0.00 0.00 574.00 387.00" xmlns="http://www.w3.org/2000/svg" xmlns:xlink="http://www.w3.org/1999/xlink">
<g id="graph0" class="graph" transform="scale(1 1) rotate(0) translate(4 383)">
<title>TypeHierarchy</title>
<g id="clust5" class="cluster">
<title>cluster_data_hierarchy</title>
<polygon fill="transparent" stroke="transparent" points="8,-31 8,-371 438,-371 438,-31 8,-31"/>
</g>
<g id="clust13" class="cluster">
<title>cluster_legend</title>
<polygon fill="transparent" stroke="black" points="446,-8 446,-227 558,-227 558,-8 446,-8"/>
<text text-anchor="middle" x="502" y="-15.8" font-family="Times,serif" font-size="14.00">Legend</text>
</g>
<!-- Data -->
<g id="node1" class="node">
<title>Data</title>
<polygon fill="#f7fbff" stroke="black" points="172,-363 118,-363 118,-327 172,-327 172,-363"/>
<text text-anchor="middle" x="145" y="-341.3" font-family="Times,serif" font-size="14.00">Data</text>
</g>
<!-- Element -->
<g id="node2" class="node">
<title>Element</title>
<polygon fill="#f7fbff" stroke="black" points="262,-291 200,-291 200,-255 262,-255 262,-291"/>
<text text-anchor="middle" x="231" y="-269.3" font-family="Times,serif" font-size="14.00">Element</text>
</g>
<!-- Element&#45;&gt;Data -->
<g id="edge1" class="edge">
<title>Element&#45;&gt;Data</title>
<path fill="none" stroke="black" d="M209.74,-291.3C198.91,-300.12 185.58,-310.97 173.84,-320.53"/>
<polygon fill="black" stroke="black" points="171.56,-317.87 166.01,-326.9 175.98,-323.3 171.56,-317.87"/>
</g>
<!-- Bits -->
<g id="node3" class="node">
<title>Bits</title>
<polygon fill="#f7fbff" stroke="black" points="380,-219 326,-219 326,-183 380,-183 380,-219"/>
<text text-anchor="middle" x="353" y="-197.3" font-family="Times,serif" font-size="14.00">Bits</text>
</g>
<!-- Bits&#45;&gt;Element -->
<g id="edge3" class="edge">
<title>Bits&#45;&gt;Element</title>
<path fill="none" stroke="black" d="M329.26,-219.1C325.23,-221.83 321.04,-224.56 317,-227 302.46,-235.81 286.02,-244.66 271.44,-252.16"/>
<polygon fill="black" stroke="black" points="269.49,-249.22 262.16,-256.88 272.66,-255.46 269.49,-249.22"/>
</g>
<!-- Num -->
<g id="node4" class="node">
<title>Num</title>
<polygon fill="#f7fbff" stroke="black" points="308,-219 254,-219 254,-183 308,-183 308,-219"/>
<text text-anchor="middle" x="281" y="-197.3" font-family="Times,serif" font-size="14.00">Num</text>
</g>
<!-- Aggregate -->
<g id="node5" class="node">
<title>Aggregate</title>
<polygon fill="#f7fbff" stroke="black" points="96.5,-291 23.5,-291 23.5,-255 96.5,-255 96.5,-291"/>
<text text-anchor="middle" x="60" y="-269.3" font-family="Times,serif" font-size="14.00">Aggregate</text>
</g>
<!-- Aggregate&#45;&gt;Data -->
<g id="edge2" class="edge">
<title>Aggregate&#45;&gt;Data</title>
<path fill="none" stroke="black" d="M81.01,-291.3C91.72,-300.12 104.89,-310.97 116.5,-320.53"/>
<polygon fill="black" stroke="black" points="114.29,-323.24 124.23,-326.9 118.74,-317.84 114.29,-323.24"/>
</g>
<!-- VecLike -->
<g id="node6" class="node">
<title>VecLike</title>
<polygon fill="#f7fbff" stroke="black" points="177.5,-291 114.5,-291 114.5,-255 177.5,-255 177.5,-291"/>
<text text-anchor="middle" x="146" y="-269.3" font-family="Times,serif" font-size="14.00">VecLike</text>
</g>
<!-- Chisel Internal -->
<g id="node7" class="node">
<title>Chisel Internal</title>
<polygon fill="#f7fbff" stroke="black" points="550.5,-219 453.5,-219 453.5,-183 550.5,-183 550.5,-219"/>
<text text-anchor="middle" x="502" y="-197.3" font-family="Times,serif" font-size="14.00">Chisel Internal</text>
</g>
<!-- Bool -->
<g id="node8" class="node">
<title>Bool</title>
<polygon fill="#e5f5e0" stroke="black" points="286,-75 232,-75 232,-39 286,-39 286,-75"/>
<text text-anchor="middle" x="259" y="-53.3" font-family="Times,serif" font-size="14.00">Bool</text>
</g>
<!-- UInt -->
<g id="node9" class="node">
<title>UInt</title>
<polygon fill="#e5f5e0" stroke="black" points="430,-147 376,-147 376,-111 430,-111 430,-147"/>
<text text-anchor="middle" x="403" y="-125.3" font-family="Times,serif" font-size="14.00">UInt</text>
</g>
<!-- Bool&#45;&gt;UInt -->
<g id="edge11" class="edge">
<title>Bool&#45;&gt;UInt</title>
<path fill="none" stroke="black" d="M286.09,-71.17C308.77,-82.19 341.36,-98.03 366.37,-110.19"/>
<polygon fill="black" stroke="black" points="365.02,-113.43 375.55,-114.65 368.08,-107.13 365.02,-113.43"/>
</g>
<!-- Reset -->
<g id="node12" class="node">
<title>Reset</title>
<polygon fill="#e5f5e0" stroke="black" points="216,-219 162,-219 162,-183 216,-183 216,-219"/>
<text text-anchor="middle" x="189" y="-197.3" font-family="Times,serif" font-size="14.00">Reset</text>
</g>
<!-- Bool&#45;&gt;Reset -->
<g id="edge12" class="edge">
<title>Bool&#45;&gt;Reset</title>
<path fill="none" stroke="black" d="M231.86,-58.21C195.38,-60.13 131.69,-69.64 102,-111 92.67,-124 94.16,-133.05 102,-147 107.81,-157.34 131.42,-171.4 152.58,-182.44"/>
<polygon fill="black" stroke="black" points="151.25,-185.69 161.75,-187.12 154.43,-179.45 151.25,-185.69"/>
</g>
<!-- UInt&#45;&gt;Bits -->
<g id="edge5" class="edge">
<title>UInt&#45;&gt;Bits</title>
<path fill="none" stroke="black" d="M390.64,-147.3C384.77,-155.53 377.63,-165.52 371.16,-174.58"/>
<polygon fill="black" stroke="black" points="368.18,-172.72 365.22,-182.9 373.88,-176.79 368.18,-172.72"/>
</g>
<!-- UInt&#45;&gt;Num -->
<g id="edge6" class="edge">
<title>UInt&#45;&gt;Num</title>
<path fill="none" stroke="black" d="M375.92,-145.54C358.55,-155.5 335.79,-168.56 316.91,-179.39"/>
<polygon fill="black" stroke="black" points="314.93,-176.5 308,-184.51 318.42,-182.57 314.93,-176.5"/>
</g>
<!-- SInt -->
<g id="node10" class="node">
<title>SInt</title>
<polygon fill="#e5f5e0" stroke="black" points="358,-147 304,-147 304,-111 358,-111 358,-147"/>
<text text-anchor="middle" x="331" y="-125.3" font-family="Times,serif" font-size="14.00">SInt</text>
</g>
<!-- SInt&#45;&gt;Bits -->
<g id="edge7" class="edge">
<title>SInt&#45;&gt;Bits</title>
<path fill="none" stroke="black" d="M336.44,-147.3C338.89,-155.1 341.84,-164.49 344.57,-173.17"/>
<polygon fill="black" stroke="black" points="341.29,-174.41 347.62,-182.9 347.96,-172.31 341.29,-174.41"/>
</g>
<!-- SInt&#45;&gt;Num -->
<g id="edge8" class="edge">
<title>SInt&#45;&gt;Num</title>
<path fill="none" stroke="black" d="M318.64,-147.3C312.77,-155.53 305.63,-165.52 299.16,-174.58"/>
<polygon fill="black" stroke="black" points="296.18,-172.72 293.22,-182.9 301.88,-176.79 296.18,-172.72"/>
</g>
<!-- FixedPoint -->
<g id="node11" class="node">
<title>FixedPoint</title>
<polygon fill="#e5f5e0" stroke="black" points="286,-147 210,-147 210,-111 286,-111 286,-147"/>
<text text-anchor="middle" x="248" y="-125.3" font-family="Times,serif" font-size="14.00">FixedPoint</text>
</g>
<!-- FixedPoint&#45;&gt;Bits -->
<g id="edge9" class="edge">
<title>FixedPoint&#45;&gt;Bits</title>
<path fill="none" stroke="black" d="M273.69,-147.12C287.29,-156.19 304.17,-167.45 318.86,-177.24"/>
<polygon fill="black" stroke="black" points="316.95,-180.18 327.22,-182.81 320.84,-174.35 316.95,-180.18"/>
</g>
<!-- FixedPoint&#45;&gt;Num -->
<g id="edge10" class="edge">
<title>FixedPoint&#45;&gt;Num</title>
<path fill="none" stroke="black" d="M256.16,-147.3C259.91,-155.27 264.45,-164.9 268.62,-173.74"/>
<polygon fill="black" stroke="black" points="265.51,-175.34 272.94,-182.9 271.84,-172.36 265.51,-175.34"/>
</g>
<!-- Reset&#45;&gt;Element -->
<g id="edge4" class="edge">
<title>Reset&#45;&gt;Element</title>
<path fill="none" stroke="black" d="M199.38,-219.3C204.26,-227.44 210.19,-237.31 215.58,-246.3"/>
<polygon fill="black" stroke="black" points="212.59,-248.12 220.74,-254.9 218.59,-244.52 212.59,-248.12"/>
</g>
<!-- AsyncReset -->
<g id="node13" class="node">
<title>AsyncReset</title>
<polygon fill="#e5f5e0" stroke="black" points="191.5,-147 110.5,-147 110.5,-111 191.5,-111 191.5,-147"/>
<text text-anchor="middle" x="151" y="-125.3" font-family="Times,serif" font-size="14.00">AsyncReset</text>
</g>
<!-- AsyncReset&#45;&gt;Element -->
<g id="edge18" class="edge">
<title>AsyncReset&#45;&gt;Element</title>
<path fill="none" stroke="black" d="M187.11,-147C201.42,-155.68 216.46,-167.68 225,-183 235.4,-201.66 236.33,-226.05 234.98,-244.58"/>
<polygon fill="black" stroke="black" points="231.48,-244.42 233.98,-254.72 238.45,-245.11 231.48,-244.42"/>
</g>
<!-- AsyncReset&#45;&gt;Reset -->
<g id="edge19" class="edge">
<title>AsyncReset&#45;&gt;Reset</title>
<path fill="none" stroke="black" d="M160.39,-147.3C164.76,-155.36 170.06,-165.11 174.9,-174.02"/>
<polygon fill="black" stroke="black" points="171.87,-175.78 179.71,-182.9 178.02,-172.44 171.87,-175.78"/>
</g>
<!-- Record -->
<g id="node14" class="node">
<title>Record</title>
<polygon fill="#e5f5e0" stroke="black" points="72,-219 16,-219 16,-183 72,-183 72,-219"/>
<text text-anchor="middle" x="44" y="-197.3" font-family="Times,serif" font-size="14.00">Record</text>
</g>
<!-- Record&#45;&gt;Aggregate -->
<g id="edge15" class="edge">
<title>Record&#45;&gt;Aggregate</title>
<path fill="none" stroke="black" d="M47.96,-219.3C49.72,-227.02 51.84,-236.29 53.8,-244.89"/>
<polygon fill="black" stroke="black" points="50.45,-245.93 56.09,-254.9 57.27,-244.37 50.45,-245.93"/>
</g>
<!-- Bundle -->
<g id="node15" class="node">
<title>Bundle</title>
<polygon fill="#e5f5e0" stroke="black" points="72,-147 16,-147 16,-111 72,-111 72,-147"/>
<text text-anchor="middle" x="44" y="-125.3" font-family="Times,serif" font-size="14.00">Bundle</text>
</g>
<!-- Bundle&#45;&gt;Record -->
<g id="edge14" class="edge">
<title>Bundle&#45;&gt;Record</title>
<path fill="none" stroke="black" d="M44,-147.3C44,-155.02 44,-164.29 44,-172.89"/>
<polygon fill="black" stroke="black" points="40.5,-172.9 44,-182.9 47.5,-172.9 40.5,-172.9"/>
</g>
<!-- Vec -->
<g id="node16" class="node">
<title>Vec</title>
<polygon fill="#e5f5e0" stroke="black" points="144,-219 90,-219 90,-183 144,-183 144,-219"/>
<text text-anchor="middle" x="117" y="-197.3" font-family="Times,serif" font-size="14.00">Vec</text>
</g>
<!-- Vec&#45;&gt;Aggregate -->
<g id="edge16" class="edge">
<title>Vec&#45;&gt;Aggregate</title>
<path fill="none" stroke="black" d="M102.91,-219.3C96.08,-227.7 87.74,-237.93 80.24,-247.14"/>
<polygon fill="black" stroke="black" points="77.53,-244.93 73.93,-254.9 82.96,-249.35 77.53,-244.93"/>
</g>
<!-- Vec&#45;&gt;VecLike -->
<g id="edge17" class="edge">
<title>Vec&#45;&gt;VecLike</title>
<path fill="none" stroke="black" d="M124.17,-219.3C127.43,-227.19 131.37,-236.7 135,-245.45"/>
<polygon fill="black" stroke="black" points="131.85,-247 138.91,-254.9 138.32,-244.32 131.85,-247"/>
</g>
<!-- Chisel Types -->
<g id="node17" class="node">
<title>Chisel Types</title>
<polygon fill="#e5f5e0" stroke="black" points="546,-147 458,-147 458,-111 546,-111 546,-147"/>
<text text-anchor="middle" x="502" y="-125.3" font-family="Times,serif" font-size="14.00">Chisel Types</text>
</g>
<!-- Chisel Types&#45;&gt;Chisel Internal -->
<g id="edge21" class="edge">
<title>Chisel Types&#45;&gt;Chisel Internal</title>
<path fill="none" stroke="black" d="M502,-147.3C502,-155.02 502,-164.29 502,-172.89"/>
<polygon fill="black" stroke="black" points="498.5,-172.9 502,-182.9 505.5,-172.9 498.5,-172.9"/>
</g>
<!-- User Types -->
<g id="node18" class="node">
<title>User Types</title>
<polygon fill="#fcbba1" stroke="black" points="541.5,-75 462.5,-75 462.5,-39 541.5,-39 541.5,-75"/>
<text text-anchor="middle" x="502" y="-53.3" font-family="Times,serif" font-size="14.00">User Types</text>
</g>
<!-- User Types&#45;&gt;Chisel Types -->
<g id="edge20" class="edge">
<title>User Types&#45;&gt;Chisel Types</title>
<path fill="none" stroke="black" d="M502,-75.3C502,-83.02 502,-92.29 502,-100.89"/>
<polygon fill="black" stroke="black" points="498.5,-100.9 502,-110.9 505.5,-100.9 498.5,-100.9"/>
</g>
<!-- Ellipsis -->
<g id="node19" class="node">
<title>Ellipsis</title>
<polygon fill="#fcbba1" stroke="black" points="71,-75 17,-75 17,-39 71,-39 71,-75"/>
<text text-anchor="middle" x="44" y="-53.3" font-family="Times,serif" font-size="14.00">...</text>
</g>
<!-- Ellipsis&#45;&gt;Bundle -->
<g id="edge13" class="edge">
<title>Ellipsis&#45;&gt;Bundle</title>
<path fill="none" stroke="black" d="M44,-75.3C44,-83.02 44,-92.29 44,-100.89"/>
<polygon fill="black" stroke="black" points="40.5,-100.9 44,-110.9 47.5,-100.9 40.5,-100.9"/>
</g>
</g>
</svg>
