<?xml version="1.0" encoding="UTF-8"?> <!-- Generator: Adobe Illustrator 23.0.1, SVG Export Plug-In . SVG Version: 6.00 Build 0) --> <svg xmlns="http://www.w3.org/2000/svg" xmlns:xlink="http://www.w3.org/1999/xlink" id="Layer_1" x="0px" y="0px" viewBox="0 0 1000 335.4" style="enable-background:new 0 0 1000 335.4;" xml:space="preserve"> <style type="text/css"> .st0{fill:#2B2E7D;} .st1{fill:#10CFC9;} .st2{fill:#1226AA;} .st3{fill:#51C2BE;} .st4{fill:#FFFFFF;} </style> <g> <path class="st0" d="M331.6,185.9c-9.8,0-18.3,6.8-20.6,16.2h-29.3v-23.8h-23.8v-14.3h23.8v-1v-22.7v-9.8v-20.6v-3.1h-23.8V92.4 h23.8V68.6H311c0.9,3.9,2.9,7.3,5.6,10c3.8,3.8,9.1,6.2,14.9,6.2c5.8,0,11.1-2.4,14.9-6.2c3.8-3.8,6.2-9.1,6.2-14.9 c0-11.6-9.5-21.1-21.1-21.1c-9.8,0-18.3,6.8-20.6,16.2h-29.3V35h-23.8V7.5H94.8V35H76H71v3.9v19.9v9.8v19.3v4.5h23.8v14.3H76H71 v23.8H41.7c-2.3-9.5-10.8-16.2-20.6-16.2C9.5,114.2,0,123.7,0,135.4c0,5.8,2.4,11.1,6.2,14.9c3.8,3.8,9.1,6.2,14.9,6.2 c5.8,0,11.1-2.4,14.9-6.2c2.7-2.7,4.7-6.2,5.6-10H71v23.8h23.8v14.3H76H71v3.4v20.3v9.8v18.8v4.9h23.8v14.3H76H71v23.8H41.7 c-2.3-9.5-10.8-16.2-20.6-16.2C9.5,257.6,0,267.1,0,278.7c0,11.7,9.5,21.1,21.1,21.1c9.8,0,18.3-6.8,20.6-16.2H71v23.8h23.8v28 h163.1v-28h23.5v-57.4h-23.5v-14.3h23.8V212H311c0.9,3.9,2.9,7.3,5.6,10c3.8,3.8,9.1,6.2,14.9,6.2c5.8,0,11.1-2.4,14.9-6.2 c3.8-3.8,6.2-9.1,6.2-14.9C352.7,195.4,343.2,185.9,331.6,185.9"></path> <path class="st1" d="M463.8,136.2c0,9.1-4.6,13.7-13.7,13.7h-46.7c-8.9,0-13.3-4.6-13.3-13.7V13.8C390,4.6,394.5,0,403.3,0h46.7 c9.1,0,13.7,4.6,13.7,13.8v35h-22.3V19.2h-29v111.4h29V99.1h22.3V136.2z"></path> <polygon class="st1" points="556.7,149.9 534.1,149.9 534.1,82.6 503.8,82.6 503.8,149.9 481.4,149.9 481.4,0 503.8,0 503.8,61.8 534.1,61.8 534.1,0 556.7,0 "></polygon> <rect x="574.9" y="0" class="st1" width="22.4" height="149.9"></rect> <path class="st1" d="M688.1,81.6c0,9.3-4.6,14-13.7,14h-36.3v54.3h-22.4V0h58.7c9.1,0,13.7,4.6,13.7,13.8V81.6z M665.5,19.2h-27.4 v57.1h27.4V19.2z"></path> <path class="st1" d="M775.8,136.2c0,9.1-4.5,13.7-13.6,13.7h-45.1c-9,0-13.5-4.6-13.5-13.7v-35.7H726V131h27.4v-29.4l-44.9-42.5 c-3.3-3.1-4.9-7.1-4.9-12V13.8c0-9.2,4.5-13.8,13.5-13.8h45.1c9.1,0,13.6,4.5,13.6,13.6v33.5h-22.4V18.9H726V46l44.9,42.3 c3.3,3.1,4.9,7.1,4.9,12.2V136.2z"></path> <path class="st2" d="M466,332.9h-22.2l-4.5-28.4h-28.1l-4.5,28.4h-22.1v-0.4l29-149.7h23.6L466,332.9z M436.1,285.2l-10.9-67.6 l-11,67.6H436.1z"></path> <polygon class="st2" points="537.4,332.9 478.5,332.9 478.5,183 500.9,183 500.9,312.9 537.4,312.9 "></polygon> <polygon class="st2" points="609.6,332.9 550.7,332.9 550.7,183 573.1,183 573.1,312.9 609.6,312.9 "></polygon> <rect x="623.3" y="183" class="st2" width="22.4" height="149.9"></rect> <path class="st2" d="M740,332.9h-22.2l-4.5-28.4h-28.1l-4.5,28.4h-22.1v-0.4l29-149.7h23.6L740,332.9z M710.1,285.2l-10.9-67.6 l-11,67.6H710.1z"></path> <path class="st2" d="M828.5,332.9h-19.6L773,238.6c1,4.6,1.4,8.2,1.4,10.8v83.5h-21.8V183h19.6l35.9,92.4c-1-4.6-1.4-8.2-1.4-10.8 V183h21.8V332.9z"></path> <path class="st2" d="M920.2,319.2c0,9.1-4.6,13.7-13.7,13.7h-46.7c-8.9,0-13.3-4.6-13.3-13.7V196.8c0-9.2,4.4-13.8,13.3-13.8h46.7 c9.1,0,13.7,4.6,13.7,13.8v35h-22.3v-29.6h-29v111.4h29v-31.5h22.3V319.2z"></path> <polygon class="st2" points="1000,332.9 937.9,332.9 937.9,183 999.4,183 999.4,202.9 960.3,202.9 960.3,246.6 994,246.6 994,266.1 960.3,266.1 960.3,313.1 1000,313.1 "></polygon> <path class="st3" d="M331.6,75c3.1,0,6-1.3,8-3.3c2-2.1,3.3-4.9,3.3-8c0-3.1-1.3-6-3.3-8c-2-2-4.9-3.3-8-3.3c-3.1,0-6,1.3-8,3.3 c-2,2-3.3,4.9-3.3,8c0,3.1,1.3,6,3.3,8C325.6,73.7,328.5,75,331.6,75"></path> <path class="st3" d="M331.6,218.4c3.1,0,6-1.3,8-3.3c2-2.1,3.3-4.9,3.3-8c0-3.1-1.3-6-3.3-8c-2-2-4.9-3.3-8-3.3c-3.1,0-6,1.3-8,3.3 c-2,2-3.3,4.9-3.3,8c0,3.1,1.3,6,3.3,8C325.6,217.1,328.5,218.4,331.6,218.4"></path> <rect x="234.2" y="44.9" class="st4" width="37.7" height="37.7"></rect> <rect x="80.9" y="116.5" class="st4" width="37.7" height="37.7"></rect> <rect x="80.9" y="188.2" class="st0" width="37.7" height="37.7"></rect> <rect x="80.9" y="259.9" class="st4" width="37.7" height="37.7"></rect> <rect x="234.2" y="188.2" class="st4" width="37.7" height="37.7"></rect> <polygon class="st3" points="224.3,247.5 229.3,247.5 248.1,247.5 248.1,233.2 224.3,233.2 224.3,175.8 229.3,175.8 248.1,175.8 248.1,161.5 224.3,161.5 224.3,104.1 229.3,104.1 248.1,104.1 248.1,89.8 224.3,89.8 224.3,32.4 229.3,32.4 248.1,32.4 248.1,14.7 104.6,14.7 104.6,32.4 128.4,32.4 128.4,89.8 104.6,89.8 104.6,104.1 128.4,104.1 128.4,161.5 104.6,161.5 104.6,175.8 128.4,175.8 128.4,233.2 104.6,233.2 104.6,247.5 128.4,247.5 128.4,304.8 104.6,304.8 104.6,323 248.1,323 248.1,304.8 224.3,304.8 "></polygon> <path class="st1" d="M323.6,55.7c2-2,4.9-3.3,8-3.3c3.1,0,6,1.3,8,3.3c2,2,3.3,4.9,3.3,8c0,3.1-1.3,5.9-3.3,8c-2,2-4.9,3.3-8,3.3 c-3.1,0-6-1.3-8-3.3c-2-2-3.3-4.9-3.3-8C320.3,60.6,321.5,57.7,323.6,55.7"></path> <rect x="234.2" y="44.9" class="st4" width="37.7" height="37.7"></rect> <rect x="80.9" y="116.5" class="st4" width="37.7" height="37.7"></rect> <rect x="80.9" y="188.2" class="st0" width="37.7" height="37.7"></rect> <rect x="80.9" y="259.9" class="st4" width="37.7" height="37.7"></rect> <polygon class="st1" points="248.1,323 104.6,323 104.6,304.8 128.4,304.8 128.4,247.5 104.6,247.5 104.6,233.2 128.4,233.2 128.4,175.8 104.6,175.8 104.6,161.5 128.4,161.5 128.4,104.1 104.6,104.1 104.6,89.8 128.4,89.8 128.4,32.4 104.6,32.4 104.6,14.7 248.1,14.7 248.1,32.4 229.3,32.4 224.3,32.4 224.3,89.8 248.1,89.8 248.1,104.1 229.3,104.1 224.3,104.1 224.3,161.5 248.1,161.5 248.1,175.8 229.3,175.8 224.3,175.8 224.3,233.2 248.1,233.2 248.1,247.5 229.3,247.5 224.3,247.5 224.3,304.8 248.1,304.8 "></polygon> <rect x="234.2" y="188.2" class="st4" width="37.7" height="37.7"></rect> <path class="st1" d="M339.6,215.1c-2,2-4.9,3.3-8,3.3c-3.1,0-6-1.3-8-3.3c-2-2-3.3-4.9-3.3-8c0-3.1,1.3-6,3.3-8c2-2,4.9-3.3,8-3.3 c3.1,0,6,1.3,8,3.3c2,2,3.3,4.9,3.3,8C342.9,210.2,341.6,213,339.6,215.1"></path> </g> </svg> 