<?xml version="1.0" encoding="UTF-8" standalone="no"?>
<!DOCTYPE svg PUBLIC "-//W3C//DTD SVG 1.1//EN"
 "http://www.w3.org/Graphics/SVG/1.1/DTD/svg11.dtd">
<!-- Generated by graphviz version 2.44.1 (20200629.0846)
 -->
<!-- Title: TypeHierarchy Pages: 1 -->
<svg width="674pt" height="387pt"
 viewBox="0.00 0.00 674.00 387.00" xmlns="http://www.w3.org/2000/svg" xmlns:xlink="http://www.w3.org/1999/xlink">
<g id="graph0" class="graph" transform="scale(1 1) rotate(0) translate(4 383)">
<title>TypeHierarchy</title>
<g id="clust5" class="cluster">
<title>cluster_data_hierarchy</title>
<polygon fill="transparent" stroke="transparent" points="8,-31 8,-371 536,-371 536,-31 8,-31"/>
</g>
<g id="clust13" class="cluster">
<title>cluster_legend</title>
<polygon fill="transparent" stroke="black" points="544,-8 544,-227 658,-227 658,-8 544,-8"/>
<text text-anchor="middle" x="601" y="-15.8" font-family="Times,serif" font-size="14.00">Legend</text>
</g>
<!-- Data -->
<g id="node1" class="node">
<title>Data</title>
<polygon fill="#f7fbff" stroke="black" points="370,-363 316,-363 316,-327 370,-327 370,-363"/>
<text text-anchor="middle" x="343" y="-341.3" font-family="Times,serif" font-size="14.00">Data</text>
</g>
<!-- Element -->
<g id="node2" class="node">
<title>Element</title>
<polygon fill="#f7fbff" stroke="black" points="256,-291 194,-291 194,-255 256,-255 256,-291"/>
<text text-anchor="middle" x="225" y="-269.3" font-family="Times,serif" font-size="14.00">Element</text>
</g>
<!-- Element&#45;&gt;Data -->
<g id="edge1" class="edge">
<title>Element&#45;&gt;Data</title>
<path fill="none" stroke="black" d="M253.87,-291.12C269.76,-300.55 289.63,-312.34 306.58,-322.39"/>
<polygon fill="black" stroke="black" points="305.26,-325.68 315.65,-327.77 308.83,-319.66 305.26,-325.68"/>
</g>
<!-- Bits -->
<g id="node3" class="node">
<title>Bits</title>
<polygon fill="#f7fbff" stroke="black" points="72,-219 18,-219 18,-183 72,-183 72,-219"/>
<text text-anchor="middle" x="45" y="-197.3" font-family="Times,serif" font-size="14.00">Bits</text>
</g>
<!-- Bits&#45;&gt;Element -->
<g id="edge3" class="edge">
<title>Bits&#45;&gt;Element</title>
<path fill="none" stroke="black" d="M67.6,-219.23C71.91,-222.06 76.49,-224.79 81,-227 114.15,-243.21 154.43,-255.21 183.94,-262.72"/>
<polygon fill="black" stroke="black" points="183.36,-266.18 193.91,-265.19 185.04,-259.39 183.36,-266.18"/>
</g>
<!-- Num -->
<g id="node4" class="node">
<title>Num</title>
<polygon fill="#f7fbff" stroke="black" points="290,-219 236,-219 236,-183 290,-183 290,-219"/>
<text text-anchor="middle" x="263" y="-197.3" font-family="Times,serif" font-size="14.00">Num</text>
</g>
<!-- Aggregate -->
<g id="node5" class="node">
<title>Aggregate</title>
<polygon fill="#f7fbff" stroke="black" points="495.5,-291 422.5,-291 422.5,-255 495.5,-255 495.5,-291"/>
<text text-anchor="middle" x="459" y="-269.3" font-family="Times,serif" font-size="14.00">Aggregate</text>
</g>
<!-- Aggregate&#45;&gt;Data -->
<g id="edge2" class="edge">
<title>Aggregate&#45;&gt;Data</title>
<path fill="none" stroke="black" d="M430.62,-291.12C415.12,-300.48 395.75,-312.17 379.17,-322.17"/>
<polygon fill="black" stroke="black" points="377.04,-319.37 370.29,-327.53 380.66,-325.36 377.04,-319.37"/>
</g>
<!-- VecLike -->
<g id="node6" class="node">
<title>VecLike</title>
<polygon fill="#f7fbff" stroke="black" points="404,-291 342,-291 342,-255 404,-255 404,-291"/>
<text text-anchor="middle" x="373" y="-269.3" font-family="Times,serif" font-size="14.00">VecLike</text>
</g>
<!-- Chisel Internal -->
<g id="node7" class="node">
<title>Chisel Internal</title>
<polygon fill="#f7fbff" stroke="black" points="649.5,-219 552.5,-219 552.5,-183 649.5,-183 649.5,-219"/>
<text text-anchor="middle" x="601" y="-197.3" font-family="Times,serif" font-size="14.00">Chisel Internal</text>
</g>
<!-- Bool -->
<g id="node8" class="node">
<title>Bool</title>
<polygon fill="#e5f5e0" stroke="black" points="262,-75 208,-75 208,-39 262,-39 262,-75"/>
<text text-anchor="middle" x="235" y="-53.3" font-family="Times,serif" font-size="14.00">Bool</text>
</g>
<!-- UInt -->
<g id="node9" class="node">
<title>UInt</title>
<polygon fill="#e5f5e0" stroke="black" points="164,-147 110,-147 110,-111 164,-111 164,-147"/>
<text text-anchor="middle" x="137" y="-125.3" font-family="Times,serif" font-size="14.00">UInt</text>
</g>
<!-- Bool&#45;&gt;UInt -->
<g id="edge15" class="edge">
<title>Bool&#45;&gt;UInt</title>
<path fill="none" stroke="black" d="M211.03,-75.12C198.45,-84.11 182.87,-95.24 169.25,-104.97"/>
<polygon fill="black" stroke="black" points="167.17,-102.15 161.07,-110.81 171.24,-107.85 167.17,-102.15"/>
</g>
<!-- Reset -->
<g id="node15" class="node">
<title>Reset</title>
<polygon fill="#e5f5e0" stroke="black" points="362,-219 308,-219 308,-183 362,-183 362,-219"/>
<text text-anchor="middle" x="335" y="-197.3" font-family="Times,serif" font-size="14.00">Reset</text>
</g>
<!-- Bool&#45;&gt;Reset -->
<g id="edge16" class="edge">
<title>Bool&#45;&gt;Reset</title>
<path fill="none" stroke="black" d="M262.28,-67.06C282.45,-75.26 308.8,-89.39 323,-111 334.94,-129.17 337.43,-153.94 337.23,-172.74"/>
<polygon fill="black" stroke="black" points="333.73,-172.63 336.86,-182.75 340.72,-172.89 333.73,-172.63"/>
</g>
<!-- UInt&#45;&gt;Bits -->
<g id="edge7" class="edge">
<title>UInt&#45;&gt;Bits</title>
<path fill="none" stroke="black" d="M114.26,-147.3C102.56,-156.2 88.14,-167.18 75.49,-176.8"/>
<polygon fill="black" stroke="black" points="73.32,-174.06 67.48,-182.9 77.56,-179.63 73.32,-174.06"/>
</g>
<!-- UInt&#45;&gt;Num -->
<g id="edge8" class="edge">
<title>UInt&#45;&gt;Num</title>
<path fill="none" stroke="black" d="M164.03,-145.02C182.34,-155.19 206.75,-168.75 226.74,-179.86"/>
<polygon fill="black" stroke="black" points="225.14,-182.97 235.58,-184.77 228.54,-176.85 225.14,-182.97"/>
</g>
<!-- SInt -->
<g id="node10" class="node">
<title>SInt</title>
<polygon fill="#e5f5e0" stroke="black" points="236,-147 182,-147 182,-111 236,-111 236,-147"/>
<text text-anchor="middle" x="209" y="-125.3" font-family="Times,serif" font-size="14.00">SInt</text>
</g>
<!-- SInt&#45;&gt;Bits -->
<g id="edge9" class="edge">
<title>SInt&#45;&gt;Bits</title>
<path fill="none" stroke="black" d="M181.96,-143.01C178.95,-144.39 175.92,-145.74 173,-147 135.36,-163.23 122.96,-165.38 81.37,-182.99"/>
<polygon fill="black" stroke="black" points="79.85,-179.83 72.04,-186.99 82.61,-186.27 79.85,-179.83"/>
</g>
<!-- SInt&#45;&gt;Num -->
<g id="edge10" class="edge">
<title>SInt&#45;&gt;Num</title>
<path fill="none" stroke="black" d="M222.35,-147.3C228.76,-155.61 236.56,-165.72 243.61,-174.86"/>
<polygon fill="black" stroke="black" points="240.93,-177.12 249.81,-182.9 246.47,-172.84 240.93,-177.12"/>
</g>
<!-- FixedPoint -->
<g id="node11" class="node">
<title>FixedPoint</title>
<polygon fill="#e5f5e0" stroke="black" points="92,-147 16,-147 16,-111 92,-111 92,-147"/>
<text text-anchor="middle" x="54" y="-125.3" font-family="Times,serif" font-size="14.00">FixedPoint</text>
</g>
<!-- FixedPoint&#45;&gt;Bits -->
<g id="edge11" class="edge">
<title>FixedPoint&#45;&gt;Bits</title>
<path fill="none" stroke="black" d="M51.78,-147.3C50.78,-155.02 49.59,-164.29 48.49,-172.89"/>
<polygon fill="black" stroke="black" points="45,-172.53 47.2,-182.9 51.95,-173.42 45,-172.53"/>
</g>
<!-- FixedPoint&#45;&gt;Num -->
<g id="edge12" class="edge">
<title>FixedPoint&#45;&gt;Num</title>
<path fill="none" stroke="black" d="M92.14,-144.04C95.13,-145.07 98.11,-146.07 101,-147 153.49,-163.97 170.68,-162.7 226.06,-182.95"/>
<polygon fill="black" stroke="black" points="225.09,-186.32 235.68,-186.54 227.54,-179.76 225.09,-186.32"/>
</g>
<!-- Interval -->
<g id="node12" class="node">
<title>Interval</title>
<polygon fill="#e5f5e0" stroke="black" points="313.5,-147 254.5,-147 254.5,-111 313.5,-111 313.5,-147"/>
<text text-anchor="middle" x="284" y="-125.3" font-family="Times,serif" font-size="14.00">Interval</text>
</g>
<!-- Interval&#45;&gt;Bits -->
<g id="edge13" class="edge">
<title>Interval&#45;&gt;Bits</title>
<path fill="none" stroke="black" d="M254.42,-143.6C251.27,-144.84 248.09,-146 245,-147 176.93,-169.07 153.55,-159.77 81.74,-183.17"/>
<polygon fill="black" stroke="black" points="80.62,-179.85 72.25,-186.35 82.85,-186.49 80.62,-179.85"/>
</g>
<!-- Interval&#45;&gt;Num -->
<g id="edge14" class="edge">
<title>Interval&#45;&gt;Num</title>
<path fill="none" stroke="black" d="M278.81,-147.3C276.47,-155.1 273.65,-164.49 271.05,-173.17"/>
<polygon fill="black" stroke="black" points="267.65,-172.31 268.13,-182.9 274.36,-174.32 267.65,-172.31"/>
</g>
<!-- Analog -->
<g id="node13" class="node">
<title>Analog</title>
<polygon fill="#e5f5e0" stroke="black" points="218,-219 162,-219 162,-183 218,-183 218,-219"/>
<text text-anchor="middle" x="190" y="-197.3" font-family="Times,serif" font-size="14.00">Analog</text>
</g>
<!-- Analog&#45;&gt;Element -->
<g id="edge4" class="edge">
<title>Analog&#45;&gt;Element</title>
<path fill="none" stroke="black" d="M198.65,-219.3C202.64,-227.27 207.45,-236.9 211.87,-245.74"/>
<polygon fill="black" stroke="black" points="208.85,-247.52 216.45,-254.9 215.11,-244.39 208.85,-247.52"/>
</g>
<!-- Clock -->
<g id="node14" class="node">
<title>Clock</title>
<polygon fill="#e5f5e0" stroke="black" points="144,-219 90,-219 90,-183 144,-183 144,-219"/>
<text text-anchor="middle" x="117" y="-197.3" font-family="Times,serif" font-size="14.00">Clock</text>
</g>
<!-- Clock&#45;&gt;Element -->
<g id="edge5" class="edge">
<title>Clock&#45;&gt;Element</title>
<path fill="none" stroke="black" d="M141.29,-219.11C145.19,-221.78 149.19,-224.49 153,-227 164.27,-234.43 176.68,-242.29 187.98,-249.34"/>
<polygon fill="black" stroke="black" points="186.42,-252.49 196.76,-254.79 190.11,-246.54 186.42,-252.49"/>
</g>
<!-- Reset&#45;&gt;Element -->
<g id="edge6" class="edge">
<title>Reset&#45;&gt;Element</title>
<path fill="none" stroke="black" d="M310.74,-219.15C306.84,-221.81 302.83,-224.51 299,-227 287.35,-234.58 274.46,-242.55 262.75,-249.65"/>
<polygon fill="black" stroke="black" points="260.83,-246.72 254.07,-254.88 264.44,-252.71 260.83,-246.72"/>
</g>
<!-- AsyncReset -->
<g id="node16" class="node">
<title>AsyncReset</title>
<polygon fill="#e5f5e0" stroke="black" points="433.5,-147 352.5,-147 352.5,-111 433.5,-111 433.5,-147"/>
<text text-anchor="middle" x="393" y="-125.3" font-family="Times,serif" font-size="14.00">AsyncReset</text>
</g>
<!-- AsyncReset&#45;&gt;Element -->
<g id="edge23" class="edge">
<title>AsyncReset&#45;&gt;Element</title>
<path fill="none" stroke="black" d="M393.97,-147.07C394.21,-168.49 391.31,-205.09 371,-227 344.24,-255.88 299.43,-266.4 266.49,-270.14"/>
<polygon fill="black" stroke="black" points="265.87,-266.68 256.25,-271.13 266.55,-273.65 265.87,-266.68"/>
</g>
<!-- AsyncReset&#45;&gt;Reset -->
<g id="edge24" class="edge">
<title>AsyncReset&#45;&gt;Reset</title>
<path fill="none" stroke="black" d="M378.66,-147.3C371.71,-155.7 363.23,-165.93 355.6,-175.14"/>
<polygon fill="black" stroke="black" points="352.86,-172.96 349.17,-182.9 358.25,-177.43 352.86,-172.96"/>
</g>
<!-- Record -->
<g id="node17" class="node">
<title>Record</title>
<polygon fill="#e5f5e0" stroke="black" points="528,-219 472,-219 472,-183 528,-183 528,-219"/>
<text text-anchor="middle" x="500" y="-197.3" font-family="Times,serif" font-size="14.00">Record</text>
</g>
<!-- Record&#45;&gt;Aggregate -->
<g id="edge19" class="edge">
<title>Record&#45;&gt;Aggregate</title>
<path fill="none" stroke="black" d="M489.87,-219.3C485.15,-227.36 479.44,-237.11 474.22,-246.02"/>
<polygon fill="black" stroke="black" points="471.05,-244.5 469.02,-254.9 477.09,-248.04 471.05,-244.5"/>
</g>
<!-- Bundle -->
<g id="node18" class="node">
<title>Bundle</title>
<polygon fill="#e5f5e0" stroke="black" points="528,-147 472,-147 472,-111 528,-111 528,-147"/>
<text text-anchor="middle" x="500" y="-125.3" font-family="Times,serif" font-size="14.00">Bundle</text>
</g>
<!-- Bundle&#45;&gt;Record -->
<g id="edge20" class="edge">
<title>Bundle&#45;&gt;Record</title>
<path fill="none" stroke="black" d="M500,-147.3C500,-155.02 500,-164.29 500,-172.89"/>
<polygon fill="black" stroke="black" points="496.5,-172.9 500,-182.9 503.5,-172.9 496.5,-172.9"/>
</g>
<!-- Vec -->
<g id="node19" class="node">
<title>Vec</title>
<polygon fill="#e5f5e0" stroke="black" points="454,-219 400,-219 400,-183 454,-183 454,-219"/>
<text text-anchor="middle" x="427" y="-197.3" font-family="Times,serif" font-size="14.00">Vec</text>
</g>
<!-- Vec&#45;&gt;Aggregate -->
<g id="edge21" class="edge">
<title>Vec&#45;&gt;Aggregate</title>
<path fill="none" stroke="black" d="M434.91,-219.3C438.55,-227.27 442.95,-236.9 446.99,-245.74"/>
<polygon fill="black" stroke="black" points="443.84,-247.26 451.18,-254.9 450.21,-244.35 443.84,-247.26"/>
</g>
<!-- Vec&#45;&gt;VecLike -->
<g id="edge22" class="edge">
<title>Vec&#45;&gt;VecLike</title>
<path fill="none" stroke="black" d="M413.65,-219.3C407.24,-227.61 399.44,-237.72 392.39,-246.86"/>
<polygon fill="black" stroke="black" points="389.53,-244.84 386.19,-254.9 395.07,-249.12 389.53,-244.84"/>
</g>
<!-- Chisel Types -->
<g id="node20" class="node">
<title>Chisel Types</title>
<polygon fill="#e5f5e0" stroke="black" points="645,-147 557,-147 557,-111 645,-111 645,-147"/>
<text text-anchor="middle" x="601" y="-125.3" font-family="Times,serif" font-size="14.00">Chisel Types</text>
</g>
<!-- Chisel Types&#45;&gt;Chisel Internal -->
<g id="edge26" class="edge">
<title>Chisel Types&#45;&gt;Chisel Internal</title>
<path fill="none" stroke="black" d="M601,-147.3C601,-155.02 601,-164.29 601,-172.89"/>
<polygon fill="black" stroke="black" points="597.5,-172.9 601,-182.9 604.5,-172.9 597.5,-172.9"/>
</g>
<!-- User Types -->
<g id="node21" class="node">
<title>User Types</title>
<polygon fill="#fcbba1" stroke="black" points="640.5,-75 561.5,-75 561.5,-39 640.5,-39 640.5,-75"/>
<text text-anchor="middle" x="601" y="-53.3" font-family="Times,serif" font-size="14.00">User Types</text>
</g>
<!-- User Types&#45;&gt;Chisel Types -->
<g id="edge25" class="edge">
<title>User Types&#45;&gt;Chisel Types</title>
<path fill="none" stroke="black" d="M601,-75.3C601,-83.02 601,-92.29 601,-100.89"/>
<polygon fill="black" stroke="black" points="597.5,-100.9 601,-110.9 604.5,-100.9 597.5,-100.9"/>
</g>
<!-- Ellipsis -->
<g id="node22" class="node">
<title>Ellipsis</title>
<polygon fill="#fcbba1" stroke="black" points="503,-75 449,-75 449,-39 503,-39 503,-75"/>
<text text-anchor="middle" x="476" y="-53.3" font-family="Times,serif" font-size="14.00">...</text>
</g>
<!-- Ellipsis&#45;&gt;Record -->
<g id="edge18" class="edge">
<title>Ellipsis&#45;&gt;Record</title>
<path fill="none" stroke="black" d="M469.08,-75.09C462.72,-93.28 455.36,-122.72 463,-147 466.1,-156.85 471.75,-166.47 477.72,-174.75"/>
<polygon fill="black" stroke="black" points="475.09,-177.06 483.96,-182.85 480.63,-172.79 475.09,-177.06"/>
</g>
<!-- Ellipsis&#45;&gt;Bundle -->
<g id="edge17" class="edge">
<title>Ellipsis&#45;&gt;Bundle</title>
<path fill="none" stroke="black" d="M481.93,-75.3C484.61,-83.1 487.83,-92.49 490.8,-101.17"/>
<polygon fill="black" stroke="black" points="487.58,-102.57 494.14,-110.9 494.2,-100.3 487.58,-102.57"/>
</g>
</g>
</svg>
