<?xml version="1.0" encoding="UTF-8" standalone="no"?>
<!-- Generator: Adobe Illustrator 17.1.0, SVG Export Plug-In . SVG Version: 6.00 Build 0)  -->

<svg
   xmlns:dc="http://purl.org/dc/elements/1.1/"
   xmlns:cc="http://creativecommons.org/ns#"
   xmlns:rdf="http://www.w3.org/1999/02/22-rdf-syntax-ns#"
   xmlns:svg="http://www.w3.org/2000/svg"
   xmlns="http://www.w3.org/2000/svg"
   xmlns:sodipodi="http://sodipodi.sourceforge.net/DTD/sodipodi-0.dtd"
   xmlns:inkscape="http://www.inkscape.org/namespaces/inkscape"
   version="1.1"
   id="Layer_1"
   x="0px"
   y="0px"
   viewBox="0 0 419.99999 239.99999"
   enable-background="new 0 0 425.2 226.8"
   xml:space="preserve"
   inkscape:version="0.92.4 (unknown)"
   sodipodi:docname="chisel-jumbotron.svg"
   width="420"
   height="240"
   inkscape:export-filename="/home/se/repos/github.com/freechipsproject/www.chisel-lang.org/docs/src/main/resources/microsite/img/jumbotron_pattern.png"
   inkscape:export-xdpi="90"
   inkscape:export-ydpi="90"><metadata
     id="metadata18"><rdf:RDF><cc:Work
         rdf:about=""><dc:format>image/svg+xml</dc:format><dc:type
           rdf:resource="http://purl.org/dc/dcmitype/StillImage" /><dc:title /></cc:Work></rdf:RDF></metadata><defs
     id="defs16"><linearGradient
       id="SVGID_1_"
       gradientUnits="userSpaceOnUse"
       x1="3.7488"
       y1="113.385"
       x2="420.66959"
       y2="113.385"
       gradientTransform="translate(-5.9,-85.700006)"><stop
         offset="0"
         style="stop-color:#1A1C54"
         id="stop8" /><stop
         offset="0.5427"
         style="stop-color:#2A3172"
         id="stop10" /></linearGradient><clipPath
       clipPathUnits="userSpaceOnUse"
       id="clipPath1979-3"><rect
         y="-5.4000039"
         x="-5"
         height="240"
         width="420"
         id="rect1981-2"
         style="color:#000000;clip-rule:nonzero;display:inline;overflow:visible;visibility:visible;opacity:1;isolation:auto;mix-blend-mode:normal;color-interpolation:sRGB;color-interpolation-filters:linearRGB;solid-color:#000000;solid-opacity:1;fill:#ff1c54;fill-opacity:1;fill-rule:nonzero;stroke:none;stroke-width:0.99999988;stroke-linecap:square;stroke-linejoin:miter;stroke-miterlimit:4;stroke-dasharray:none;stroke-dashoffset:0;stroke-opacity:1;color-rendering:auto;image-rendering:auto;shape-rendering:auto;text-rendering:auto;enable-background:accumulate" /></clipPath><clipPath
       clipPathUnits="userSpaceOnUse"
       id="clipPath1979-4"><rect
         y="-5.4000039"
         x="-5"
         height="240"
         width="420"
         id="rect1981-7"
         style="color:#000000;clip-rule:nonzero;display:inline;overflow:visible;visibility:visible;opacity:1;isolation:auto;mix-blend-mode:normal;color-interpolation:sRGB;color-interpolation-filters:linearRGB;solid-color:#000000;solid-opacity:1;fill:#ff1c54;fill-opacity:1;fill-rule:nonzero;stroke:none;stroke-width:0.99999988;stroke-linecap:square;stroke-linejoin:miter;stroke-miterlimit:4;stroke-dasharray:none;stroke-dashoffset:0;stroke-opacity:1;color-rendering:auto;image-rendering:auto;shape-rendering:auto;text-rendering:auto;enable-background:accumulate" /></clipPath><clipPath
       clipPathUnits="userSpaceOnUse"
       id="clipPath2184"><rect
         style="color:#000000;clip-rule:nonzero;display:inline;overflow:visible;visibility:visible;opacity:1;isolation:auto;mix-blend-mode:normal;color-interpolation:sRGB;color-interpolation-filters:linearRGB;solid-color:#000000;solid-opacity:1;fill:#ff1c54;fill-opacity:1;fill-rule:nonzero;stroke:none;stroke-width:0.99999988;stroke-linecap:square;stroke-linejoin:miter;stroke-miterlimit:4;stroke-dasharray:none;stroke-dashoffset:0;stroke-opacity:1;color-rendering:auto;image-rendering:auto;shape-rendering:auto;text-rendering:auto;enable-background:accumulate"
         id="rect2186"
         width="420"
         height="240"
         x="0"
         y="-1.0064698e-08" /></clipPath></defs><sodipodi:namedview
     pagecolor="#ffffff"
     bordercolor="#666666"
     borderopacity="1"
     objecttolerance="10"
     gridtolerance="10"
     guidetolerance="10"
     inkscape:pageopacity="0"
     inkscape:pageshadow="2"
     inkscape:window-width="958"
     inkscape:window-height="1056"
     id="namedview14"
     showgrid="true"
     fit-margin-top="0"
     fit-margin-left="0"
     fit-margin-right="0"
     fit-margin-bottom="0"
     inkscape:zoom="0.89407689"
     inkscape:cx="80.065303"
     inkscape:cy="-125.62031"
     inkscape:window-x="0"
     inkscape:window-y="22"
     inkscape:window-maximized="0"
     inkscape:current-layer="Layer_1"
     inkscape:object-nodes="false"
     inkscape:snap-smooth-nodes="true"
     inkscape:snap-intersection-paths="false"
     inkscape:snap-bbox="true"
     inkscape:bbox-nodes="true"><inkscape:grid
       type="xygrid"
       id="grid4157"
       originx="4.9999999"
       originy="-59.799995" /></sodipodi:namedview><g
     id="g2158"
     clip-path="url(#clipPath2184)"
     transform="translate(0,4.8000123)"
     style="fill:#8e9797;fill-opacity:1;opacity:0.75"><path
       inkscape:connector-curvature="0"
       style="fill:#8e9797;fill-opacity:1"
       id="path12-5"
       d="m 161.60001,0 h -11.8 V 21.7 H 94.6 V 0 H 82.8 V 55.2 H 94.6 V 33.5 h 55.20001 v 15.200001 c 0,0.2 -0.1,0.4 -0.1,0.6 0,3.3 2.7,5.899999 5.9,5.899999 3.2,0 5.9,-2.699999 5.9,-5.899999 v 0 0 V 0 Z m -1.4,49.300001 c 0,2.5 -2,4.599999 -4.6,4.599999 -2.6,0 -4.6,-1.999999 -4.6,-4.599999 v 0 c 0,-2.5 2,-4.6 4.6,-4.6 2.6,0 4.6,2 4.6,4.6 z M 243.40001,21.7 h -45.3 c -1.4,0 -2.5,-0.5 -3.5,-1.4 -1,-1 -1.4,-2.1 -1.4,-3.5 0,-1.4 0.5,-2.5 1.4,-3.5 1,-1 2.1,-1.4 3.5,-1.4 h 55.8 c 0.1,0 0.2,0 0.4,0 3.3,0 5.9,-2.7 5.9,-5.9 0,-3.2 -2.7,-5.9 -5.9,-5.9 h -56.2 c -4.6,0 -8.6,1.6 -11.8,4.9 -3.3,3.3 -4.9,7.2 -4.9,11.8 0,4.6 1.6,8.6 4.9,11.8 3.3,3.3 7.2,4.9 11.8,4.9 h 45.3 c 1.4,0 2.5,0.5 3.5,1.4 1,1 1.4,2.1 1.4,3.5 0,1.4 -0.5,2.5 -1.4,3.5 -1,1.000001 -2.1,1.400001 -3.5,1.400001 h -55.6 l -6.5,11.799999 h 62.1 c 4.6,0 8.6,-1.599999 11.8,-4.899999 3.3,-3.3 4.9,-7.2 4.9,-11.800001 0,-4.6 -1.6,-8.6 -4.9,-11.8 -3.2,-3.3 -7.1,-4.9 -11.8,-4.9 z m 15.4,-15.8 c 0,2.5 -2,4.6 -4.6,4.6 -2.5,0 -4.6,-2 -4.6,-4.6 0,-2.5 2,-4.6 4.6,-4.6 2.6,0.1 4.6,2.1 4.6,4.6 z m 149.1,37.500001 h -38.3 c -4.4,0 -8.1,-1.500001 -11.2,-4.600001 -3.1,-3.1 -4.6,-6.8 -4.6,-11.2 V 6.3 c 0,-0.1 0,-0.2 0,-0.4 0,-3.3 -2.7,-5.9 -5.9,-5.9 -3.3,0 -5.9,2.7 -5.9,5.9 v 0 0 21.7 c 0,7.6 2.7,14.1 8.1,19.500001 5.4,5.4 11.9,8.099999 19.5,8.099999 h 45.1 z M 348.00001,1.4 c 2.5,0 4.6,2 4.6,4.6 v 0 c 0,2.5 -2,4.6 -4.6,4.6 -2.6,0 -4.6,-2 -4.6,-4.6 v 0 c 0,-2.6 2,-4.6 4.6,-4.6 z M 16.4,38.7 c -3.1,-3.1 -4.6,-6.8 -4.6,-11.2 0,-4.4 1.5,-8.1 4.6,-11.2 3.1,-3.1 6.8,-4.6 11.2,-4.6 h 45 c 0.1,0 0.2,0 0.4,0 3.3,0 5.9,-2.7 5.9,-5.9 0,-3.2 -2.7,-5.9 -5.9,-5.9 H 27.6 C 20,-0.1 13.5,2.6 8.0999999,8 2.6999999,13.4 -4.9999973e-8,19.9 -4.9999973e-8,27.5 -4.9999973e-8,35.1 2.6999999,41.6 8.0999999,47.000001 13.5,52.400001 20,55.1 27.6,55.1 H 78.9 V 43.300001 H 27.6 C 23.2,43.400001 19.5,41.8 16.4,38.7 Z M 77.5,5.9 c 0,2.5 -2,4.6 -4.6,4.6 -2.5,0 -4.6,-2 -4.6,-4.6 0,-2.5 2,-4.6 4.6,-4.6 2.5,0.1 4.6,2.1 4.6,4.6 z m 213.00001,5.9 h 46.6 V 0 h -46.6 c -7.6,0 -14.1,2.7 -19.5,8.1 -5.4,5.4 -8.1,11.9 -8.1,19.5 0,7.6 2.7,14.1 8.1,19.500001 5.4,5.4 11.9,8.099999 19.5,8.099999 h 46.9 c 3.3,0 5.9,-2.699999 5.9,-5.899999 0,-3.3 -2.7,-5.9 -5.9,-5.9 -0.1,0 -0.2,0 -0.4,0 h -46.6 c -4.4,0 -8.1,-1.500001 -11.2,-4.600001 -1.6,-1.6 -2.7,-3.3 -3.5,-5.2 h 54.4 V 21.8 h -54.2 c 0.8,-1.9 1.9,-3.7 3.5,-5.2 3,-3.2 6.8,-4.8 11.1,-4.8 z m 42.4,37.500001 c 0,-2.5 2,-4.6 4.6,-4.6 2.5,0 4.6,2 4.6,4.6 0,2.5 -2,4.599999 -4.6,4.599999 -2.6,-0.1 -4.6,-2.099999 -4.6,-4.599999 z M 175.50001,1.6 v 21.2 c -2.3,2.3 -2.5,7 -0.3,11.5 0,0 0,0 0,0 1.2,2.4 1.9,5.1 1.9,7.8 v 7.100001 c 0,3.2 -2.6,5.899999 -5.9,5.899999 h -0.1 c -3.2,0 -5.9,-2.599999 -5.9,-5.899999 V 42.2 c 0,-2.7 0.7,-5.4 1.9,-7.8 0,0 0,0 0,0 2.2,-4.5 2,-9.3 -0.3,-11.5 V 1.6 Z m -8.7,-0.7 -1.3,-1 h 11.5 l -1.3,1 z m -1.5,-0.7 v 21.7 c 0.1,0.1 0.3,0.1 0.4,0.2 0.2,0.1 0.4,0.2 0.6,0.3 v -21 z m 10.9,22.1 c 0.2,-0.1 0.4,-0.2 0.5,-0.3 0.1,-0.1 0.3,-0.1 0.4,-0.2 V 0.1 l -1,1.3 v 20.9 z m 1,-22.3 z m -11.9,0 z" /><path
       inkscape:connector-curvature="0"
       style="fill:#8e9797;fill-opacity:1"
       id="path12-5-3"
       d="m 581.75001,-4.9999999e-7 h -11.8 V 21.7 h -55.2 V -4.9999999e-7 h -11.8 V 55.200001 h 11.8 V 33.5 h 55.2 v 15.2 c 0,0.2 -0.1,0.4 -0.1,0.6 0,3.3 2.7,5.900001 5.9,5.900001 3.2,0 5.9,-2.700001 5.9,-5.900002 v 0 0 V -5e-7 Z M 580.35001,49.3 c 0,2.5 -2,4.600001 -4.6,4.600001 -2.6,0 -4.6,-2.000001 -4.6,-4.600001 v 0 c 0,-2.5 2,-4.6 4.6,-4.6 2.6,0 4.6,2 4.6,4.6 z m 83.2,-27.6 h -45.3 c -1.4,0 -2.5,-0.5 -3.5,-1.4 -1,-1 -1.4,-2.1 -1.4,-3.5 0,-1.4 0.5,-2.5 1.4,-3.5 1,-1 2.1,-1.4 3.5,-1.4 h 55.8 c 0.1,0 0.2,0 0.4,0 3.3,0 5.9,-2.7000005 5.9,-5.9000005 0,-3.2 -2.7,-5.9 -5.9,-5.9 h -56.2 c -4.6,0 -8.6,1.6 -11.8,4.9 -3.3,3.3 -4.9,7.2000005 -4.9,11.8000005 0,4.6 1.6,8.6 4.9,11.8 3.3,3.3 7.2,4.9 11.8,4.9 h 45.3 c 1.4,0 2.5,0.5 3.5,1.4 1,1 1.4,2.1 1.4,3.5 0,1.4 -0.5,2.5 -1.4,3.5 -1,1.000001 -2.1,1.400001 -3.5,1.400001 h -55.6 l -6.5,11.8 h 62.1 c 4.6,0 8.6,-1.6 11.8,-4.900001 3.3,-3.3 4.9,-7.199999 4.9,-11.8 0,-4.6 -1.6,-8.6 -4.9,-11.8 -3.2,-3.3 -7.1,-4.9 -11.8,-4.9 z m 15.4,-15.8000005 c 0,2.5 -2,4.6000005 -4.6,4.6000005 -2.5,0 -4.6,-2.0000005 -4.6,-4.6000005 0,-2.5 2,-4.6 4.6,-4.6 2.6,0.1 4.6,2.1 4.6,4.6 z M 828.05001,43.4 h -38.3 c -4.4,0 -8.1,-1.5 -11.2,-4.6 -3.1,-3.1 -4.6,-6.8 -4.6,-11.2 V 6.2999995 c 0,-0.1 0,-0.2 0,-0.4 0,-3.3 -2.7,-5.89999999999999 -5.9,-5.89999999999999 -3.3,0 -5.9,2.69999999999999 -5.9,5.89999999999999 v 0 0 V 27.6 c 0,7.6 2.7,14.1 8.1,19.5 5.4,5.4 11.9,8.100001 19.5,8.100001 h 45.1 z m -59.9,-42.0000005 c 2.5,0 4.6,2 4.6,4.6 v 0 c 0,2.5 -2,4.6000005 -4.6,4.6000005 -2.6,0 -4.6,-2.0000005 -4.6,-4.6000005 v 0 c 0,-2.6 2,-4.6 4.6,-4.6 z M 436.55001,38.7 c -3.1,-3.1 -4.6,-6.8 -4.6,-11.2 0,-4.4 1.5,-8.1 4.6,-11.2 3.1,-3.1 6.8,-4.6 11.2,-4.6 h 45 c 0.1,0 0.2,0 0.4,0 3.3,0 5.9,-2.7000005 5.9,-5.9000005 0,-3.2 -2.7,-5.9 -5.9,-5.9 h -45.4 c -7.6,0 -14.1,2.7 -19.5,8.1 -5.4,5.4000005 -8.1,11.9000005 -8.1,19.5000005 0,7.6 2.7,14.1 8.1,19.5 5.4,5.399999 11.9,8.1 19.5,8.1 h 51.3 V 43.3 h -51.3 c -4.4,0.1 -8.1,-1.5 -11.2,-4.6 z m 61.1,-32.8000005 c 0,2.5 -2,4.6000005 -4.6,4.6000005 -2.5,0 -4.6,-2.0000005 -4.6,-4.6000005 0,-2.5 2,-4.6 4.6,-4.6 2.5,0.1 4.6,2.1 4.6,4.6 z m 213,5.9000005 h 46.6 V -4.9999999e-7 h -46.6 c -7.6,0 -14.1,2.69999999999999 -19.5,8.09999999999999 -5.4,5.4000005 -8.1,11.9000005 -8.1,19.5000005 0,7.6 2.7,14.1 8.1,19.5 5.4,5.4 11.9,8.100001 19.5,8.100001 h 46.9 c 3.3,0 5.9,-2.700001 5.9,-5.900001 0,-3.3 -2.7,-5.9 -5.9,-5.9 -0.1,0 -0.2,0 -0.4,0 h -46.6 c -4.4,0 -8.1,-1.5 -11.2,-4.6 -1.6,-1.6 -2.7,-3.3 -3.5,-5.2 h 54.4 V 21.8 h -54.2 c 0.8,-1.9 1.9,-3.7 3.5,-5.2 3,-3.2 6.8,-4.8 11.1,-4.8 z m 42.4,37.5 c 0,-2.5 2,-4.6 4.6,-4.6 2.5,0 4.6,2 4.6,4.6 0,2.5 -2,4.600001 -4.6,4.600001 -2.6,-0.1 -4.6,-2.100001 -4.6,-4.600001 z m -157.4,-47.7000005 V 22.8 c -2.3,2.3 -2.5,7 -0.3,11.499999 0,0 0,0 0,0 1.2,2.4 1.9,5.1 1.9,7.8 v 7.1 c 0,3.2 -2.6,5.900001 -5.9,5.900001 h -0.1 c -3.2,0 -5.9,-2.600001 -5.9,-5.900001 v -7 c 0,-2.7 0.7,-5.4 1.9,-7.8 0,0 0,0 0,0 2.2,-4.5 2,-9.3 -0.3,-11.5 V 1.5999995 Z m -8.7,-0.7 -1.3,-1 h 11.5 l -1.3,1 z m -1.5,-0.7 V 21.9 c 0.1,0.1 0.3,0.1 0.4,0.2 0.2,0.1 0.4,0.2 0.6,0.3 V 1.3999995 Z M 596.35001,22.3 c 0.2,-0.1 0.4,-0.2 0.5,-0.3 0.1,-0.1 0.3,-0.1 0.4,-0.2 V 0.0999995 l -1,1.3 V 22.3 Z m 1,-22.3000005 z m -11.9,0 z" /><path
       inkscape:connector-curvature="0"
       style="fill:#8e9797;fill-opacity:1"
       id="path12-5-6"
       d="m -48.47499,60 h -11.8 V 81.7 H -115.475 V 60 h -11.8 v 55.2 h 11.8 V 93.5 h 55.20001 v 15.2 c 0,0.2 -0.1,0.4 -0.1,0.6 0,3.3 2.7,5.9 5.9,5.9 3.2,0 5.9,-2.7 5.9,-5.9 v 0 0 V 60 Z m -1.4,49.3 c 0,2.5 -2,4.6 -4.6,4.6 -2.6,0 -4.6,-2 -4.6,-4.6 v 0 c 0,-2.5 2,-4.6 4.6,-4.6 2.6,0 4.6,2 4.6,4.6 z m 83.2,-27.6 h -45.3 c -1.4,0 -2.5,-0.5 -3.5,-1.4 -1,-1 -1.4,-2.1 -1.4,-3.5 0,-1.4 0.5,-2.5 1.4,-3.5 1,-1 2.1,-1.4 3.5,-1.4 h 55.8 c 0.1,0 0.2,0 0.4,0 3.3,0 5.9,-2.7 5.9,-5.9 0,-3.2 -2.7,-5.9 -5.9,-5.9 h -56.2 c -4.6,0 -8.6,1.6 -11.8,4.9 -3.3,3.3 -4.9,7.2 -4.9,11.8 0,4.6 1.6,8.6 4.9,11.8 3.3,3.3 7.2,4.9 11.8,4.9 h 45.3 c 1.4,0 2.5,0.5 3.5,1.4 1,1 1.4,2.1 1.4,3.5 0,1.4 -0.5,2.5 -1.4,3.5 -1,1 -2.1,1.4 -3.5,1.4 h -55.6 l -6.5,11.8 h 62.1 c 4.6,0 8.6,-1.6 11.8,-4.9 3.3,-3.3 4.9,-7.2 4.9,-11.8 0,-4.6 -1.6,-8.6 -4.9,-11.8 -3.2,-3.3 -7.1,-4.9 -11.8,-4.9 z m 15.4,-15.8 c 0,2.5 -2,4.6 -4.6,4.6 -2.5,0 -4.6,-2 -4.6,-4.6 0,-2.5 2,-4.6 4.6,-4.6 2.6,0.1 4.6,2.1 4.6,4.6 z m 149.1,37.5 h -38.3 c -4.4,0 -8.1,-1.5 -11.2,-4.6 -3.1,-3.1 -4.6,-6.8 -4.6,-11.2 V 66.3 c 0,-0.1 0,-0.2 0,-0.4 0,-3.3 -2.7,-5.9 -5.9,-5.9 -3.3,0 -5.9,2.7 -5.9,5.9 v 0 0 21.7 c 0,7.6 2.7,14.1 8.1,19.5 5.4,5.4 11.9,8.1 19.5,8.1 h 45.1 z m -59.9,-42 c 2.5,0 4.6,2 4.6,4.6 v 0 c 0,2.5 -2,4.6 -4.6,4.6 -2.6,0 -4.6,-2 -4.6,-4.6 v 0 c 0,-2.6 2,-4.6 4.6,-4.6 z M -193.675,98.7 c -3.1,-3.1 -4.6,-6.8 -4.6,-11.2 0,-4.4 1.5,-8.1 4.6,-11.2 3.1,-3.1 6.8,-4.6 11.2,-4.6 h 45 c 0.1,0 0.2,0 0.4,0 3.3,0 5.9,-2.7 5.9,-5.9 0,-3.2 -2.7,-5.9 -5.9,-5.9 h -45.4 c -7.6,0 -14.1,2.7 -19.5,8.1 -5.4,5.4 -8.1,11.9 -8.1,19.5 0,7.6 2.7,14.1 8.1,19.5 5.4,5.4 11.9,8.1 19.5,8.1 h 51.3 v -11.8 h -51.3 c -4.4,0.1 -8.1,-1.5 -11.2,-4.6 z m 61.1,-32.8 c 0,2.5 -2,4.6 -4.6,4.6 -2.5,0 -4.6,-2 -4.6,-4.6 0,-2.5 2,-4.6 4.6,-4.6 2.5,0.1 4.6,2.1 4.6,4.6 z m 213.00001,5.9 h 46.6 V 60 h -46.6 c -7.6,0 -14.1,2.7 -19.5,8.1 -5.4,5.4 -8.1,11.9 -8.1,19.5 0,7.6 2.7,14.1 8.1,19.5 5.4,5.4 11.9,8.1 19.5,8.1 h 46.9 c 3.3,0 5.9,-2.7 5.9,-5.9 0,-3.3 -2.7,-5.9 -5.9,-5.9 -0.1,0 -0.2,0 -0.4,0 h -46.6 c -4.4,0 -8.1,-1.5 -11.2,-4.6 -1.6,-1.6 -2.7,-3.3 -3.5,-5.2 h 54.4 V 81.8 h -54.2 c 0.8,-1.9 1.9,-3.7 3.5,-5.2 3,-3.2 6.8,-4.8 11.1,-4.8 z m 42.4,37.5 c 0,-2.5 2,-4.6 4.6,-4.6 2.5,0 4.6,2 4.6,4.6 0,2.5 -2,4.6 -4.6,4.6 -2.6,-0.1 -4.6,-2.1 -4.6,-4.6 z m -157.4,-47.7 v 21.2 c -2.3,2.3 -2.5,7 -0.3,11.5 0,0 0,0 0,0 1.2,2.4 1.9,5.1 1.9,7.8 v 7.1 c 0,3.2 -2.6,5.9 -5.9,5.9 h -0.1 c -3.2,0 -5.9,-2.6 -5.9,-5.9 v -7 c 0,-2.7 0.7,-5.4 1.9,-7.8 0,0 0,0 0,0 2.2,-4.5 2,-9.3 -0.3,-11.5 V 61.6 Z m -8.7,-0.7 -1.3,-1 h 11.5 l -1.3,1 z m -1.5,-0.7 v 21.7 c 0.1,0.1 0.3,0.1 0.4,0.2 0.2,0.1 0.4,0.2 0.6,0.3 v -21 z m 10.9,22.1 c 0.2,-0.1 0.4,-0.2 0.5,-0.3 0.1,-0.1 0.3,-0.1 0.4,-0.2 V 60.1 l -1,1.3 v 20.9 z m 1,-22.3 z m -11.9,0 z" /><path
       inkscape:connector-curvature="0"
       style="fill:#8e9797;fill-opacity:1"
       id="path12-5-3-2"
       d="m 371.67501,60 h -11.8 v 21.7 h -55.2 V 60 h -11.8 v 55.2 h 11.8 V 93.5 h 55.2 v 15.2 c 0,0.2 -0.1,0.4 -0.1,0.6 0,3.3 2.7,5.9 5.9,5.9 3.2,0 5.9,-2.7 5.9,-5.9 v 0 0 V 60 Z m -1.4,49.3 c 0,2.5 -2,4.6 -4.6,4.6 -2.6,0 -4.6,-2 -4.6,-4.6 v 0 c 0,-2.5 2,-4.6 4.6,-4.6 2.6,0 4.6,2 4.6,4.6 z m 83.2,-27.6 h -45.3 c -1.4,0 -2.5,-0.5 -3.5,-1.4 -1,-1 -1.4,-2.1 -1.4,-3.5 0,-1.4 0.5,-2.5 1.4,-3.5 1,-1 2.1,-1.4 3.5,-1.4 h 55.8 c 0.1,0 0.2,0 0.4,0 3.3,0 5.9,-2.7 5.9,-5.9 0,-3.2 -2.7,-5.9 -5.9,-5.9 h -56.2 c -4.6,0 -8.6,1.6 -11.8,4.9 -3.3,3.3 -4.9,7.2 -4.9,11.8 0,4.6 1.6,8.6 4.9,11.8 3.3,3.3 7.2,4.9 11.8,4.9 h 45.3 c 1.4,0 2.5,0.5 3.5,1.4 1,1 1.4,2.1 1.4,3.5 0,1.4 -0.5,2.5 -1.4,3.5 -1,1 -2.1,1.4 -3.5,1.4 h -55.6 l -6.5,11.8 h 62.1 c 4.6,0 8.6,-1.6 11.8,-4.9 3.3,-3.3 4.9,-7.2 4.9,-11.8 0,-4.6 -1.6,-8.6 -4.9,-11.8 -3.2,-3.3 -7.1,-4.9 -11.8,-4.9 z m 15.4,-15.8 c 0,2.5 -2,4.6 -4.6,4.6 -2.5,0 -4.6,-2 -4.6,-4.6 0,-2.5 2,-4.6 4.6,-4.6 2.6,0.1 4.6,2.1 4.6,4.6 z m 149.1,37.5 h -38.3 c -4.4,0 -8.1,-1.5 -11.2,-4.6 -3.1,-3.1 -4.6,-6.8 -4.6,-11.2 V 66.3 c 0,-0.1 0,-0.2 0,-0.4 0,-3.3 -2.7,-5.9 -5.9,-5.9 -3.3,0 -5.9,2.7 -5.9,5.9 v 0 0 21.7 c 0,7.6 2.7,14.1 8.1,19.5 5.4,5.4 11.9,8.1 19.5,8.1 h 45.1 z m -59.9,-42 c 2.5,0 4.6,2 4.6,4.6 v 0 c 0,2.5 -2,4.6 -4.6,4.6 -2.6,0 -4.6,-2 -4.6,-4.6 v 0 c 0,-2.6 2,-4.6 4.6,-4.6 z m -331.6,37.3 c -3.1,-3.1 -4.6,-6.8 -4.6,-11.2 0,-4.4 1.5,-8.1 4.6,-11.2 3.1,-3.1 6.8,-4.6 11.2,-4.6 h 45 c 0.1,0 0.2,0 0.4,0 3.3,0 5.9,-2.7 5.9,-5.9 0,-3.2 -2.7,-5.9 -5.9,-5.9 h -45.4 c -7.6,0 -14.1,2.7 -19.5,8.1 -5.4,5.4 -8.1,11.9 -8.1,19.5 0,7.6 2.7,14.1 8.1,19.5 5.4,5.4 11.9,8.1 19.5,8.1 h 51.3 v -11.8 h -51.3 c -4.4,0.1 -8.1,-1.5 -11.2,-4.6 z m 61.1,-32.8 c 0,2.5 -2,4.6 -4.6,4.6 -2.5,0 -4.6,-2 -4.6,-4.6 0,-2.5 2,-4.6 4.6,-4.6 2.5,0.1 4.6,2.1 4.6,4.6 z m 213,5.9 h 46.6 V 60 h -46.6 c -7.6,0 -14.1,2.7 -19.5,8.1 -5.4,5.4 -8.1,11.9 -8.1,19.5 0,7.6 2.7,14.1 8.1,19.5 5.4,5.4 11.9,8.1 19.5,8.1 h 46.9 c 3.3,0 5.9,-2.7 5.9,-5.9 0,-3.3 -2.7,-5.9 -5.9,-5.9 -0.1,0 -0.2,0 -0.4,0 h -46.6 c -4.4,0 -8.1,-1.5 -11.2,-4.6 -1.6,-1.6 -2.7,-3.3 -3.5,-5.2 h 54.4 V 81.8 h -54.2 c 0.8,-1.9 1.9,-3.7 3.5,-5.2 3,-3.2 6.8,-4.8 11.1,-4.8 z m 42.4,37.5 c 0,-2.5 2,-4.6 4.6,-4.6 2.5,0 4.6,2 4.6,4.6 0,2.5 -2,4.6 -4.6,4.6 -2.6,-0.1 -4.6,-2.1 -4.6,-4.6 z m -157.4,-47.7 v 21.2 c -2.3,2.3 -2.5,7 -0.3,11.5 0,0 0,0 0,0 1.2,2.4 1.9,5.1 1.9,7.8 v 7.1 c 0,3.2 -2.6,5.9 -5.9,5.9 h -0.1 c -3.2,0 -5.9,-2.6 -5.9,-5.9 v -7 c 0,-2.7 0.7,-5.4 1.9,-7.8 0,0 0,0 0,0 2.2,-4.5 2,-9.3 -0.3,-11.5 V 61.6 Z m -8.7,-0.7 -1.3,-1 h 11.5 l -1.3,1 z m -1.5,-0.7 v 21.7 c 0.1,0.1 0.3,0.1 0.4,0.2 0.2,0.1 0.4,0.2 0.6,0.3 v -21 z m 10.9,22.1 c 0.2,-0.1 0.4,-0.2 0.5,-0.3 0.1,-0.1 0.3,-0.1 0.4,-0.2 V 60.1 l -1,1.3 v 20.9 z m 1,-22.3 z m -11.9,0 z" /><path
       inkscape:connector-curvature="0"
       style="fill:#8e9797;fill-opacity:1"
       id="path12-5-3-2-8"
       d="m 791.825,60 h -11.8 V 81.7 H 724.82502 V 60 h -11.8 v 55.2 h 11.8 V 93.5 H 780.025 v 15.2 c 0,0.2 -0.1,0.4 -0.1,0.6 0,3.3 2.7,5.9 5.9,5.9 3.2,0 5.9,-2.7 5.9,-5.9 v 0 0 V 60 Z m -1.4,49.3 c 0,2.5 -2,4.6 -4.6,4.6 -2.6,0 -4.6,-2 -4.6,-4.6 v 0 c 0,-2.5 2,-4.6 4.6,-4.6 2.6,0 4.6,2 4.6,4.6 z m 83.2,-27.6 h -45.3 c -1.4,0 -2.5,-0.5 -3.5,-1.4 -1,-1 -1.4,-2.1 -1.4,-3.5 0,-1.4 0.5,-2.5 1.4,-3.5 1,-1 2.1,-1.4 3.5,-1.4 h 55.8 c 0.1,0 0.2,0 0.4,0 3.3,0 5.9,-2.7 5.9,-5.9 0,-3.2 -2.7,-5.9 -5.9,-5.9 h -56.2 c -4.6,0 -8.6,1.6 -11.8,4.9 -3.3,3.3 -4.9,7.2 -4.9,11.8 0,4.6 1.6,8.6 4.9,11.8 3.3,3.3 7.2,4.9 11.8,4.9 h 45.3 c 1.4,0 2.5,0.5 3.5,1.4 1,1 1.4,2.1 1.4,3.5 0,1.4 -0.5,2.5 -1.4,3.5 -1,1 -2.1,1.4 -3.5,1.4 h -55.6 l -6.5,11.8 h 62.1 c 4.6,0 8.6,-1.6 11.8,-4.9 3.3,-3.3 4.9,-7.2 4.9,-11.8 0,-4.6 -1.6,-8.6 -4.9,-11.8 -3.2,-3.3 -7.1,-4.9 -11.8,-4.9 z m 15.4,-15.8 c 0,2.5 -2,4.6 -4.6,4.6 -2.5,0 -4.6,-2 -4.6,-4.6 0,-2.5 2,-4.6 4.6,-4.6 2.6,0.1 4.6,2.1 4.6,4.6 z m 149.1,37.5 h -38.3 c -4.4,0 -8.1,-1.5 -11.2,-4.6 -3.1,-3.1 -4.6,-6.8 -4.6,-11.2 V 66.3 c 0,-0.1 0,-0.2 0,-0.4 0,-3.3 -2.7,-5.9 -5.9,-5.9 -3.3,0 -5.9,2.7 -5.9,5.9 v 0 0 21.7 c 0,7.6 2.7,14.1 8.1,19.5 5.4,5.4 11.9,8.1 19.5,8.1 h 45.1 z m -59.9,-42 c 2.5,0 4.6,2 4.6,4.6 v 0 c 0,2.5 -2,4.6 -4.6,4.6 -2.6,0 -4.6,-2 -4.6,-4.6 v 0 c 0,-2.6 2,-4.6 4.6,-4.6 z M 646.62502,98.7 c -3.1,-3.1 -4.6,-6.8 -4.6,-11.2 0,-4.4 1.5,-8.1 4.6,-11.2 3.1,-3.1 6.8,-4.6 11.2,-4.6 h 45 c 0.1,0 0.2,0 0.4,0 3.3,0 5.9,-2.7 5.9,-5.9 0,-3.2 -2.7,-5.9 -5.9,-5.9 h -45.4 c -7.6,0 -14.1,2.7 -19.5,8.1 -5.4,5.4 -8.1,11.9 -8.1,19.5 0,7.6 2.7,14.1 8.1,19.5 5.4,5.4 11.9,8.1 19.5,8.1 h 51.3 v -11.8 h -51.3 c -4.4,0.1 -8.1,-1.5 -11.2,-4.6 z m 61.1,-32.8 c 0,2.5 -2,4.6 -4.6,4.6 -2.5,0 -4.6,-2 -4.6,-4.6 0,-2.5 2,-4.6 4.6,-4.6 2.5,0.1 4.6,2.1 4.6,4.6 z M 920.725,71.8 h 46.6 V 60 h -46.6 c -7.6,0 -14.1,2.7 -19.5,8.1 -5.4,5.4 -8.1,11.9 -8.1,19.5 0,7.6 2.7,14.1 8.1,19.5 5.4,5.4 11.9,8.1 19.5,8.1 h 46.9 c 3.3,0 5.9,-2.7 5.9,-5.9 0,-3.3 -2.7,-5.9 -5.9,-5.9 -0.1,0 -0.2,0 -0.4,0 h -46.6 c -4.4,0 -8.1,-1.5 -11.2,-4.6 -1.6,-1.6 -2.7,-3.3 -3.5,-5.2 h 54.4 V 81.8 h -54.2 c 0.8,-1.9 1.9,-3.7 3.5,-5.2 3,-3.2 6.8,-4.8 11.1,-4.8 z m 42.4,37.5 c 0,-2.5 2,-4.6 4.6,-4.6 2.5,0 4.6,2 4.6,4.6 0,2.5 -2,4.6 -4.6,4.6 -2.6,-0.1 -4.6,-2.1 -4.6,-4.6 z m -157.4,-47.7 v 21.2 c -2.3,2.3 -2.5,7 -0.3,11.5 0,0 0,0 0,0 1.2,2.4 1.9,5.1 1.9,7.8 v 7.1 c 0,3.2 -2.6,5.9 -5.9,5.9 h -0.1 c -3.2,0 -5.9,-2.6 -5.9,-5.9 v -7 c 0,-2.7 0.7,-5.4 1.9,-7.8 0,0 0,0 0,0 2.2,-4.5 2,-9.3 -0.3,-11.5 V 61.6 Z m -8.7,-0.7 -1.3,-1 h 11.5 l -1.3,1 z m -1.5,-0.7 v 21.7 c 0.1,0.1 0.3,0.1 0.4,0.2 0.2,0.1 0.4,0.2 0.6,0.3 v -21 z m 10.9,22.1 c 0.2,-0.1 0.4,-0.2 0.5,-0.3 0.1,-0.1 0.3,-0.1 0.4,-0.2 V 60.1 l -1,1.3 v 20.9 z m 1,-22.3 z m -11.9,0 z" /><path
       inkscape:connector-curvature="0"
       style="fill:#8e9797;fill-opacity:1"
       id="path12-5-9"
       d="m 161.60001,120 h -11.8 v 21.7 H 94.6 V 120 H 82.8 v 55.2 h 11.8 v -21.7 h 55.20001 v 15.2 c 0,0.2 -0.1,0.4 -0.1,0.6 0,3.3 2.7,5.9 5.9,5.9 3.2,0 5.9,-2.7 5.9,-5.9 v 0 0 -49.3 z m -1.4,49.3 c 0,2.5 -2,4.6 -4.6,4.6 -2.6,0 -4.6,-2 -4.6,-4.6 v 0 c 0,-2.5 2,-4.6 4.6,-4.6 2.6,0 4.6,2 4.6,4.6 z m 83.2,-27.6 h -45.3 c -1.4,0 -2.5,-0.5 -3.5,-1.4 -1,-1 -1.4,-2.1 -1.4,-3.5 0,-1.4 0.5,-2.5 1.4,-3.5 1,-1 2.1,-1.4 3.5,-1.4 h 55.8 c 0.1,0 0.2,0 0.4,0 3.3,0 5.9,-2.7 5.9,-5.9 0,-3.2 -2.7,-5.9 -5.9,-5.9 h -56.2 c -4.6,0 -8.6,1.6 -11.8,4.9 -3.3,3.3 -4.9,7.2 -4.9,11.8 0,4.6 1.6,8.6 4.9,11.8 3.3,3.3 7.2,4.9 11.8,4.9 h 45.3 c 1.4,0 2.5,0.5 3.5,1.4 1,1 1.4,2.1 1.4,3.5 0,1.4 -0.5,2.5 -1.4,3.5 -1,1 -2.1,1.4 -3.5,1.4 h -55.6 l -6.5,11.8 h 62.1 c 4.6,0 8.6,-1.6 11.8,-4.9 3.3,-3.3 4.9,-7.2 4.9,-11.8 0,-4.6 -1.6,-8.6 -4.9,-11.8 -3.2,-3.3 -7.1,-4.9 -11.8,-4.9 z m 15.4,-15.8 c 0,2.5 -2,4.6 -4.6,4.6 -2.5,0 -4.6,-2 -4.6,-4.6 0,-2.5 2,-4.6 4.6,-4.6 2.6,0.1 4.6,2.1 4.6,4.6 z m 149.1,37.5 h -38.3 c -4.4,0 -8.1,-1.5 -11.2,-4.6 -3.1,-3.1 -4.6,-6.8 -4.6,-11.2 v -21.3 c 0,-0.1 0,-0.2 0,-0.4 0,-3.3 -2.7,-5.9 -5.9,-5.9 -3.3,0 -5.9,2.7 -5.9,5.9 v 0 0 21.7 c 0,7.6 2.7,14.1 8.1,19.5 5.4,5.4 11.9,8.1 19.5,8.1 h 45.1 z m -59.9,-42 c 2.5,0 4.6,2 4.6,4.6 v 0 c 0,2.5 -2,4.6 -4.6,4.6 -2.6,0 -4.6,-2 -4.6,-4.6 v 0 c 0,-2.6 2,-4.6 4.6,-4.6 z M 16.4,158.7 c -3.1,-3.1 -4.6,-6.8 -4.6,-11.2 0,-4.4 1.5,-8.1 4.6,-11.2 3.1,-3.1 6.8,-4.6 11.2,-4.6 h 45 c 0.1,0 0.2,0 0.4,0 3.3,0 5.9,-2.7 5.9,-5.9 0,-3.2 -2.7,-5.9 -5.9,-5.9 H 27.6 C 20,119.9 13.5,122.6 8.0999999,128 2.6999999,133.4 -4.9999973e-8,139.9 -4.9999973e-8,147.5 -4.9999973e-8,155.1 2.6999999,161.6 8.0999999,167 13.5,172.4 20,175.1 27.6,175.1 H 78.9 V 163.3 H 27.6 c -4.4,0.1 -8.1,-1.5 -11.2,-4.6 z m 61.1,-32.8 c 0,2.5 -2,4.6 -4.6,4.6 -2.5,0 -4.6,-2 -4.6,-4.6 0,-2.5 2,-4.6 4.6,-4.6 2.5,0.1 4.6,2.1 4.6,4.6 z m 213.00001,5.9 h 46.6 V 120 h -46.6 c -7.6,0 -14.1,2.7 -19.5,8.1 -5.4,5.4 -8.1,11.9 -8.1,19.5 0,7.6 2.7,14.1 8.1,19.5 5.4,5.4 11.9,8.1 19.5,8.1 h 46.9 c 3.3,0 5.9,-2.7 5.9,-5.9 0,-3.3 -2.7,-5.9 -5.9,-5.9 -0.1,0 -0.2,0 -0.4,0 h -46.6 c -4.4,0 -8.1,-1.5 -11.2,-4.6 -1.6,-1.6 -2.7,-3.3 -3.5,-5.2 h 54.4 v -11.8 h -54.2 c 0.8,-1.9 1.9,-3.7 3.5,-5.2 3,-3.2 6.8,-4.8 11.1,-4.8 z m 42.4,37.5 c 0,-2.5 2,-4.6 4.6,-4.6 2.5,0 4.6,2 4.6,4.6 0,2.5 -2,4.6 -4.6,4.6 -2.6,-0.1 -4.6,-2.1 -4.6,-4.6 z m -157.4,-47.7 v 21.2 c -2.3,2.3 -2.5,7 -0.3,11.5 0,0 0,0 0,0 1.2,2.4 1.9,5.1 1.9,7.8 v 7.1 c 0,3.2 -2.6,5.9 -5.9,5.9 h -0.1 c -3.2,0 -5.9,-2.6 -5.9,-5.9 v -7 c 0,-2.7 0.7,-5.4 1.9,-7.8 0,0 0,0 0,0 2.2,-4.5 2,-9.3 -0.3,-11.5 v -21.3 z m -8.7,-0.7 -1.3,-1 h 11.5 l -1.3,1 z m -1.5,-0.7 v 21.7 c 0.1,0.1 0.3,0.1 0.4,0.2 0.2,0.1 0.4,0.2 0.6,0.3 v -21 z m 10.9,22.1 c 0.2,-0.1 0.4,-0.2 0.5,-0.3 0.1,-0.1 0.3,-0.1 0.4,-0.2 v -21.7 l -1,1.3 v 20.9 z m 1,-22.3 z m -11.9,0 z" /><path
       inkscape:connector-curvature="0"
       style="fill:#8e9797;fill-opacity:1"
       id="path12-5-3-20"
       d="m 581.75001,120 h -11.8 v 21.7 h -55.2 V 120 h -11.8 v 55.2 h 11.8 v -21.7 h 55.2 v 15.2 c 0,0.2 -0.1,0.4 -0.1,0.6 0,3.3 2.7,5.9 5.9,5.9 3.2,0 5.9,-2.7 5.9,-5.9 v 0 0 -49.3 z m -1.4,49.3 c 0,2.5 -2,4.6 -4.6,4.6 -2.6,0 -4.6,-2 -4.6,-4.6 v 0 c 0,-2.5 2,-4.6 4.6,-4.6 2.6,0 4.6,2 4.6,4.6 z m 83.2,-27.6 h -45.3 c -1.4,0 -2.5,-0.5 -3.5,-1.4 -1,-1 -1.4,-2.1 -1.4,-3.5 0,-1.4 0.5,-2.5 1.4,-3.5 1,-1 2.1,-1.4 3.5,-1.4 h 55.8 c 0.1,0 0.2,0 0.4,0 3.3,0 5.9,-2.7 5.9,-5.9 0,-3.2 -2.7,-5.9 -5.9,-5.9 h -56.2 c -4.6,0 -8.6,1.6 -11.8,4.9 -3.3,3.3 -4.9,7.2 -4.9,11.8 0,4.6 1.6,8.6 4.9,11.8 3.3,3.3 7.2,4.9 11.8,4.9 h 45.3 c 1.4,0 2.5,0.5 3.5,1.4 1,1 1.4,2.1 1.4,3.5 0,1.4 -0.5,2.5 -1.4,3.5 -1,1 -2.1,1.4 -3.5,1.4 h -55.6 l -6.5,11.8 h 62.1 c 4.6,0 8.6,-1.6 11.8,-4.9 3.3,-3.3 4.9,-7.2 4.9,-11.8 0,-4.6 -1.6,-8.6 -4.9,-11.8 -3.2,-3.3 -7.1,-4.9 -11.8,-4.9 z m 15.4,-15.8 c 0,2.5 -2,4.6 -4.6,4.6 -2.5,0 -4.6,-2 -4.6,-4.6 0,-2.5 2,-4.6 4.6,-4.6 2.6,0.1 4.6,2.1 4.6,4.6 z m 149.1,37.5 h -38.3 c -4.4,0 -8.1,-1.5 -11.2,-4.6 -3.1,-3.1 -4.6,-6.8 -4.6,-11.2 v -21.3 c 0,-0.1 0,-0.2 0,-0.4 0,-3.3 -2.7,-5.9 -5.9,-5.9 -3.3,0 -5.9,2.7 -5.9,5.9 v 0 0 21.7 c 0,7.6 2.7,14.1 8.1,19.5 5.4,5.4 11.9,8.1 19.5,8.1 h 45.1 z m -59.9,-42 c 2.5,0 4.6,2 4.6,4.6 v 0 c 0,2.5 -2,4.6 -4.6,4.6 -2.6,0 -4.6,-2 -4.6,-4.6 v 0 c 0,-2.6 2,-4.6 4.6,-4.6 z m -331.6,37.3 c -3.1,-3.1 -4.6,-6.8 -4.6,-11.2 0,-4.4 1.5,-8.1 4.6,-11.2 3.1,-3.1 6.8,-4.6 11.2,-4.6 h 45 c 0.1,0 0.2,0 0.4,0 3.3,0 5.9,-2.7 5.9,-5.9 0,-3.2 -2.7,-5.9 -5.9,-5.9 h -45.4 c -7.6,0 -14.1,2.7 -19.5,8.1 -5.4,5.4 -8.1,11.9 -8.1,19.5 0,7.6 2.7,14.1 8.1,19.5 5.4,5.4 11.9,8.1 19.5,8.1 h 51.3 v -11.8 h -51.3 c -4.4,0.1 -8.1,-1.5 -11.2,-4.6 z m 61.1,-32.8 c 0,2.5 -2,4.6 -4.6,4.6 -2.5,0 -4.6,-2 -4.6,-4.6 0,-2.5 2,-4.6 4.6,-4.6 2.5,0.1 4.6,2.1 4.6,4.6 z m 213,5.9 h 46.6 V 120 h -46.6 c -7.6,0 -14.1,2.7 -19.5,8.1 -5.4,5.4 -8.1,11.9 -8.1,19.5 0,7.6 2.7,14.1 8.1,19.5 5.4,5.4 11.9,8.1 19.5,8.1 h 46.9 c 3.3,0 5.9,-2.7 5.9,-5.9 0,-3.3 -2.7,-5.9 -5.9,-5.9 -0.1,0 -0.2,0 -0.4,0 h -46.6 c -4.4,0 -8.1,-1.5 -11.2,-4.6 -1.6,-1.6 -2.7,-3.3 -3.5,-5.2 h 54.4 v -11.8 h -54.2 c 0.8,-1.9 1.9,-3.7 3.5,-5.2 3,-3.2 6.8,-4.8 11.1,-4.8 z m 42.4,37.5 c 0,-2.5 2,-4.6 4.6,-4.6 2.5,0 4.6,2 4.6,4.6 0,2.5 -2,4.6 -4.6,4.6 -2.6,-0.1 -4.6,-2.1 -4.6,-4.6 z m -157.4,-47.7 v 21.2 c -2.3,2.3 -2.5,7 -0.3,11.5 0,0 0,0 0,0 1.2,2.4 1.9,5.1 1.9,7.8 v 7.1 c 0,3.2 -2.6,5.9 -5.9,5.9 h -0.1 c -3.2,0 -5.9,-2.6 -5.9,-5.9 v -7 c 0,-2.7 0.7,-5.4 1.9,-7.8 0,0 0,0 0,0 2.2,-4.5 2,-9.3 -0.3,-11.5 v -21.3 z m -8.7,-0.7 -1.3,-1 h 11.5 l -1.3,1 z m -1.5,-0.7 v 21.7 c 0.1,0.1 0.3,0.1 0.4,0.2 0.2,0.1 0.4,0.2 0.6,0.3 v -21 z m 10.9,22.1 c 0.2,-0.1 0.4,-0.2 0.5,-0.3 0.1,-0.1 0.3,-0.1 0.4,-0.2 v -21.7 l -1,1.3 v 20.9 z m 1,-22.3 z m -11.9,0 z" /><path
       inkscape:connector-curvature="0"
       style="fill:#8e9797;fill-opacity:1"
       id="path12-5-6-3"
       d="m -48.47499,180 h -11.8 v 21.7 H -115.475 V 180 h -11.8 v 55.2 h 11.8 v -21.7 h 55.20001 v 15.2 c 0,0.2 -0.1,0.4 -0.1,0.6 0,3.3 2.7,5.9 5.9,5.9 3.2,0 5.9,-2.7 5.9,-5.9 v 0 0 -49.3 z m -1.4,49.3 c 0,2.5 -2,4.6 -4.6,4.6 -2.6,0 -4.6,-2 -4.6,-4.6 v 0 c 0,-2.5 2,-4.6 4.6,-4.6 2.6,0 4.6,2 4.6,4.6 z m 83.2,-27.6 h -45.3 c -1.4,0 -2.5,-0.5 -3.5,-1.4 -1,-1 -1.4,-2.1 -1.4,-3.5 0,-1.4 0.5,-2.5 1.4,-3.5 1,-1 2.1,-1.4 3.5,-1.4 h 55.8 c 0.1,0 0.2,0 0.4,0 3.3,0 5.9,-2.7 5.9,-5.9 0,-3.2 -2.7,-5.9 -5.9,-5.9 h -56.2 c -4.6,0 -8.6,1.6 -11.8,4.9 -3.3,3.3 -4.9,7.2 -4.9,11.8 0,4.6 1.6,8.6 4.9,11.8 3.3,3.3 7.2,4.9 11.8,4.9 h 45.3 c 1.4,0 2.5,0.5 3.5,1.4 1,1 1.4,2.1 1.4,3.5 0,1.4 -0.5,2.5 -1.4,3.5 -1,1 -2.1,1.4 -3.5,1.4 h -55.6 l -6.5,11.8 h 62.1 c 4.6,0 8.6,-1.6 11.8,-4.9 3.3,-3.3 4.9,-7.2 4.9,-11.8 0,-4.6 -1.6,-8.6 -4.9,-11.8 -3.2,-3.3 -7.1,-4.9 -11.8,-4.9 z m 15.4,-15.8 c 0,2.5 -2,4.6 -4.6,4.6 -2.5,0 -4.6,-2 -4.6,-4.6 0,-2.5 2,-4.6 4.6,-4.6 2.6,0.1 4.6,2.1 4.6,4.6 z m 149.1,37.5 h -38.3 c -4.4,0 -8.1,-1.5 -11.2,-4.6 -3.1,-3.1 -4.6,-6.8 -4.6,-11.2 v -21.3 c 0,-0.1 0,-0.2 0,-0.4 0,-3.3 -2.7,-5.9 -5.9,-5.9 -3.3,0 -5.9,2.7 -5.9,5.9 v 0 0 21.7 c 0,7.6 2.7,14.1 8.1,19.5 5.4,5.4 11.9,8.1 19.5,8.1 h 45.1 z m -59.9,-42 c 2.5,0 4.6,2 4.6,4.6 v 0 c 0,2.5 -2,4.6 -4.6,4.6 -2.6,0 -4.6,-2 -4.6,-4.6 v 0 c 0,-2.6 2,-4.6 4.6,-4.6 z M -193.675,218.7 c -3.1,-3.1 -4.6,-6.8 -4.6,-11.2 0,-4.4 1.5,-8.1 4.6,-11.2 3.1,-3.1 6.8,-4.6 11.2,-4.6 h 45 c 0.1,0 0.2,0 0.4,0 3.3,0 5.9,-2.7 5.9,-5.9 0,-3.2 -2.7,-5.9 -5.9,-5.9 h -45.4 c -7.6,0 -14.1,2.7 -19.5,8.1 -5.4,5.4 -8.1,11.9 -8.1,19.5 0,7.6 2.7,14.1 8.1,19.5 5.4,5.4 11.9,8.1 19.5,8.1 h 51.3 v -11.8 h -51.3 c -4.4,0.1 -8.1,-1.5 -11.2,-4.6 z m 61.1,-32.8 c 0,2.5 -2,4.6 -4.6,4.6 -2.5,0 -4.6,-2 -4.6,-4.6 0,-2.5 2,-4.6 4.6,-4.6 2.5,0.1 4.6,2.1 4.6,4.6 z m 213.00001,5.9 h 46.6 V 180 h -46.6 c -7.6,0 -14.1,2.7 -19.5,8.1 -5.4,5.4 -8.1,11.9 -8.1,19.5 0,7.6 2.7,14.1 8.1,19.5 5.4,5.4 11.9,8.1 19.5,8.1 h 46.9 c 3.3,0 5.9,-2.7 5.9,-5.9 0,-3.3 -2.7,-5.9 -5.9,-5.9 -0.1,0 -0.2,0 -0.4,0 h -46.6 c -4.4,0 -8.1,-1.5 -11.2,-4.6 -1.6,-1.6 -2.7,-3.3 -3.5,-5.2 h 54.4 v -11.8 h -54.2 c 0.8,-1.9 1.9,-3.7 3.5,-5.2 3,-3.2 6.8,-4.8 11.1,-4.8 z m 42.4,37.5 c 0,-2.5 2,-4.6 4.6,-4.6 2.5,0 4.6,2 4.6,4.6 0,2.5 -2,4.6 -4.6,4.6 -2.6,-0.1 -4.6,-2.1 -4.6,-4.6 z m -157.4,-47.7 v 21.2 c -2.3,2.3 -2.5,7 -0.3,11.5 0,0 0,0 0,0 1.2,2.4 1.9,5.1 1.9,7.8 v 7.1 c 0,3.2 -2.6,5.9 -5.9,5.9 h -0.1 c -3.2,0 -5.9,-2.6 -5.9,-5.9 v -7 c 0,-2.7 0.7,-5.4 1.9,-7.8 0,0 0,0 0,0 2.2,-4.5 2,-9.3 -0.3,-11.5 v -21.3 z m -8.7,-0.7 -1.3,-1 h 11.5 l -1.3,1 z m -1.5,-0.7 v 21.7 c 0.1,0.1 0.3,0.1 0.4,0.2 0.2,0.1 0.4,0.2 0.6,0.3 v -21 z m 10.9,22.1 c 0.2,-0.1 0.4,-0.2 0.5,-0.3 0.1,-0.1 0.3,-0.1 0.4,-0.2 v -21.7 l -1,1.3 v 20.9 z m 1,-22.3 z m -11.9,0 z" /><path
       inkscape:connector-curvature="0"
       style="fill:#8e9797;fill-opacity:1"
       id="path12-5-3-2-7"
       d="m 371.67501,180 h -11.8 v 21.7 h -55.2 V 180 h -11.8 v 55.2 h 11.8 v -21.7 h 55.2 v 15.2 c 0,0.2 -0.1,0.4 -0.1,0.6 0,3.3 2.7,5.9 5.9,5.9 3.2,0 5.9,-2.7 5.9,-5.9 v 0 0 -49.3 z m -1.4,49.3 c 0,2.5 -2,4.6 -4.6,4.6 -2.6,0 -4.6,-2 -4.6,-4.6 v 0 c 0,-2.5 2,-4.6 4.6,-4.6 2.6,0 4.6,2 4.6,4.6 z m 83.2,-27.6 h -45.3 c -1.4,0 -2.5,-0.5 -3.5,-1.4 -1,-1 -1.4,-2.1 -1.4,-3.5 0,-1.4 0.5,-2.5 1.4,-3.5 1,-1 2.1,-1.4 3.5,-1.4 h 55.8 c 0.1,0 0.2,0 0.4,0 3.3,0 5.9,-2.7 5.9,-5.9 0,-3.2 -2.7,-5.9 -5.9,-5.9 h -56.2 c -4.6,0 -8.6,1.6 -11.8,4.9 -3.3,3.3 -4.9,7.2 -4.9,11.8 0,4.6 1.6,8.6 4.9,11.8 3.3,3.3 7.2,4.9 11.8,4.9 h 45.3 c 1.4,0 2.5,0.5 3.5,1.4 1,1 1.4,2.1 1.4,3.5 0,1.4 -0.5,2.5 -1.4,3.5 -1,1 -2.1,1.4 -3.5,1.4 h -55.6 l -6.5,11.8 h 62.1 c 4.6,0 8.6,-1.6 11.8,-4.9 3.3,-3.3 4.9,-7.2 4.9,-11.8 0,-4.6 -1.6,-8.6 -4.9,-11.8 -3.2,-3.3 -7.1,-4.9 -11.8,-4.9 z m 15.4,-15.8 c 0,2.5 -2,4.6 -4.6,4.6 -2.5,0 -4.6,-2 -4.6,-4.6 0,-2.5 2,-4.6 4.6,-4.6 2.6,0.1 4.6,2.1 4.6,4.6 z m 149.1,37.5 h -38.3 c -4.4,0 -8.1,-1.5 -11.2,-4.6 -3.1,-3.1 -4.6,-6.8 -4.6,-11.2 v -21.3 c 0,-0.1 0,-0.2 0,-0.4 0,-3.3 -2.7,-5.9 -5.9,-5.9 -3.3,0 -5.9,2.7 -5.9,5.9 v 0 0 21.7 c 0,7.6 2.7,14.1 8.1,19.5 5.4,5.4 11.9,8.1 19.5,8.1 h 45.1 z m -59.9,-42 c 2.5,0 4.6,2 4.6,4.6 v 0 c 0,2.5 -2,4.6 -4.6,4.6 -2.6,0 -4.6,-2 -4.6,-4.6 v 0 c 0,-2.6 2,-4.6 4.6,-4.6 z m -331.6,37.3 c -3.1,-3.1 -4.6,-6.8 -4.6,-11.2 0,-4.4 1.5,-8.1 4.6,-11.2 3.1,-3.1 6.8,-4.6 11.2,-4.6 h 45 c 0.1,0 0.2,0 0.4,0 3.3,0 5.9,-2.7 5.9,-5.9 0,-3.2 -2.7,-5.9 -5.9,-5.9 h -45.4 c -7.6,0 -14.1,2.7 -19.5,8.1 -5.4,5.4 -8.1,11.9 -8.1,19.5 0,7.6 2.7,14.1 8.1,19.5 5.4,5.4 11.9,8.1 19.5,8.1 h 51.3 v -11.8 h -51.3 c -4.4,0.1 -8.1,-1.5 -11.2,-4.6 z m 61.1,-32.8 c 0,2.5 -2,4.6 -4.6,4.6 -2.5,0 -4.6,-2 -4.6,-4.6 0,-2.5 2,-4.6 4.6,-4.6 2.5,0.1 4.6,2.1 4.6,4.6 z m 213,5.9 h 46.6 V 180 h -46.6 c -7.6,0 -14.1,2.7 -19.5,8.1 -5.4,5.4 -8.1,11.9 -8.1,19.5 0,7.6 2.7,14.1 8.1,19.5 5.4,5.4 11.9,8.1 19.5,8.1 h 46.9 c 3.3,0 5.9,-2.7 5.9,-5.9 0,-3.3 -2.7,-5.9 -5.9,-5.9 -0.1,0 -0.2,0 -0.4,0 h -46.6 c -4.4,0 -8.1,-1.5 -11.2,-4.6 -1.6,-1.6 -2.7,-3.3 -3.5,-5.2 h 54.4 v -11.8 h -54.2 c 0.8,-1.9 1.9,-3.7 3.5,-5.2 3,-3.2 6.8,-4.8 11.1,-4.8 z m 42.4,37.5 c 0,-2.5 2,-4.6 4.6,-4.6 2.5,0 4.6,2 4.6,4.6 0,2.5 -2,4.6 -4.6,4.6 -2.6,-0.1 -4.6,-2.1 -4.6,-4.6 z m -157.4,-47.7 v 21.2 c -2.3,2.3 -2.5,7 -0.3,11.5 0,0 0,0 0,0 1.2,2.4 1.9,5.1 1.9,7.8 v 7.1 c 0,3.2 -2.6,5.9 -5.9,5.9 h -0.1 c -3.2,0 -5.9,-2.6 -5.9,-5.9 v -7 c 0,-2.7 0.7,-5.4 1.9,-7.8 0,0 0,0 0,0 2.2,-4.5 2,-9.3 -0.3,-11.5 v -21.3 z m -8.7,-0.7 -1.3,-1 h 11.5 l -1.3,1 z m -1.5,-0.7 v 21.7 c 0.1,0.1 0.3,0.1 0.4,0.2 0.2,0.1 0.4,0.2 0.6,0.3 v -21 z m 10.9,22.1 c 0.2,-0.1 0.4,-0.2 0.5,-0.3 0.1,-0.1 0.3,-0.1 0.4,-0.2 v -21.7 l -1,1.3 v 20.9 z m 1,-22.3 z m -11.9,0 z" /><path
       inkscape:connector-curvature="0"
       style="fill:#8e9797;fill-opacity:1"
       id="path12-5-3-2-8-5"
       d="m 791.825,180 h -11.8 v 21.7 H 724.82502 V 180 h -11.8 v 55.2 h 11.8 V 213.5 H 780.025 v 15.2 c 0,0.2 -0.1,0.4 -0.1,0.6 0,3.3 2.7,5.9 5.9,5.9 3.2,0 5.9,-2.7 5.9,-5.9 v 0 0 -49.3 z m -1.4,49.3 c 0,2.5 -2,4.6 -4.6,4.6 -2.6,0 -4.6,-2 -4.6,-4.6 v 0 c 0,-2.5 2,-4.6 4.6,-4.6 2.6,0 4.6,2 4.6,4.6 z m 83.2,-27.6 h -45.3 c -1.4,0 -2.5,-0.5 -3.5,-1.4 -1,-1 -1.4,-2.1 -1.4,-3.5 0,-1.4 0.5,-2.5 1.4,-3.5 1,-1 2.1,-1.4 3.5,-1.4 h 55.8 c 0.1,0 0.2,0 0.4,0 3.3,0 5.9,-2.7 5.9,-5.9 0,-3.2 -2.7,-5.9 -5.9,-5.9 h -56.2 c -4.6,0 -8.6,1.6 -11.8,4.9 -3.3,3.3 -4.9,7.2 -4.9,11.8 0,4.6 1.6,8.6 4.9,11.8 3.3,3.3 7.2,4.9 11.8,4.9 h 45.3 c 1.4,0 2.5,0.5 3.5,1.4 1,1 1.4,2.1 1.4,3.5 0,1.4 -0.5,2.5 -1.4,3.5 -1,1 -2.1,1.4 -3.5,1.4 h -55.6 l -6.5,11.8 h 62.1 c 4.6,0 8.6,-1.6 11.8,-4.9 3.3,-3.3 4.9,-7.2 4.9,-11.8 0,-4.6 -1.6,-8.6 -4.9,-11.8 -3.2,-3.3 -7.1,-4.9 -11.8,-4.9 z m 15.4,-15.8 c 0,2.5 -2,4.6 -4.6,4.6 -2.5,0 -4.6,-2 -4.6,-4.6 0,-2.5 2,-4.6 4.6,-4.6 2.6,0.1 4.6,2.1 4.6,4.6 z m 149.1,37.5 h -38.3 c -4.4,0 -8.1,-1.5 -11.2,-4.6 -3.1,-3.1 -4.6,-6.8 -4.6,-11.2 v -21.3 c 0,-0.1 0,-0.2 0,-0.4 0,-3.3 -2.7,-5.9 -5.9,-5.9 -3.3,0 -5.9,2.7 -5.9,5.9 v 0 0 21.7 c 0,7.6 2.7,14.1 8.1,19.5 5.4,5.4 11.9,8.1 19.5,8.1 h 45.1 z m -59.9,-42 c 2.5,0 4.6,2 4.6,4.6 v 0 c 0,2.5 -2,4.6 -4.6,4.6 -2.6,0 -4.6,-2 -4.6,-4.6 v 0 c 0,-2.6 2,-4.6 4.6,-4.6 z m -331.59998,37.3 c -3.1,-3.1 -4.6,-6.8 -4.6,-11.2 0,-4.4 1.5,-8.1 4.6,-11.2 3.1,-3.1 6.8,-4.6 11.2,-4.6 h 45 c 0.1,0 0.2,0 0.4,0 3.3,0 5.9,-2.7 5.9,-5.9 0,-3.2 -2.7,-5.9 -5.9,-5.9 h -45.4 c -7.6,0 -14.1,2.7 -19.5,8.1 -5.4,5.4 -8.1,11.9 -8.1,19.5 0,7.6 2.7,14.1 8.1,19.5 5.4,5.4 11.9,8.1 19.5,8.1 h 51.3 v -11.8 h -51.3 c -4.4,0.1 -8.1,-1.5 -11.2,-4.6 z m 61.1,-32.8 c 0,2.5 -2,4.6 -4.6,4.6 -2.5,0 -4.6,-2 -4.6,-4.6 0,-2.5 2,-4.6 4.6,-4.6 2.5,0.1 4.6,2.1 4.6,4.6 z m 212.99998,5.9 h 46.6 V 180 h -46.6 c -7.6,0 -14.1,2.7 -19.5,8.1 -5.4,5.4 -8.1,11.9 -8.1,19.5 0,7.6 2.7,14.1 8.1,19.5 5.4,5.4 11.9,8.1 19.5,8.1 h 46.9 c 3.3,0 5.9,-2.7 5.9,-5.9 0,-3.3 -2.7,-5.9 -5.9,-5.9 -0.1,0 -0.2,0 -0.4,0 h -46.6 c -4.4,0 -8.1,-1.5 -11.2,-4.6 -1.6,-1.6 -2.7,-3.3 -3.5,-5.2 h 54.4 v -11.8 h -54.2 c 0.8,-1.9 1.9,-3.7 3.5,-5.2 3,-3.2 6.8,-4.8 11.1,-4.8 z m 42.4,37.5 c 0,-2.5 2,-4.6 4.6,-4.6 2.5,0 4.6,2 4.6,4.6 0,2.5 -2,4.6 -4.6,4.6 -2.6,-0.1 -4.6,-2.1 -4.6,-4.6 z m -157.4,-47.7 v 21.2 c -2.3,2.3 -2.5,7 -0.3,11.5 0,0 0,0 0,0 1.2,2.4 1.9,5.1 1.9,7.8 v 7.1 c 0,3.2 -2.6,5.9 -5.9,5.9 h -0.1 c -3.2,0 -5.9,-2.6 -5.9,-5.9 v -7 c 0,-2.7 0.7,-5.4 1.9,-7.8 0,0 0,0 0,0 2.2,-4.5 2,-9.3 -0.3,-11.5 v -21.3 z m -8.7,-0.7 -1.3,-1 h 11.5 l -1.3,1 z m -1.5,-0.7 v 21.7 c 0.1,0.1 0.3,0.1 0.4,0.2 0.2,0.1 0.4,0.2 0.6,0.3 v -21 z m 10.9,22.1 c 0.2,-0.1 0.4,-0.2 0.5,-0.3 0.1,-0.1 0.3,-0.1 0.4,-0.2 v -21.7 l -1,1.3 v 20.9 z m 1,-22.3 z m -11.9,0 z" /></g></svg>