<?xml version="1.0" encoding="UTF-8" standalone="no"?>
<!-- Created with Inkscape (http://www.inkscape.org/) -->

<svg
   xmlns:dc="http://purl.org/dc/elements/1.1/"
   xmlns:cc="http://creativecommons.org/ns#"
   xmlns:rdf="http://www.w3.org/1999/02/22-rdf-syntax-ns#"
   xmlns:svg="http://www.w3.org/2000/svg"
   xmlns="http://www.w3.org/2000/svg"
   xmlns:sodipodi="http://sodipodi.sourceforge.net/DTD/sodipodi-0.dtd"
   xmlns:inkscape="http://www.inkscape.org/namespaces/inkscape"
   width="55"
   height="55"
   viewBox="0 0 14.552084 14.552084"
   version="1.1"
   id="svg4116"
   inkscape:version="0.92.4 (unknown)"
   sodipodi:docname="firrtl-tech.svg">
  <defs
     id="defs4110" />
  <sodipodi:namedview
     id="base"
     pagecolor="#ffffff"
     bordercolor="#666666"
     borderopacity="1.0"
     inkscape:pageopacity="0.0"
     inkscape:pageshadow="2"
     inkscape:zoom="5.6"
     inkscape:cx="47.929704"
     inkscape:cy="-6.3052897"
     inkscape:document-units="mm"
     inkscape:current-layer="layer1"
     showgrid="true"
     fit-margin-top="0"
     fit-margin-left="0"
     fit-margin-right="0"
     fit-margin-bottom="0"
     units="px"
     inkscape:window-width="1918"
     inkscape:window-height="1056"
     inkscape:window-x="0"
     inkscape:window-y="22"
     inkscape:window-maximized="0">
    <inkscape:grid
       type="xygrid"
       id="grid7827"
       originx="-72.349718"
       originy="-247.19111" />
  </sodipodi:namedview>
  <metadata
     id="metadata4113">
    <rdf:RDF>
      <cc:Work
         rdf:about="">
        <dc:format>image/svg+xml</dc:format>
        <dc:type
           rdf:resource="http://purl.org/dc/dcmitype/StillImage" />
        <dc:title></dc:title>
      </cc:Work>
    </rdf:RDF>
  </metadata>
  <g
     inkscape:label="Layer 1"
     inkscape:groupmode="layer"
     id="layer1"
     transform="translate(-72.349719,-35.256809)">
    <path
       d="m 82.434124,48.947632 -1.330494,-0.339649 -0.958975,-0.74964 v -5.489255 l 1.159067,-1.256378 0.627436,0.472603 c -0.02451,0.05186 -0.03923,0.109005 -0.03923,0.169919 0,0.221026 0.179726,0.400751 0.400753,0.400751 0.221025,0 0.40075,-0.179725 0.40075,-0.400751 0,-0.221026 -0.179725,-0.400751 -0.40075,-0.400751 -0.09165,0 -0.175199,0.03206 -0.242905,0.08411 l -0.535025,-0.403014 1.004989,-0.421496 0.657422,0.663267 c -0.0249,0.05224 -0.03998,0.109947 -0.03998,0.171427 0,0.221026 0.179725,0.400751 0.400753,0.400751 0.221024,0 0.40075,-0.179725 0.40075,-0.400751 0,-0.221026 -0.179726,-0.400751 -0.40075,-0.400751 -0.09071,0 -0.173503,0.03149 -0.240829,0.08241 l -0.589718,-0.594998 0.975383,-0.409049 0.625548,0.426399 c -0.0098,0.0347 -0.01678,0.07072 -0.01678,0.108439 0,0.221026 0.179726,0.400751 0.40075,0.400751 0.22103,0 0.400753,-0.179725 0.400753,-0.400751 0,-0.221026 -0.179723,-0.400751 -0.400753,-0.400751 -0.115039,0 -0.218194,0.04941 -0.29118,0.127109 l -0.582739,-0.397169 0.254783,-0.537855 c 0.02509,0.0049 0.05111,0.0079 0.0777,0.0079 0.221028,0 0.400753,-0.179725 0.400753,-0.400751 0,-0.221027 -0.179725,-0.400751 -0.400753,-0.400751 -0.221024,0 -0.40075,0.179724 -0.40075,0.400751 0,0.12692 0.06035,0.238753 0.152756,0.312303 l -0.270814,0.571235 -0.975191,0.409049 0.151813,-1.094569 c 0.204619,-0.01773 0.366429,-0.188023 0.366429,-0.397168 0,-0.221026 -0.179726,-0.400751 -0.400753,-0.400751 -0.221024,0 -0.40075,0.179725 -0.40075,0.400751 0,0.167089 0.102781,0.310228 0.24856,0.370388 l -0.167468,1.206214 -1.048741,0.439789 0.104477,-0.495611 c 0.01641,0.0021 0.03244,0.0049 0.04941,0.0049 0.221027,0 0.400753,-0.179725 0.400753,-0.400751 0,-0.221026 -0.179726,-0.400751 -0.400753,-0.400751 -0.221025,0 -0.40075,0.179725 -0.40075,0.400751 0,0.136161 0.06865,0.256292 0.172747,0.328899 l -0.133898,0.63479 -1.057417,1.146054 v -1.961701 l 0.230833,-0.37284 1.653922,-1.012533 0.0074,0.006 0.532386,-0.646482 0.891837,-0.01471 c 0.04375,0.173691 0.200281,0.303251 0.387361,0.303251 0.221028,0 0.400748,-0.179725 0.400748,-0.400751 0,-0.221026 -0.17972,-0.400751 -0.400748,-0.400751 -0.189533,0 -0.347759,0.132578 -0.389248,0.309663 l -0.732479,0.01207 0.469399,-0.569916 c 0.04469,0.01716 0.09297,0.02772 0.143702,0.02772 0.221027,0 0.400753,-0.179726 0.400753,-0.400752 0,-0.221026 -0.179726,-0.400751 -0.400753,-0.400751 -0.221024,0 -0.40075,0.179725 -0.40075,0.400751 0,0.101838 0.03923,0.19387 0.102215,0.264591 l -1.112296,1.350672 -1.332946,0.815836 1.379716,-2.227989 c 0.03149,0.0079 0.06393,0.01358 0.09807,0.01358 0.221027,0 0.40075,-0.179726 0.40075,-0.400752 0,-0.221026 -0.179723,-0.400751 -0.40075,-0.400751 -0.221027,0 -0.40075,0.179725 -0.40075,0.400751 0,0.119 0.05318,0.224798 0.135782,0.298348 l -0.634227,1.024224 -0.316641,-0.991411 0.754732,-0.959729 c 0.04752,0.01999 0.09977,0.03112 0.154455,0.03112 0.221027,0 0.400751,-0.179725 0.400751,-0.400751 0,-0.221026 -0.179724,-0.400751 -0.400751,-0.400751 -0.221027,0 -0.400751,0.179725 -0.400751,0.400751 0,0.09807 0.03678,0.186703 0.09524,0.256292 l -0.673073,0.856194 -0.287409,-0.899569 c 0.120885,-0.06921 0.203298,-0.197641 0.203298,-0.346626 0,-0.221026 -0.179725,-0.400751 -0.400751,-0.400751 -0.221026,0 -0.400751,0.179725 -0.400751,0.400751 0,0.221026 0.179725,0.400751 0.400751,0.400751 0.0057,0 0.01075,-0.0013 0.01622,-0.0017 l 0.723804,2.266271 -0.660061,1.065904 -0.230455,-0.71494 c 0.112399,-0.07091 0.187834,-0.195566 0.187834,-0.33814 0,-0.221026 -0.179725,-0.400751 -0.400751,-0.400751 -0.221026,0 -0.400751,0.179725 -0.400751,0.400751 0,0.221026 0.179725,0.400752 0.400751,0.400752 0.01169,0 0.02244,-0.0025 0.03395,-0.0034 l 0.2793,0.866188 -0.294576,0.475621 h -0.003 v 0.0049 l -1.89e-4,3.98e-4 1.89e-4,1.89e-4 v 2.285319 H 79.299664 V 40.04977 h -0.0028 l -0.67496,-1.080048 0.522391,-1.176228 c 0.02735,0.0058 0.05544,0.0094 0.08449,0.0094 0.221026,0 0.400752,-0.179725 0.400752,-0.400751 0,-0.221026 -0.179726,-0.400752 -0.400752,-0.400752 -0.221026,0 -0.400751,0.179726 -0.400751,0.400752 0,0.12428 0.05809,0.234038 0.146911,0.307588 L 78.50121,38.776578 78.2138,38.31661 78.935718,36.056561 c 0.0055,1.89e-4 0.01075,0.0017 0.01622,0.0017 0.221026,0 0.400751,-0.179725 0.400751,-0.400751 -3e-6,-0.221039 -0.179728,-0.400765 -0.400754,-0.400765 -0.221026,0 -0.400751,0.179726 -0.400751,0.400752 0,0.148985 0.0826,0.277414 0.203299,0.346626 l -0.285901,0.895043 -0.389247,-0.519374 c 0.07185,-0.07242 0.116548,-0.172182 0.116548,-0.282129 0,-0.221026 -0.179725,-0.400751 -0.400751,-0.400751 -0.221026,0 -0.400752,0.179725 -0.400752,0.400751 0,0.221026 0.179726,0.400751 0.400752,0.400751 0.04281,0 0.08317,-0.0085 0.121828,-0.02093 l 0.481278,0.641951 -0.31551,0.98764 -0.418667,-0.669868 c 0.07487,-0.07279 0.121829,-0.174256 0.121829,-0.286843 0,-0.221027 -0.179725,-0.400752 -0.400751,-0.400752 -0.221027,0 -0.400752,0.179725 -0.400752,0.400752 0,0.221026 0.179725,0.400751 0.400752,0.400751 0.04055,0 0.07883,-0.0079 0.115793,-0.01905 l 1.17736,1.884002 -1.326157,-0.811875 -1.137001,-1.366892 c 0.06242,-0.07072 0.10146,-0.162374 0.10146,-0.263835 0,-0.221026 -0.179725,-0.400751 -0.400751,-0.400751 -0.221026,0 -0.400751,0.179725 -0.400751,0.400751 0,0.221026 0.179725,0.400751 0.400751,0.400751 0.05111,0 0.09958,-0.01056 0.144648,-0.02791 l 0.461665,0.555017 h -0.726633 c -0.04281,-0.175388 -0.200092,-0.306457 -0.388493,-0.306457 -0.221026,0 -0.400751,0.179725 -0.400751,0.400751 0,0.221026 0.179725,0.400751 0.400751,0.400751 0.188401,0 0.345684,-0.131069 0.388493,-0.306456 h 0.883539 l 0.539175,0.648368 -0.0023,0.0038 0.01113,0.0068 0.01584,0.01905 0.0064,-0.0055 1.649775,1.009893 9.29e-4,-0.0015 0.210842,0.337386 v 1.986782 L 78.053576,40.949045 77.91949,40.314067 c 0.104101,-0.07242 0.172747,-0.192549 0.172747,-0.328899 0,-0.221026 -0.179725,-0.400751 -0.400751,-0.400751 -0.221026,0 -0.400751,0.179725 -0.400751,0.400751 0,0.221026 0.179725,0.400751 0.400751,0.400751 0.01697,0 0.033,-0.003 0.04941,-0.0049 l 0.104667,0.495611 -1.048742,-0.439789 -0.167467,-1.206214 c 0.14559,-0.06016 0.24856,-0.203299 0.24856,-0.370389 0,-0.221026 -0.179725,-0.400751 -0.400751,-0.400751 -0.221027,0 -0.400751,0.179725 -0.400751,0.400751 0,0.209145 0.16162,0.37963 0.366427,0.397168 l 0.151831,1.094558 -0.975193,-0.40886 -0.270813,-0.571236 c 0.09241,-0.07355 0.152756,-0.185383 0.152756,-0.312303 0,-0.221026 -0.179725,-0.400751 -0.400751,-0.400751 -0.221026,0 -0.400751,0.179725 -0.400751,0.400751 0,0.221026 0.179725,0.400751 0.400751,0.400751 0.02659,0 0.05243,-0.0028 0.07751,-0.0079 l 0.254972,0.537855 -0.582739,0.397168 c -0.07317,-0.07788 -0.176331,-0.127295 -0.291181,-0.127295 -0.221027,0 -0.400752,0.179724 -0.400752,0.400751 0,0.221025 0.179725,0.400751 0.400752,0.400751 0.221026,0 0.400751,-0.179726 0.400751,-0.400751 0,-0.03791 -0.007,-0.07374 -0.01678,-0.108439 l 0.625361,-0.426399 0.975381,0.409049 -0.589529,0.594997 c -0.06734,-0.05112 -0.150132,-0.08242 -0.240843,-0.08242 -0.221026,0 -0.400751,0.179725 -0.400751,0.400751 0,0.221026 0.179725,0.400751 0.400751,0.400751 0.221026,0 0.400751,-0.179725 0.400751,-0.400751 0,-0.06167 -0.01508,-0.119188 -0.03998,-0.171427 l 0.657232,-0.663267 1.00499,0.421496 -0.535026,0.403014 c -0.06752,-0.05186 -0.151248,-0.08411 -0.242903,-0.08411 -0.221026,0 -0.400751,0.179726 -0.400751,0.400752 0,0.221026 0.179725,0.400751 0.400751,0.400751 0.221027,0 0.400752,-0.179725 0.400752,-0.400751 0,-0.06091 -0.01471,-0.118057 -0.03923,-0.169919 l 0.627435,-0.472603 1.163027,1.260716 v 0.03753 h 0.0019 v 5.461344 l -0.936532,0.731912 -1.285232,0.328145 -0.06902,0.05922 -0.444692,0.471095 0.102969,0.09731 0.468455,-0.496555 0.993863,-0.253463 -0.814327,0.742285 0.09524,0.104667 0.872223,-0.795279 -0.132955,0.634979 0.138424,0.02904 0.17105,-0.816967 0.768499,-0.600467 -0.315697,0.773215 -0.0077,0.0038 0.003,0.0062 -0.326071,0.3355 0.101461,0.09863 0.287787,-0.296462 0.358884,0.780192 0.128618,-0.05903 -0.396225,-0.861474 0.372651,-0.91277 h 0.348324 l -0.0025,0.269683 -0.499572,0.399242 0.0628,0.07959 0.435452,-0.343986 -0.01132,1.285044 0.141442,0.0011 0.0079,-0.899757 0.377366,0.227249 0.0545,-0.09033 -0.430925,-0.245732 0.006,-0.682126 h 0.28873 l 0.284769,0.865623 -0.0041,0.004 0.0085,0.0089 0.01094,0.03319 -0.319658,0.871469 0.132766,0.04865 0.301742,-0.822812 0.366994,0.380572 0.101838,-0.09826 -0.470529,-0.487691 -0.226495,-0.687972 0.794524,0.621023 0.171051,0.817344 0.138424,-0.02904 -0.123337,-0.588963 0.774533,0.57614 0.0843,-0.113531 -0.773967,-0.575762 1.121726,0.286278 0.39,0.438281 0.1058,-0.09392 -0.414331,-0.465248 z m -0.342667,-7.245017 0.09543,-0.126731 c 0.03168,-0.01886 0.06657,-0.03262 0.106177,-0.03262 0.116924,0 0.212162,0.09524 0.212162,0.212162 0,0.116925 -0.09524,0.212163 -0.212162,0.212163 -0.116927,0 -0.212162,-0.09524 -0.212162,-0.212163 -1.89e-4,-0.01867 0.006,-0.03545 0.01057,-0.0528 z m 1.446666,-0.465814 c 0.116924,0 0.212162,0.09524 0.212162,0.212162 0,0.116926 -0.09524,0.212163 -0.212162,0.212163 -0.116927,0 -0.212162,-0.09524 -0.212162,-0.212163 0,-0.116925 0.09524,-0.212162 0.212162,-0.212162 z m 1.15435,-0.787547 c 0.116926,0 0.212164,0.09524 0.212164,0.212163 0,0.116925 -0.09524,0.212162 -0.212164,0.212162 -0.116925,0 -0.212163,-0.09524 -0.212163,-0.212162 0,-0.116925 0.09524,-0.212163 0.212163,-0.212163 z m -0.541435,-1.601496 c 0.116924,0 0.21216,0.09524 0.21216,0.212162 0,0.116925 -0.09524,0.212163 -0.21216,0.212163 -0.116929,0 -0.212164,-0.09524 -0.212164,-0.212163 0,-0.116925 0.09524,-0.212162 0.212164,-0.212162 z m -1.588675,0.01282 c 0,-0.116925 0.09524,-0.212163 0.212162,-0.212163 0.116927,0 0.212165,0.09524 0.212165,0.212163 0,0.116925 -0.09524,0.212162 -0.212165,0.212162 -0.116924,0 -0.212162,-0.09505 -0.212162,-0.212162 z m -1.002161,0.912769 c 0.116927,0 0.212165,0.09524 0.212165,0.212163 0,0.116925 -0.09524,0.212162 -0.212165,0.212162 -0.116924,0 -0.212161,-0.09524 -0.212161,-0.212162 0,-0.116925 0.09524,-0.212163 0.212161,-0.212163 z m 2.284376,-1.9898 c 0.116927,0 0.212162,0.09524 0.212162,0.212163 0,0.116925 -0.09523,0.212162 -0.212162,0.212162 -0.0958,0 -0.173877,-0.06525 -0.200092,-0.152757 l -0.0019,-0.109947 c 0.02321,-0.09184 0.102784,-0.16162 0.20198,-0.16162 z m -0.508623,-1.021958 c 0.116926,0 0.212162,0.09524 0.212162,0.212162 0,0.116925 -0.09524,0.212163 -0.212162,0.212163 -0.02885,0 -0.0562,-0.006 -0.08128,-0.01641 l -0.08505,-0.07015 c -0.02697,-0.03545 -0.04583,-0.0777 -0.04583,-0.1256 0,-0.117114 0.09505,-0.212162 0.212163,-0.212162 z m -1.266184,-0.184252 c 0.116924,0 0.212162,0.09524 0.212162,0.212163 0,0.116925 -0.09524,0.212162 -0.212162,0.212162 -0.01999,0 -0.03829,-0.0062 -0.05658,-0.0115 l -0.101458,-0.0628 c -0.03263,-0.03734 -0.05412,-0.08468 -0.05412,-0.137858 0,-0.116926 0.09524,-0.212163 0.212162,-0.212163 z m -0.306458,-0.9982 c 0.116924,0 0.212162,0.09524 0.212162,0.212162 0,0.116925 -0.09524,0.212163 -0.212162,0.212163 -0.05488,0 -0.103723,-0.02225 -0.14144,-0.05639 l -0.01001,-0.0079 c -0.03734,-0.03828 -0.06091,-0.09033 -0.06091,-0.147854 1.89e-4,-0.116925 0.09543,-0.212162 0.212354,-0.212162 z m -1.37915,0.272699 -0.0072,0.0025 c -0.02395,0.0094 -0.04979,0.01565 -0.07713,0.01565 -0.116925,0 -0.212162,-0.09524 -0.212162,-0.212163 0,-0.116925 0.09524,-0.212162 0.212162,-0.212162 0.116926,0 0.212163,0.09524 0.212163,0.212162 0,0.08675 -0.05281,0.161244 -0.127863,0.194058 z m -0.447521,2.696066 c -0.116925,0 -0.212162,-0.09524 -0.212162,-0.212163 0,-0.116925 0.09524,-0.212162 0.212162,-0.212162 0.116925,0 0.212163,0.09524 0.212163,0.212162 0,0.116925 -0.09524,0.212163 -0.212163,0.212163 z m -0.707397,-1.357651 c 0.116926,0 0.212163,0.09524 0.212163,0.212162 0,0.116926 -0.09524,0.212163 -0.212163,0.212163 -0.116925,0 -0.212162,-0.09524 -0.212162,-0.212163 0,-0.116925 0.09524,-0.212162 0.212162,-0.212162 z m -0.48901,-1.532661 c 0,-0.116925 0.09524,-0.212163 0.212162,-0.212163 0.116925,0 0.212162,0.09524 0.212162,0.212163 0,0.116925 -0.09524,0.212162 -0.212162,0.212162 -0.02734,0 -0.05299,-0.0062 -0.07713,-0.01565 l -0.0072,-0.0025 c -0.07506,-0.03262 -0.127862,-0.107118 -0.127862,-0.194058 z m -0.94483,0.652329 c -0.116925,0 -0.212163,-0.09524 -0.212163,-0.212163 0,-0.116925 0.09524,-0.212162 0.212163,-0.212162 0.116925,0 0.212162,0.09524 0.212162,0.212162 0,0.116925 -0.09524,0.212163 -0.212162,0.212163 z m -0.409804,1.052702 c -0.116925,0 -0.212162,-0.09524 -0.212162,-0.212162 0,-0.116925 0.09524,-0.212163 0.212162,-0.212163 0.116925,0 0.212163,0.09524 0.212163,0.212163 0,0.116925 -0.09524,0.212162 -0.212163,0.212162 z m -1.302017,-0.264401 -0.08562,0.0711 c -0.02508,0.01056 -0.05262,0.01641 -0.08166,0.01641 -0.116925,0 -0.212163,-0.09524 -0.212163,-0.212162 0,-0.116926 0.09524,-0.212163 0.212163,-0.212163 0.116925,0 0.212162,0.09524 0.212162,0.212163 1.89e-4,0.04752 -0.01829,0.0892 -0.04488,0.124657 z m -0.474678,0.952562 c -0.0247,0.08977 -0.103535,0.157094 -0.201036,0.157094 -0.116925,0 -0.212162,-0.09524 -0.212162,-0.212162 0,-0.116925 0.09524,-0.212163 0.212162,-0.212163 0.0975,0 0.176331,0.06733 0.201036,0.157095 z m -0.507492,1.221301 c -0.116925,0 -0.212163,-0.09524 -0.212163,-0.212163 0,-0.116925 0.09524,-0.212162 0.212163,-0.212162 0.116925,0 0.212162,0.09524 0.212162,0.212162 0,0.116925 -0.09524,0.212163 -0.212162,0.212163 z m -0.541627,1.601496 c -0.116925,0 -0.212163,-0.09524 -0.212163,-0.212162 0,-0.116925 0.09524,-0.212163 0.212163,-0.212163 0.116924,0 0.212162,0.09524 0.212162,0.212163 0,0.116925 -0.09505,0.212162 -0.212162,0.212162 z m 1.15454,0.787547 c -0.116925,0 -0.212162,-0.09524 -0.212162,-0.212163 0,-0.116925 0.09524,-0.212162 0.212162,-0.212162 0.116925,0 0.212163,0.09524 0.212163,0.212162 0,0.116926 -0.09524,0.212163 -0.212163,0.212163 z m 0.763408,-2.588382 c -0.116925,0 -0.212163,-0.09524 -0.212163,-0.212162 0,-0.116925 0.09524,-0.212162 0.212163,-0.212162 0.116925,0 0.212162,0.09524 0.212162,0.212162 0,0.116925 -0.09524,0.212162 -0.212162,0.212162 z m 0.481656,2.894839 c -0.116925,0 -0.212163,-0.09524 -0.212163,-0.212163 0,-0.116925 0.09524,-0.212162 0.212163,-0.212162 0.03942,0 0.07449,0.01377 0.106175,0.03262 l 0.09543,0.126731 c 0.0045,0.01735 0.01075,0.03413 0.01075,0.0528 -1.89e-4,0.116925 -0.09543,0.212163 -0.212351,0.212163 z m 0.732667,-1.769906 c -0.116925,0 -0.212162,-0.09524 -0.212162,-0.212163 0,-0.116925 0.09524,-0.212162 0.212162,-0.212162 0.116925,0 0.212162,0.09524 0.212162,0.212162 0,0.116925 -0.09524,0.212163 -0.212162,0.212163 z"
       id="path3402"
       inkscape:connector-curvature="0"
       style="fill:#ffffff;stroke-width:0.52916664" />
  </g>
</svg>
