<?xml version="1.0" encoding="UTF-8" standalone="no"?>
<!DOCTYPE svg PUBLIC "-//W3C//DTD SVG 1.1//EN"
 "http://www.w3.org/Graphics/SVG/1.1/DTD/svg11.dtd">
<!-- Generated by graphviz version 2.40.1 (20161225.0304)
 -->
<!-- Title: G Pages: 1 -->
<svg width="819pt" height="992pt"
 viewBox="0.00 0.00 818.57 992.00" xmlns="http://www.w3.org/2000/svg" xmlns:xlink="http://www.w3.org/1999/xlink">
<g id="graph0" class="graph" transform="scale(1 1) rotate(0) translate(4 988)">
<title>G</title>
<polygon fill="#ffffff" stroke="transparent" points="-4,4 -4,-988 814.5702,-988 814.5702,4 -4,4"/>
<g id="clust1" class="cluster">
<title>cluster_mlir_frontends</title>
<polygon fill="none" stroke="#000000" points="205.5702,-901 205.5702,-976 446.5702,-976 446.5702,-901 205.5702,-901"/>
<text text-anchor="middle" x="326.0702" y="-960.8" font-family="Times,serif" font-size="14.00" fill="#000000">Upstream frontends (selection)</text>
</g>
<g id="clust2" class="cluster">
<title>cluster_mlir</title>
<polygon fill="none" stroke="#000000" points="152.5702,-802 152.5702,-893 442.5702,-893 442.5702,-802 152.5702,-802"/>
<text text-anchor="middle" x="297.5702" y="-877.8" font-family="Times,serif" font-size="14.00" fill="#000000">Upstream MLIR</text>
</g>
<g id="clust3" class="cluster">
<title>cluster_std_arith_dialect</title>
<polygon fill="none" stroke="#000000" points="296.5702,-810 296.5702,-862 434.5702,-862 434.5702,-810 296.5702,-810"/>
</g>
<g id="clust4" class="cluster">
<title>cluster_circt</title>
<polygon fill="none" stroke="#000000" points="157.5702,-212 157.5702,-794 753.5702,-794 753.5702,-212 157.5702,-212"/>
<text text-anchor="middle" x="455.5702" y="-778.8" font-family="Times,serif" font-size="14.00" fill="#000000">CIRCT</text>
</g>
<g id="clust6" class="cluster">
<title>cluster_RTL</title>
<polygon fill="none" stroke="#000000" points="240.5702,-356 240.5702,-431 536.5702,-431 536.5702,-356 240.5702,-356"/>
<text text-anchor="middle" x="388.5702" y="-415.8" font-family="Times,serif" font-size="14.00" fill="#000000">Core dialects</text>
</g>
<g id="clust9" class="cluster">
<title>cluster_input_langs</title>
<polygon fill="none" stroke="#000000" points="454.5702,-901 454.5702,-976 802.5702,-976 802.5702,-901 454.5702,-901"/>
<text text-anchor="middle" x="628.5702" y="-960.8" font-family="Times,serif" font-size="14.00" fill="#000000">Input languages</text>
</g>
<!-- PyTorch -->
<g id="node1" class="node">
<title>PyTorch</title>
<polygon fill="#ffffff" stroke="#000000" points="438.0702,-945 361.0702,-945 361.0702,-909 438.0702,-909 438.0702,-945"/>
<text text-anchor="middle" x="399.5702" y="-923.3" font-family="Times,serif" font-size="14.00" fill="#000000">PyTorch</text>
</g>
<!-- CF -->
<g id="node5" class="node">
<title>CF</title>
<polygon fill="#beaed4" stroke="#000000" points="426.5702,-854 372.5702,-854 372.5702,-818 426.5702,-818 426.5702,-854"/>
<text text-anchor="middle" x="399.5702" y="-832.3" font-family="Times,serif" font-size="14.00" fill="#000000">CF</text>
</g>
<!-- PyTorch&#45;&gt;CF -->
<g id="edge1" class="edge">
<title>PyTorch&#45;&gt;CF</title>
<path fill="none" stroke="#000000" d="M395.2546,-908.5848C395.1152,-906.819 394.9914,-904.9676 394.8831,-903.0499"/>
<polygon fill="#000000" stroke="#000000" points="398.3778,-902.8448 394.4721,-892.9962 391.3836,-903.1309 398.3778,-902.8448"/>
</g>
<!-- PyTorch&#45;&gt;CF -->
<!-- Polygeist -->
<g id="node2" class="node">
<title>Polygeist</title>
<polygon fill="#ffffff" stroke="#000000" points="347.0702,-945 264.0702,-945 264.0702,-909 347.0702,-909 347.0702,-945"/>
<text text-anchor="middle" x="305.5702" y="-923.3" font-family="Times,serif" font-size="14.00" fill="#000000">Polygeist</text>
</g>
<!-- Affine -->
<g id="node4" class="node">
<title>Affine</title>
<polygon fill="#beaed4" stroke="#000000" points="288.0702,-854 229.0702,-854 229.0702,-818 288.0702,-818 288.0702,-854"/>
<text text-anchor="middle" x="258.5702" y="-832.3" font-family="Times,serif" font-size="14.00" fill="#000000">Affine</text>
</g>
<!-- Polygeist&#45;&gt;Affine -->
<g id="edge2" class="edge">
<title>Polygeist&#45;&gt;Affine</title>
<path fill="none" stroke="#000000" d="M296.0591,-908.5848C294.995,-906.5247 293.8709,-904.3481 292.7023,-902.0855"/>
<polygon fill="#000000" stroke="#000000" points="295.7064,-900.2748 288.0077,-892.996 289.487,-903.4871 295.7064,-900.2748"/>
</g>
<!-- Polygeist&#45;&gt;CF -->
<!-- SCF -->
<g id="node3" class="node">
<title>SCF</title>
<polygon fill="#beaed4" stroke="#000000" points="214.5702,-854 160.5702,-854 160.5702,-818 214.5702,-818 214.5702,-854"/>
<text text-anchor="middle" x="187.5702" y="-832.3" font-family="Times,serif" font-size="14.00" fill="#000000">SCF</text>
</g>
<!-- Calyx -->
<g id="node11" class="node">
<title>Calyx</title>
<g id="a_node11"><a xlink:href="https://circt.llvm.org/docs/Dialects/Calyx/" xlink:title="Calyx">
<polygon fill="#ffffff" stroke="#000000" points="223.0702,-619 166.0702,-619 166.0702,-583 223.0702,-583 223.0702,-619"/>
<text text-anchor="middle" x="194.5702" y="-597.3" font-family="Times,serif" font-size="14.00" fill="#000000">Calyx</text>
</a>
</g>
</g>
<!-- SCF&#45;&gt;Calyx -->
<g id="edge3" class="edge">
<title>SCF&#45;&gt;Calyx</title>
<path fill="none" stroke="#000000" d="M188.1079,-817.9502C189.3192,-777.2827 192.2696,-678.2338 193.7271,-629.3057"/>
<polygon fill="#000000" stroke="#000000" points="197.2313,-629.2112 194.0307,-619.1113 190.2344,-629.0027 197.2313,-629.2112"/>
</g>
<!-- LoopSchedule -->
<g id="node14" class="node">
<title>LoopSchedule</title>
<g id="a_node14"><a xlink:href="https://circt.llvm.org/docs/Dialects/LoopSchedule/" xlink:title="LoopSchedule">
<polygon fill="#ffffff" stroke="#000000" points="428.5702,-691 310.5702,-691 310.5702,-655 428.5702,-655 428.5702,-691"/>
<text text-anchor="middle" x="369.5702" y="-669.3" font-family="Times,serif" font-size="14.00" fill="#000000">LoopSchedule</text>
</a>
</g>
</g>
<!-- Affine&#45;&gt;LoopSchedule -->
<g id="edge4" class="edge">
<title>Affine&#45;&gt;LoopSchedule</title>
<path fill="none" stroke="#000000" d="M270.8733,-817.9334C290.4595,-789.1716 328.8296,-732.8263 351.5272,-699.4956"/>
<polygon fill="#000000" stroke="#000000" points="354.4763,-701.3831 357.2121,-691.1476 348.6904,-697.443 354.4763,-701.3831"/>
</g>
<!-- Arith -->
<g id="node6" class="node">
<title>Arith</title>
<polygon fill="#beaed4" stroke="#000000" points="358.5702,-854 304.5702,-854 304.5702,-818 358.5702,-818 358.5702,-854"/>
<text text-anchor="middle" x="331.5702" y="-832.3" font-family="Times,serif" font-size="14.00" fill="#000000">Arith</text>
</g>
<!-- Handshake -->
<g id="node10" class="node">
<title>Handshake</title>
<g id="a_node10"><a xlink:href="https://circt.llvm.org/docs/Dialects/Handshake/" xlink:title="Handshake">
<polygon fill="#ffffff" stroke="#000000" points="335.5702,-619 237.5702,-619 237.5702,-583 335.5702,-583 335.5702,-619"/>
<text text-anchor="middle" x="286.5702" y="-597.3" font-family="Times,serif" font-size="14.00" fill="#000000">Handshake</text>
</a>
</g>
</g>
<!-- Arith&#45;&gt;Handshake -->
<g id="edge6" class="edge">
<title>Arith&#45;&gt;Handshake</title>
<path fill="none" stroke="#000000" d="M326.517,-810.0026C320.8853,-780.9892 311.524,-732.644 303.5702,-691 299.6422,-670.4342 295.2576,-647.2148 291.9252,-629.5121"/>
<polygon fill="#000000" stroke="#000000" points="295.288,-628.4563 289.9997,-619.2757 288.4087,-629.7503 295.288,-628.4563"/>
</g>
<!-- Arith&#45;&gt;Calyx -->
<g id="edge7" class="edge">
<title>Arith&#45;&gt;Calyx</title>
<path fill="none" stroke="#000000" d="M316.415,-810.0039C290.2106,-765.0547 236.7011,-673.2683 210.1827,-627.7805"/>
<polygon fill="#000000" stroke="#000000" points="213.1889,-625.9877 205.1287,-619.1113 207.1415,-629.5132 213.1889,-625.9877"/>
</g>
<!-- FIRRTLParser -->
<g id="node7" class="node">
<title>FIRRTLParser</title>
<polygon fill="#fdc086" stroke="#000000" points="469.5702,-619 349.5702,-619 349.5702,-583 469.5702,-583 469.5702,-619"/>
<text text-anchor="middle" x="409.5702" y="-597.3" font-family="Times,serif" font-size="14.00" fill="#000000">FIRRTLParser</text>
</g>
<!-- FIRRTL -->
<g id="node12" class="node">
<title>FIRRTL</title>
<g id="a_node12"><a xlink:href="https://circt.llvm.org/docs/Dialects/FIRRTL/" xlink:title="FIRRTL">
<polygon fill="#ffffff" stroke="#000000" points="307.0702,-547 234.0702,-547 234.0702,-511 307.0702,-511 307.0702,-547"/>
<text text-anchor="middle" x="270.5702" y="-525.3" font-family="Times,serif" font-size="14.00" fill="#000000">FIRRTL</text>
</a>
</g>
</g>
<!-- FIRRTLParser&#45;&gt;FIRRTL -->
<g id="edge32" class="edge">
<title>FIRRTLParser&#45;&gt;FIRRTL</title>
<path fill="none" stroke="#000000" d="M374.4946,-582.8314C356.3041,-573.4089 333.9044,-561.8062 314.5642,-551.7883"/>
<polygon fill="#000000" stroke="#000000" points="316.1239,-548.6545 305.6346,-547.1628 312.9042,-554.8701 316.1239,-548.6545"/>
</g>
<!-- PyCDE -->
<g id="node8" class="node">
<title>PyCDE</title>
<g id="a_node8"><a xlink:href="https://circt.llvm.org/docs/PyCDE/" xlink:title="PyCDE">
<polygon fill="#fdc086" stroke="#000000" points="551.5702,-619 483.5702,-619 483.5702,-583 551.5702,-583 551.5702,-619"/>
<text text-anchor="middle" x="517.5702" y="-597.3" font-family="Times,serif" font-size="14.00" fill="#000000">PyCDE</text>
</a>
</g>
</g>
<!-- MSFT -->
<g id="node16" class="node">
<title>MSFT</title>
<g id="a_node16"><a xlink:href="https://circt.llvm.org/docs/Dialects/MSFT/" xlink:title="MSFT">
<polygon fill="#ffffff" stroke="#000000" points="545.5702,-547 485.5702,-547 485.5702,-511 545.5702,-511 545.5702,-547"/>
<text text-anchor="middle" x="515.5702" y="-525.3" font-family="Times,serif" font-size="14.00" fill="#000000">MSFT</text>
</a>
</g>
</g>
<!-- PyCDE&#45;&gt;MSFT -->
<g id="edge47" class="edge">
<title>PyCDE&#45;&gt;MSFT</title>
<path fill="none" stroke="#000000" d="M517.0655,-582.8314C516.8516,-575.131 516.5973,-565.9743 516.3596,-557.4166"/>
<polygon fill="#000000" stroke="#000000" points="519.8581,-557.3122 516.0817,-547.4133 512.8608,-557.5066 519.8581,-557.3122"/>
</g>
<!-- ESI -->
<g id="node17" class="node">
<title>ESI</title>
<g id="a_node17"><a xlink:href="https://circt.llvm.org/docs/Dialects/ESI/" xlink:title="ESI">
<polygon fill="#ffffff" stroke="#000000" points="375.5702,-547 321.5702,-547 321.5702,-511 375.5702,-511 375.5702,-547"/>
<text text-anchor="middle" x="348.5702" y="-525.3" font-family="Times,serif" font-size="14.00" fill="#000000">ESI</text>
</a>
</g>
</g>
<!-- PyCDE&#45;&gt;ESI -->
<g id="edge48" class="edge">
<title>PyCDE&#45;&gt;ESI</title>
<path fill="none" stroke="#000000" d="M483.1675,-585.7643C480.9394,-584.8184 478.7259,-583.8899 476.5702,-583 438.4024,-567.2435 425.7241,-565.362 385.3134,-547.6043"/>
<polygon fill="#000000" stroke="#000000" points="386.5074,-544.3045 375.949,-543.4272 383.6558,-550.6974 386.5074,-544.3045"/>
</g>
<!-- FSM -->
<g id="node18" class="node">
<title>FSM</title>
<g id="a_node18"><a xlink:href="https://circt.llvm.org/docs/Dialects/FSM/" xlink:title="FSM">
<polygon fill="#ffffff" stroke="#000000" points="219.5702,-547 165.5702,-547 165.5702,-511 219.5702,-511 219.5702,-547"/>
<text text-anchor="middle" x="192.5702" y="-525.3" font-family="Times,serif" font-size="14.00" fill="#000000">FSM</text>
</a>
</g>
</g>
<!-- PyCDE&#45;&gt;FSM -->
<g id="edge49" class="edge">
<title>PyCDE&#45;&gt;FSM</title>
<path fill="none" stroke="#000000" d="M483.3698,-585.1834C481.0921,-584.3797 478.8124,-583.6414 476.5702,-583 372.2151,-553.1462 336.1936,-579.4001 229.5647,-547.1273"/>
<polygon fill="#000000" stroke="#000000" points="230.3025,-543.6908 219.7135,-544.0422 228.2104,-550.3709 230.3025,-543.6908"/>
</g>
<!-- HWArith -->
<g id="node19" class="node">
<title>HWArith</title>
<g id="a_node19"><a xlink:href="https://circt.llvm.org/docs/Dialects/HWArith/" xlink:title="HWArith">
<polygon fill="#ffffff" stroke="#000000" points="471.0702,-547 390.0702,-547 390.0702,-511 471.0702,-511 471.0702,-547"/>
<text text-anchor="middle" x="430.5702" y="-525.3" font-family="Times,serif" font-size="14.00" fill="#000000">HWArith</text>
</a>
</g>
</g>
<!-- PyCDE&#45;&gt;HWArith -->
<g id="edge50" class="edge">
<title>PyCDE&#45;&gt;HWArith</title>
<path fill="none" stroke="#000000" d="M495.6164,-582.8314C484.9007,-573.9632 471.8513,-563.1637 460.2612,-553.5718"/>
<polygon fill="#000000" stroke="#000000" points="462.4524,-550.8422 452.517,-547.1628 457.9894,-556.2349 462.4524,-550.8422"/>
</g>
<!-- Scheduling -->
<g id="node9" class="node">
<title>Scheduling</title>
<g id="a_node9"><a xlink:href="https://circt.llvm.org/docs/Scheduling/" xlink:title="Scheduling">
<polygon fill="#fdc086" stroke="#000000" points="572.0702,-763 475.0702,-763 475.0702,-727 572.0702,-727 572.0702,-763"/>
<text text-anchor="middle" x="523.5702" y="-741.3" font-family="Times,serif" font-size="14.00" fill="#000000">Scheduling</text>
</a>
</g>
</g>
<!-- Pipeline -->
<g id="node13" class="node">
<title>Pipeline</title>
<g id="a_node13"><a xlink:href="https://circt.llvm.org/docs/Dialects/Pipeline/" xlink:title="Pipeline">
<polygon fill="#ffffff" stroke="#000000" points="633.5702,-547 559.5702,-547 559.5702,-511 633.5702,-511 633.5702,-547"/>
<text text-anchor="middle" x="596.5702" y="-525.3" font-family="Times,serif" font-size="14.00" fill="#000000">Pipeline</text>
</a>
</g>
</g>
<!-- Scheduling&#45;&gt;Pipeline -->
<g id="edge29" class="edge">
<title>Scheduling&#45;&gt;Pipeline</title>
<path fill="none" stroke="#000000" d="M558.2642,-720.305C567.3504,-712.0519 576.1191,-702.0939 581.5702,-691 602.701,-647.9955 602.4135,-590.8487 599.8149,-557.1867"/>
<polygon fill="#000000" stroke="#000000" points="555.9589,-717.6711 550.623,-726.8241 560.5022,-722.9964 555.9589,-717.6711"/>
<polygon fill="#000000" stroke="#000000" points="603.2924,-556.7782 598.9142,-547.1303 596.3203,-557.4027 603.2924,-556.7782"/>
</g>
<!-- Scheduling&#45;&gt;LoopSchedule -->
<g id="edge28" class="edge">
<title>Scheduling&#45;&gt;LoopSchedule</title>
<path fill="none" stroke="#000000" d="M475.3598,-722.4601C456.8421,-713.8024 435.7292,-703.9315 417.2606,-695.2968"/>
<polygon fill="#000000" stroke="#000000" points="474.1683,-725.7666 484.7095,-726.8314 477.133,-719.4254 474.1683,-725.7666"/>
<polygon fill="#000000" stroke="#000000" points="418.6927,-692.1028 408.1515,-691.038 415.7279,-698.4439 418.6927,-692.1028"/>
</g>
<!-- SSP -->
<g id="node15" class="node">
<title>SSP</title>
<g id="a_node15"><a xlink:href="https://circt.llvm.org/docs/Dialects/SSP/" xlink:title="SSP">
<polygon fill="#ffffff" stroke="#000000" points="574.5702,-691 520.5702,-691 520.5702,-655 574.5702,-655 574.5702,-691"/>
<text text-anchor="middle" x="547.5702" y="-669.3" font-family="Times,serif" font-size="14.00" fill="#000000">SSP</text>
</a>
</g>
</g>
<!-- Scheduling&#45;&gt;SSP -->
<g id="edge51" class="edge">
<title>Scheduling&#45;&gt;SSP</title>
<path fill="none" stroke="#000000" d="M532.8582,-717.136C534.6101,-711.8803 536.4434,-706.3805 538.1978,-701.1171"/>
<polygon fill="#000000" stroke="#000000" points="529.4684,-716.2377 529.6264,-726.8314 536.1092,-718.4513 529.4684,-716.2377"/>
<polygon fill="#000000" stroke="#000000" points="541.5905,-702.0069 541.4325,-691.4133 534.9497,-699.7933 541.5905,-702.0069"/>
</g>
<!-- Scheduling&#45;&gt;MSFT -->
<g id="edge52" class="edge">
<title>Scheduling&#45;&gt;MSFT</title>
<path fill="none" stroke="#000000" stroke-dasharray="5,2" d="M513.0124,-717.1954C507.7441,-698.7113 504.2615,-674.368 513.5702,-655 524.6653,-631.9154 547.4752,-642.0846 558.5702,-619 565.5012,-604.5791 563.8492,-598.104 558.5702,-583 554.9745,-572.7121 548.5074,-562.9193 541.6626,-554.568"/>
<polygon fill="#000000" stroke="#000000" points="509.6962,-718.3168 516.0531,-726.7927 516.3693,-716.2026 509.6962,-718.3168"/>
<polygon fill="#000000" stroke="#000000" points="544.2866,-552.2517 535.0658,-547.0337 539.02,-556.863 544.2866,-552.2517"/>
</g>
<!-- Handshake&#45;&gt;FIRRTL -->
<g id="edge8" class="edge">
<title>Handshake&#45;&gt;FIRRTL</title>
<path fill="none" stroke="#000000" d="M282.5327,-582.8314C280.8215,-575.131 278.7867,-565.9743 276.885,-557.4166"/>
<polygon fill="#000000" stroke="#000000" points="280.2481,-556.4159 274.662,-547.4133 273.4148,-557.9344 280.2481,-556.4159"/>
</g>
<!-- Calyx&#45;&gt;FSM -->
<g id="edge9" class="edge">
<title>Calyx&#45;&gt;FSM</title>
<path fill="none" stroke="#000000" d="M194.0655,-582.8314C193.8516,-575.131 193.5973,-565.9743 193.3596,-557.4166"/>
<polygon fill="#000000" stroke="#000000" points="196.8581,-557.3122 193.0817,-547.4133 189.8608,-557.5066 196.8581,-557.3122"/>
</g>
<!-- Calyx_native -->
<g id="node37" class="node">
<title>Calyx_native</title>
<polygon fill="#ffff99" stroke="#000000" points="149.2107,-521.5442 149.2107,-536.4558 105.4873,-547 43.6531,-547 -.0703,-536.4558 -.0703,-521.5442 43.6531,-511 105.4873,-511 149.2107,-521.5442"/>
<text text-anchor="middle" x="74.5702" y="-525.3" font-family="Times,serif" font-size="14.00" fill="#000000">Calyx native</text>
</g>
<!-- Calyx&#45;&gt;Calyx_native -->
<g id="edge40" class="edge">
<title>Calyx&#45;&gt;Calyx_native</title>
<path fill="none" stroke="#000000" d="M165.8272,-583.7542C150.1211,-574.3306 130.4505,-562.5282 113.3974,-552.2963"/>
<polygon fill="#000000" stroke="#000000" points="115.1289,-549.2536 104.7532,-547.1098 111.5274,-555.256 115.1289,-549.2536"/>
</g>
<!-- lower_to_sv_and_core -->
<g id="node21" class="node">
<title>lower_to_sv_and_core</title>
<ellipse fill="#000000" stroke="#000000" cx="251.5702" cy="-457" rx="1.8" ry="1.8"/>
</g>
<!-- FIRRTL&#45;&gt;lower_to_sv_and_core -->
<g id="edge14" class="edge">
<title>FIRRTL&#45;&gt;lower_to_sv_and_core</title>
<path fill="none" stroke="#000000" d="M265.7757,-510.8314C260.9386,-492.5014 253.9242,-465.9202 252.047,-458.8068"/>
</g>
<!-- space_above_RTL -->
<!-- FIRRTL&#45;&gt;space_above_RTL -->
<!-- lower_to_core -->
<g id="node22" class="node">
<title>lower_to_core</title>
<ellipse fill="#000000" stroke="#000000" cx="515.5702" cy="-457" rx="1.8" ry="1.8"/>
</g>
<!-- Pipeline&#45;&gt;lower_to_core -->
<g id="edge10" class="edge">
<title>Pipeline&#45;&gt;lower_to_core</title>
<path fill="none" stroke="#000000" d="M576.1305,-510.8314C555.1344,-492.1681 524.515,-464.9509 517.1882,-458.4382"/>
</g>
<!-- LoopSchedule&#45;&gt;Calyx -->
<g id="edge5" class="edge">
<title>LoopSchedule&#45;&gt;Calyx</title>
<path fill="none" stroke="#000000" d="M319.8992,-654.9862C295.4756,-645.8356 265.4896,-634.1685 232.5206,-619.733"/>
<polygon fill="#000000" stroke="#000000" points="233.706,-616.4303 223.1447,-615.5878 230.8754,-622.8325 233.706,-616.4303"/>
</g>
<!-- MSFT&#45;&gt;lower_to_core -->
<g id="edge11" class="edge">
<title>MSFT&#45;&gt;lower_to_core</title>
<path fill="none" stroke="#000000" d="M515.5702,-510.8314C515.5702,-492.5014 515.5702,-465.9202 515.5702,-458.8068"/>
</g>
<!-- MSFT&#45;&gt;space_above_RTL -->
<!-- TCL -->
<g id="node47" class="node">
<title>TCL</title>
<polygon fill="#7fc97f" stroke="#000000" points="804.5702,-111 676.5702,-111 676.5702,-75 810.5702,-75 810.5702,-105 804.5702,-111"/>
<polyline fill="none" stroke="#000000" points="804.5702,-111 804.5702,-105 "/>
<polyline fill="none" stroke="#000000" points="810.5702,-105 804.5702,-105 "/>
<text text-anchor="middle" x="743.5702" y="-89.3" font-family="Times,serif" font-size="14.00" fill="#000000">Placements (tcl)</text>
</g>
<!-- MSFT&#45;&gt;TCL -->
<g id="edge45" class="edge">
<title>MSFT&#45;&gt;TCL</title>
<path fill="none" stroke="#000000" d="M545.5715,-510.9147C594.3751,-480.4325 685.5702,-418.5791 685.5702,-382 685.5702,-382 685.5702,-382 685.5702,-238 685.5702,-194.3971 708.4594,-148.3544 725.4795,-120.1447"/>
<polygon fill="#000000" stroke="#000000" points="728.6767,-121.6312 730.9851,-111.2909 722.7322,-117.9348 728.6767,-121.6312"/>
</g>
<!-- ESI&#45;&gt;lower_to_sv_and_core -->
<g id="edge15" class="edge">
<title>ESI&#45;&gt;lower_to_sv_and_core</title>
<path fill="none" stroke="#000000" d="M324.093,-510.8314C298.5005,-491.8349 260.9686,-463.9761 253.0647,-458.1093"/>
</g>
<!-- ESI&#45;&gt;space_above_RTL -->
<!-- ServiceDesc -->
<g id="node45" class="node">
<title>ServiceDesc</title>
<polygon fill="#7fc97f" stroke="#000000" points="656.5702,-112 478.5702,-112 478.5702,-74 662.5702,-74 662.5702,-106 656.5702,-112"/>
<polyline fill="none" stroke="#000000" points="656.5702,-112 656.5702,-106 "/>
<polyline fill="none" stroke="#000000" points="662.5702,-106 656.5702,-106 "/>
<text text-anchor="middle" x="570.5702" y="-96.8" font-family="Times,serif" font-size="14.00" fill="#000000">ESI system description</text>
<text text-anchor="middle" x="570.5702" y="-81.8" font-family="Times,serif" font-size="14.00" fill="#000000">(JSON/Capnp)</text>
</g>
<!-- ESI&#45;&gt;ServiceDesc -->
<g id="edge44" class="edge">
<title>ESI&#45;&gt;ServiceDesc</title>
<path fill="none" stroke="#000000" d="M375.8158,-514.251C378.4032,-513.075 381.0147,-511.9692 383.5702,-511 499.7383,-466.9428 631.5702,-506.2419 631.5702,-382 631.5702,-382 631.5702,-382 631.5702,-238 631.5702,-196.6022 624.692,-185.6912 607.5702,-148 603.3311,-138.6682 597.5633,-129.1726 591.8435,-120.7566"/>
<polygon fill="#000000" stroke="#000000" points="594.5922,-118.5812 585.9664,-112.4292 588.873,-122.6175 594.5922,-118.5812"/>
</g>
<!-- FSM&#45;&gt;lower_to_sv_and_core -->
<g id="edge16" class="edge">
<title>FSM&#45;&gt;lower_to_sv_and_core</title>
<path fill="none" stroke="#000000" d="M207.4584,-510.8314C222.7519,-492.1681 245.0549,-464.9509 250.3917,-458.4382"/>
</g>
<!-- FSM&#45;&gt;space_above_RTL -->
<!-- HWArith&#45;&gt;lower_to_core -->
<g id="edge12" class="edge">
<title>HWArith&#45;&gt;lower_to_core</title>
<path fill="none" stroke="#000000" d="M452.0193,-510.8314C474.0523,-492.1681 506.1837,-464.9509 513.8723,-458.4382"/>
</g>
<!-- HWArith&#45;&gt;space_above_RTL -->
<!-- MooreMIR -->
<g id="node20" class="node">
<title>MooreMIR</title>
<g id="a_node20"><a xlink:href="https://circt.llvm.org/docs/Dialects/Moore/" xlink:title="Moore MIR">
<polygon fill="#ffffff" stroke="#000000" points="745.5702,-547 647.5702,-547 647.5702,-511 745.5702,-511 745.5702,-547"/>
<text text-anchor="middle" x="696.5702" y="-525.3" font-family="Times,serif" font-size="14.00" fill="#000000">Moore MIR</text>
</a>
</g>
</g>
<!-- MooreMIR&#45;&gt;lower_to_core -->
<g id="edge13" class="edge">
<title>MooreMIR&#45;&gt;lower_to_core</title>
<path fill="none" stroke="#000000" d="M650.8963,-510.8314C601.8845,-491.3349 529.406,-462.5038 517.3108,-457.6924"/>
</g>
<!-- MooreMIR&#45;&gt;space_above_RTL -->
<!-- LLHD -->
<g id="node28" class="node">
<title>LLHD</title>
<g id="a_node28"><a xlink:href="https://circt.llvm.org/docs/Dialects/LLHD/" xlink:title="LLHD">
<polygon fill="#ffffff" stroke="#000000" points="602.5702,-328 542.5702,-328 542.5702,-292 602.5702,-292 602.5702,-328"/>
<text text-anchor="middle" x="572.5702" y="-306.3" font-family="Times,serif" font-size="14.00" fill="#000000">LLHD</text>
</a>
</g>
</g>
<!-- MooreMIR&#45;&gt;LLHD -->
<g id="edge21" class="edge">
<title>MooreMIR&#45;&gt;LLHD</title>
<path fill="none" stroke="#000000" d="M686.2113,-510.7049C664.3658,-472.1229 613.4856,-382.2619 587.8745,-337.0293"/>
<polygon fill="#000000" stroke="#000000" points="590.7853,-335.0665 582.8124,-328.089 584.6939,-338.5155 590.7853,-335.0665"/>
</g>
<!-- Comb -->
<g id="node26" class="node">
<title>Comb</title>
<g id="a_node26"><a xlink:href="https://circt.llvm.org/docs/Dialects/Comb/" xlink:title="Comb">
<polygon fill="#ffffff" stroke="#000000" points="460.0702,-400 401.0702,-400 401.0702,-364 460.0702,-364 460.0702,-400"/>
<text text-anchor="middle" x="430.5702" y="-378.3" font-family="Times,serif" font-size="14.00" fill="#000000">Comb</text>
</a>
</g>
</g>
<!-- lower_to_sv_and_core&#45;&gt;Comb -->
<g id="edge18" class="edge">
<title>lower_to_sv_and_core&#45;&gt;Comb</title>
<path fill="none" stroke="#000000" d="M253.574,-456.8329C267.4554,-455.6496 349.7773,-448.2068 384.218,-435.3599"/>
<polygon fill="#000000" stroke="#000000" points="385.9856,-438.3976 393.5702,-431 383.0278,-432.0531 385.9856,-438.3976"/>
</g>
<!-- SV -->
<g id="node30" class="node">
<title>SV</title>
<g id="a_node30"><a xlink:href="https://circt.llvm.org/docs/Dialects/SV/" xlink:title="SV">
<polygon fill="#ffffff" stroke="#000000" points="258.5702,-328 204.5702,-328 204.5702,-292 258.5702,-292 258.5702,-328"/>
<text text-anchor="middle" x="231.5702" y="-306.3" font-family="Times,serif" font-size="14.00" fill="#000000">SV</text>
</a>
</g>
</g>
<!-- lower_to_sv_and_core&#45;&gt;SV -->
<g id="edge17" class="edge">
<title>lower_to_sv_and_core&#45;&gt;SV</title>
<path fill="none" stroke="#000000" d="M250.2486,-455.2298C247.3192,-451.1904 240.3223,-440.8771 237.5702,-431 228.9642,-400.1139 228.48,-363.1062 229.4965,-338.2193"/>
<polygon fill="#000000" stroke="#000000" points="233.0024,-338.1941 230.0249,-328.0263 226.0118,-337.8317 233.0024,-338.1941"/>
</g>
<!-- lower_to_core&#45;&gt;Comb -->
<g id="edge19" class="edge">
<title>lower_to_core&#45;&gt;Comb</title>
<path fill="none" stroke="#000000" d="M513.5576,-456.2717C507.7352,-454.1059 490.3577,-447.2283 475.7457,-437.2332"/>
<polygon fill="#000000" stroke="#000000" points="477.6446,-434.2798 467.5702,-431 473.4005,-439.8464 477.6446,-434.2798"/>
</g>
<!-- Seq -->
<g id="node24" class="node">
<title>Seq</title>
<g id="a_node24"><a xlink:href="https://circt.llvm.org/docs/Dialects/Seq/" xlink:title="Seq">
<polygon fill="#ffffff" stroke="#000000" points="302.5702,-400 248.5702,-400 248.5702,-364 302.5702,-364 302.5702,-400"/>
<text text-anchor="middle" x="275.5702" y="-378.3" font-family="Times,serif" font-size="14.00" fill="#000000">Seq</text>
</a>
</g>
</g>
<!-- space_above_RTL&#45;&gt;Seq -->
<!-- HW -->
<g id="node25" class="node">
<title>HW</title>
<g id="a_node25"><a xlink:href="https://circt.llvm.org/docs/Dialects/HW/" xlink:title="HW">
<polygon fill="#ffffff" stroke="#000000" points="528.5702,-400 474.5702,-400 474.5702,-364 528.5702,-364 528.5702,-400"/>
<text text-anchor="middle" x="501.5702" y="-378.3" font-family="Times,serif" font-size="14.00" fill="#000000">HW</text>
</a>
</g>
</g>
<!-- space_above_RTL&#45;&gt;HW -->
<!-- space_above_RTL&#45;&gt;Comb -->
<!-- Seq&#45;&gt;SV -->
<g id="edge20" class="edge">
<title>Seq&#45;&gt;SV</title>
<path fill="none" stroke="#000000" d="M264.4671,-363.8314C259.5028,-355.7079 253.548,-345.9637 248.0774,-337.0118"/>
<polygon fill="#000000" stroke="#000000" points="251.0238,-335.121 242.8228,-328.4133 245.0508,-338.7712 251.0238,-335.121"/>
</g>
<!-- ExportVerilog -->
<g id="node35" class="node">
<title>ExportVerilog</title>
<g id="a_node35"><a xlink:href="https://circt.llvm.org/docs/VerilogGeneration/" xlink:title="ExportVerilog">
<polygon fill="#fdc086" stroke="#000000" points="283.0702,-256 166.0702,-256 166.0702,-220 283.0702,-220 283.0702,-256"/>
<text text-anchor="middle" x="224.5702" y="-234.3" font-family="Times,serif" font-size="14.00" fill="#000000">ExportVerilog</text>
</a>
</g>
</g>
<!-- Seq&#45;&gt;ExportVerilog -->
<g id="edge36" class="edge">
<title>Seq&#45;&gt;ExportVerilog</title>
<path fill="none" stroke="#000000" d="M276.3022,-356.0046C275.9684,-337.5346 273.7501,-312.4781 265.5702,-292 261.6404,-282.1619 255.4063,-272.567 248.9738,-264.2603"/>
<polygon fill="#000000" stroke="#000000" points="251.5975,-261.9399 242.5532,-256.4217 246.1822,-266.3756 251.5975,-261.9399"/>
</g>
<!-- HW&#45;&gt;LLHD -->
<g id="edge22" class="edge">
<title>HW&#45;&gt;LLHD</title>
<path fill="none" stroke="#000000" d="M519.4865,-363.8314C527.9144,-355.2848 538.1112,-344.9443 547.3062,-335.6198"/>
<polygon fill="#000000" stroke="#000000" points="549.8833,-337.9912 554.4127,-328.4133 544.8991,-333.0761 549.8833,-337.9912"/>
</g>
<!-- llhd_sim -->
<g id="node33" class="node">
<title>llhd_sim</title>
<polygon fill="#fdc086" stroke="#000000" points="609.5702,-256 535.5702,-256 535.5702,-220 609.5702,-220 609.5702,-256"/>
<text text-anchor="middle" x="572.5702" y="-234.3" font-family="Times,serif" font-size="14.00" fill="#000000">llhd&#45;sim</text>
</g>
<!-- HW&#45;&gt;llhd_sim -->
<g id="edge37" class="edge">
<title>HW&#45;&gt;llhd_sim</title>
<path fill="none" stroke="#000000" d="M509.5485,-356.002C515.6235,-337.6341 524.7673,-312.702 535.5702,-292 540.4088,-282.7276 546.5503,-273.1431 552.4326,-264.6693"/>
<polygon fill="#000000" stroke="#000000" points="555.4446,-266.4738 558.4032,-256.3004 549.7462,-262.4083 555.4446,-266.4738"/>
</g>
<!-- SystemC -->
<g id="node31" class="node">
<title>SystemC</title>
<g id="a_node31"><a xlink:href="https://circt.llvm.org/docs/Dialects/SystemC/" xlink:title="SystemC">
<polygon fill="#ffffff" stroke="#000000" points="484.0702,-328 403.0702,-328 403.0702,-292 484.0702,-292 484.0702,-328"/>
<text text-anchor="middle" x="443.5702" y="-306.3" font-family="Times,serif" font-size="14.00" fill="#000000">SystemC</text>
</a>
</g>
</g>
<!-- Comb&#45;&gt;SystemC -->
<g id="edge24" class="edge">
<title>Comb&#45;&gt;SystemC</title>
<path fill="none" stroke="#000000" d="M435.2643,-356.0017C436.2954,-350.2914 437.3922,-344.2165 438.4394,-338.4166"/>
<polygon fill="#000000" stroke="#000000" points="441.913,-338.8761 440.2456,-328.4133 435.0244,-337.6322 441.913,-338.8761"/>
</g>
<!-- Interop -->
<g id="node27" class="node">
<title>Interop</title>
<g id="a_node27"><a xlink:href="https://circt.llvm.org/docs/Dialects/Interop/" xlink:title="Interop">
<polygon fill="#ffffff" stroke="#000000" points="386.5702,-400 316.5702,-400 316.5702,-364 386.5702,-364 386.5702,-400"/>
<text text-anchor="middle" x="351.5702" y="-378.3" font-family="Times,serif" font-size="14.00" fill="#000000">Interop</text>
</a>
</g>
</g>
<!-- Arc -->
<g id="node29" class="node">
<title>Arc</title>
<g id="a_node29"><a xlink:href="https://circt.llvm.org/docs/Dialects/Arc/" xlink:title="Arc">
<polygon fill="#ffffff" stroke="#000000" points="371.5702,-328 317.5702,-328 317.5702,-292 371.5702,-292 371.5702,-328"/>
<text text-anchor="middle" x="344.5702" y="-306.3" font-family="Times,serif" font-size="14.00" fill="#000000">Arc</text>
</a>
</g>
</g>
<!-- Interop&#45;&gt;Arc -->
<g id="edge23" class="edge">
<title>Interop&#45;&gt;Arc</title>
<path fill="none" stroke="#000000" d="M349.0426,-356.0017C348.4874,-350.2914 347.8968,-344.2165 347.3329,-338.4166"/>
<polygon fill="#000000" stroke="#000000" points="350.8117,-338.0276 346.3604,-328.4133 343.8446,-338.7051 350.8117,-338.0276"/>
</g>
<!-- LLHD&#45;&gt;llhd_sim -->
<g id="edge42" class="edge">
<title>LLHD&#45;&gt;llhd_sim</title>
<path fill="none" stroke="#000000" d="M572.5702,-291.8314C572.5702,-284.131 572.5702,-274.9743 572.5702,-266.4166"/>
<polygon fill="#000000" stroke="#000000" points="576.0703,-266.4132 572.5702,-256.4133 569.0703,-266.4133 576.0703,-266.4132"/>
</g>
<!-- Arcilator -->
<g id="node32" class="node">
<title>Arcilator</title>
<polygon fill="#fdc086" stroke="#000000" points="377.5702,-256 297.5702,-256 297.5702,-220 377.5702,-220 377.5702,-256"/>
<text text-anchor="middle" x="337.5702" y="-234.3" font-family="Times,serif" font-size="14.00" fill="#000000">Arcilator</text>
</g>
<!-- Arc&#45;&gt;Arcilator -->
<g id="edge26" class="edge">
<title>Arc&#45;&gt;Arcilator</title>
<path fill="none" stroke="#000000" d="M342.8038,-291.8314C342.0552,-284.131 341.1649,-274.9743 340.3329,-266.4166"/>
<polygon fill="#000000" stroke="#000000" points="343.8117,-266.0276 339.3604,-256.4133 336.8446,-266.7051 343.8117,-266.0276"/>
</g>
<!-- SV&#45;&gt;ExportVerilog -->
<g id="edge35" class="edge">
<title>SV&#45;&gt;ExportVerilog</title>
<path fill="none" stroke="#000000" d="M229.8038,-291.8314C229.0552,-284.131 228.1649,-274.9743 227.3329,-266.4166"/>
<polygon fill="#000000" stroke="#000000" points="230.8117,-266.0276 226.3604,-256.4133 223.8446,-266.7051 230.8117,-266.0276"/>
</g>
<!-- ExportSystemC -->
<g id="node34" class="node">
<title>ExportSystemC</title>
<polygon fill="#fdc086" stroke="#000000" points="521.5702,-256 391.5702,-256 391.5702,-220 521.5702,-220 521.5702,-256"/>
<text text-anchor="middle" x="456.5702" y="-234.3" font-family="Times,serif" font-size="14.00" fill="#000000">ExportSystemC</text>
</g>
<!-- SystemC&#45;&gt;ExportSystemC -->
<g id="edge33" class="edge">
<title>SystemC&#45;&gt;ExportSystemC</title>
<path fill="none" stroke="#000000" d="M446.8507,-291.8314C448.241,-284.131 449.8943,-274.9743 451.4394,-266.4166"/>
<polygon fill="#000000" stroke="#000000" points="454.913,-266.8761 453.2456,-256.4133 448.0244,-265.6322 454.913,-266.8761"/>
</g>
<!-- SimBinary -->
<g id="node48" class="node">
<title>SimBinary</title>
<polygon fill="#7fc97f" stroke="#000000" points="422.5702,-184 246.5702,-184 246.5702,-148 428.5702,-148 428.5702,-178 422.5702,-184"/>
<polyline fill="none" stroke="#000000" points="422.5702,-184 422.5702,-178 "/>
<polyline fill="none" stroke="#000000" points="428.5702,-178 422.5702,-178 "/>
<text text-anchor="middle" x="337.5702" y="-162.3" font-family="Times,serif" font-size="14.00" fill="#000000">Simulation Binary (obj)</text>
</g>
<!-- Arcilator&#45;&gt;SimBinary -->
<g id="edge27" class="edge">
<title>Arcilator&#45;&gt;SimBinary</title>
<path fill="none" stroke="#000000" d="M337.5702,-219.8314C337.5702,-212.131 337.5702,-202.9743 337.5702,-194.4166"/>
<polygon fill="#000000" stroke="#000000" points="341.0703,-194.4132 337.5702,-184.4133 334.0703,-194.4133 341.0703,-194.4132"/>
</g>
<!-- VCDTrace -->
<g id="node42" class="node">
<title>VCDTrace</title>
<polygon fill="#7fc97f" stroke="#000000" points="458.5702,-111 366.5702,-111 366.5702,-75 464.5702,-75 464.5702,-105 458.5702,-111"/>
<polyline fill="none" stroke="#000000" points="458.5702,-111 458.5702,-105 "/>
<polyline fill="none" stroke="#000000" points="464.5702,-105 458.5702,-105 "/>
<text text-anchor="middle" x="415.5702" y="-89.3" font-family="Times,serif" font-size="14.00" fill="#000000">Trace (vcd)</text>
</g>
<!-- llhd_sim&#45;&gt;VCDTrace -->
<g id="edge43" class="edge">
<title>llhd_sim&#45;&gt;VCDTrace</title>
<path fill="none" stroke="#000000" d="M543.0096,-219.9048C538.2331,-217.1634 533.3022,-214.4393 528.5702,-212 501.335,-197.9604 488.1292,-204.7353 465.5702,-184 446.7234,-166.6768 433.4003,-140.5708 425.2721,-120.7565"/>
<polygon fill="#000000" stroke="#000000" points="428.4886,-119.371 421.5956,-111.3251 421.9666,-121.9134 428.4886,-119.371"/>
</g>
<!-- SystemCFile -->
<g id="node43" class="node">
<title>SystemCFile</title>
<polygon fill="#7fc97f" stroke="#000000" points="594.5702,-184 472.5702,-184 472.5702,-148 600.5702,-148 600.5702,-178 594.5702,-184"/>
<polyline fill="none" stroke="#000000" points="594.5702,-184 594.5702,-178 "/>
<polyline fill="none" stroke="#000000" points="600.5702,-178 594.5702,-178 "/>
<text text-anchor="middle" x="536.5702" y="-162.3" font-family="Times,serif" font-size="14.00" fill="#000000">SystemC (c++)</text>
</g>
<!-- ExportSystemC&#45;&gt;SystemCFile -->
<g id="edge34" class="edge">
<title>ExportSystemC&#45;&gt;SystemCFile</title>
<path fill="none" stroke="#000000" d="M476.7576,-219.8314C486.4216,-211.1337 498.1498,-200.5783 508.6518,-191.1265"/>
<polygon fill="#000000" stroke="#000000" points="511.2977,-193.454 516.3893,-184.1628 506.6149,-188.251 511.2977,-193.454"/>
</g>
<!-- SVFile -->
<g id="node44" class="node">
<title>SVFile</title>
<polygon fill="#7fc97f" stroke="#000000" points="346.5702,-111 230.5702,-111 230.5702,-75 352.5702,-75 352.5702,-105 346.5702,-111"/>
<polyline fill="none" stroke="#000000" points="346.5702,-111 346.5702,-105 "/>
<polyline fill="none" stroke="#000000" points="352.5702,-105 346.5702,-105 "/>
<text text-anchor="middle" x="291.5702" y="-89.3" font-family="Times,serif" font-size="14.00" fill="#000000">SystemVerilog</text>
</g>
<!-- ExportVerilog&#45;&gt;SVFile -->
<g id="edge25" class="edge">
<title>ExportVerilog&#45;&gt;SVFile</title>
<path fill="none" stroke="#000000" d="M224.5325,-219.8029C225.1759,-200.9165 228.1488,-170.9798 239.5702,-148 244.9984,-137.0784 253.3256,-126.8468 261.7363,-118.2403"/>
<polygon fill="#000000" stroke="#000000" points="264.3369,-120.5937 269.0781,-111.1189 259.4632,-115.5691 264.3369,-120.5937"/>
</g>
<!-- Moore -->
<g id="node36" class="node">
<title>Moore</title>
<polygon fill="#ffff99" stroke="#000000" points="777.3036,-828.5442 777.3036,-843.4558 751.6852,-854 715.4552,-854 689.8368,-843.4558 689.8368,-828.5442 715.4552,-818 751.6852,-818 777.3036,-828.5442"/>
<text text-anchor="middle" x="733.5702" y="-832.3" font-family="Times,serif" font-size="14.00" fill="#000000">Moore</text>
</g>
<!-- Moore&#45;&gt;MooreMIR -->
<g id="edge39" class="edge">
<title>Moore&#45;&gt;MooreMIR</title>
<path fill="none" stroke="#000000" d="M731.3665,-817.7151C725.1584,-766.205 707.491,-619.6127 699.9974,-557.4367"/>
<polygon fill="#000000" stroke="#000000" points="703.4339,-556.6984 698.7624,-547.189 696.4842,-557.536 703.4339,-556.6984"/>
</g>
<!-- Calyx_native&#45;&gt;lower_to_sv_and_core -->
<g id="edge41" class="edge">
<title>Calyx_native&#45;&gt;lower_to_sv_and_core</title>
<path fill="none" stroke="#000000" d="M114.2925,-512.8418C161.9933,-493.4381 237.188,-462.8504 249.7598,-457.7364"/>
</g>
<!-- FIRFile -->
<g id="node38" class="node">
<title>FIRFile</title>
<polygon fill="#7fc97f" stroke="#000000" points="544.5702,-854 496.5702,-854 496.5702,-818 550.5702,-818 550.5702,-848 544.5702,-854"/>
<polyline fill="none" stroke="#000000" points="544.5702,-854 544.5702,-848 "/>
<polyline fill="none" stroke="#000000" points="550.5702,-848 544.5702,-848 "/>
<text text-anchor="middle" x="523.5702" y="-832.3" font-family="Times,serif" font-size="14.00" fill="#000000">.fir</text>
</g>
<!-- FIRFile&#45;&gt;FIRRTLParser -->
<g id="edge31" class="edge">
<title>FIRFile&#45;&gt;FIRRTLParser</title>
<path fill="none" stroke="#000000" d="M550.6093,-822.7669C561.6652,-815.8382 573.3098,-806.2226 579.5702,-794 607.7361,-739.0094 618.1343,-704.8031 581.5702,-655 578.2847,-650.5248 525.7908,-634.4183 479.6526,-620.9506"/>
<polygon fill="#000000" stroke="#000000" points="480.5033,-617.553 469.9237,-618.1219 478.5489,-624.2747 480.5033,-617.553"/>
</g>
<!-- FIRFile&#45;&gt;Scheduling -->
<!-- Chisel -->
<g id="node39" class="node">
<title>Chisel</title>
<polygon fill="#ffff99" stroke="#000000" points="550.3036,-919.5442 550.3036,-934.4558 524.6852,-945 488.4552,-945 462.8368,-934.4558 462.8368,-919.5442 488.4552,-909 524.6852,-909 550.3036,-919.5442"/>
<text text-anchor="middle" x="506.5702" y="-923.3" font-family="Times,serif" font-size="14.00" fill="#000000">Chisel</text>
</g>
<!-- Chisel&#45;&gt;CF -->
<!-- Chisel&#45;&gt;FIRFile -->
<g id="edge30" class="edge">
<title>Chisel&#45;&gt;FIRFile</title>
<path fill="none" stroke="#000000" d="M510.0104,-908.5848C512.3994,-895.7967 515.6268,-878.5207 518.3336,-864.0313"/>
<polygon fill="#000000" stroke="#000000" points="521.7972,-864.55 520.1931,-854.0773 514.9162,-863.2645 521.7972,-864.55"/>
</g>
<!-- SVVHDL -->
<g id="node40" class="node">
<title>SVVHDL</title>
<polygon fill="#ffff99" stroke="#000000" points="794.0709,-919.5442 794.0709,-934.4558 758.6304,-945 708.51,-945 673.0695,-934.4558 673.0695,-919.5442 708.51,-909 758.6304,-909 794.0709,-919.5442"/>
<text text-anchor="middle" x="733.5702" y="-923.3" font-family="Times,serif" font-size="14.00" fill="#000000">SV/VHDL</text>
</g>
<!-- SVVHDL&#45;&gt;Moore -->
<g id="edge38" class="edge">
<title>SVVHDL&#45;&gt;Moore</title>
<path fill="none" stroke="#000000" d="M733.5702,-908.5848C733.5702,-895.9209 733.5702,-878.8558 733.5702,-864.4541"/>
<polygon fill="#000000" stroke="#000000" points="737.0703,-864.0772 733.5702,-854.0773 730.0703,-864.0773 737.0703,-864.0772"/>
</g>
<!-- PyFile -->
<g id="node41" class="node">
<title>PyFile</title>
<polygon fill="#ffff99" stroke="#000000" points="658.8386,-919.5442 658.8386,-934.4558 631.1494,-945 591.991,-945 564.3018,-934.4558 564.3018,-919.5442 591.991,-909 631.1494,-909 658.8386,-919.5442"/>
<text text-anchor="middle" x="611.5702" y="-923.3" font-family="Times,serif" font-size="14.00" fill="#000000">Python</text>
</g>
<!-- PyFile&#45;&gt;PyCDE -->
<g id="edge46" class="edge">
<title>PyFile&#45;&gt;PyCDE</title>
<path fill="none" stroke="#000000" d="M616.2497,-908.9359C627.0972,-862.9517 649.5439,-739.1576 601.5702,-655 592.4552,-639.0101 576.454,-626.9955 560.8457,-618.4089"/>
<polygon fill="#000000" stroke="#000000" points="562.2512,-615.1963 551.7562,-613.7453 559.0557,-621.4243 562.2512,-615.1963"/>
</g>
<!-- SystemCFile&#45;&gt;VCDTrace -->
<!-- SystemCFile&#45;&gt;SVFile -->
<!-- SystemCFile&#45;&gt;ServiceDesc -->
<!-- SystemCFile&#45;&gt;TCL -->
<!-- SoftwareAPI -->
<g id="node46" class="node">
<title>SoftwareAPI</title>
<polygon fill="none" stroke="#000000" stroke-dasharray="5,2" points="633.0702,-38 502.0702,-38 502.0702,0 639.0702,0 639.0702,-32 633.0702,-38"/>
<polyline fill="none" stroke="#000000" stroke-dasharray="5,2" points="633.0702,-38 633.0702,-32 "/>
<polyline fill="none" stroke="#000000" stroke-dasharray="5,2" points="639.0702,-32 633.0702,-32 "/>
<text text-anchor="middle" x="570.5702" y="-22.8" font-family="Times,serif" font-size="14.00" fill="#000000">Software API</text>
<text text-anchor="middle" x="570.5702" y="-7.8" font-family="Times,serif" font-size="14.00" fill="#000000">(e.g. py/c++/c#)</text>
</g>
<!-- ServiceDesc&#45;&gt;SoftwareAPI -->
<g id="edge53" class="edge">
<title>ServiceDesc&#45;&gt;SoftwareAPI</title>
<path fill="none" stroke="#000000" stroke-dasharray="5,2" d="M570.5702,-73.9432C570.5702,-66.1493 570.5702,-56.9538 570.5702,-48.3381"/>
<polygon fill="#000000" stroke="#000000" points="574.0703,-48.2494 570.5702,-38.2495 567.0703,-48.2495 574.0703,-48.2494"/>
</g>
</g>
</svg>
