<?xml version="1.0" encoding="UTF-8" standalone="no"?>
<!DOCTYPE svg PUBLIC "-//W3C//DTD SVG 1.1//EN"
 "http://www.w3.org/Graphics/SVG/1.1/DTD/svg11.dtd">
<!-- Generated by graphviz version 3.0.0 (20220226.1711)
 -->
<!-- Title: G Pages: 1 -->
<svg width="549pt" height="764pt"
 viewBox="0.00 0.00 548.50 763.50" xmlns="http://www.w3.org/2000/svg" xmlns:xlink="http://www.w3.org/1999/xlink">
<g id="graph0" class="graph" transform="scale(1 1) rotate(0) translate(4 759.5)">
<title>G</title>
<polygon fill="white" stroke="transparent" points="-4,4 -4,-759.5 544.5,-759.5 544.5,4 -4,4"/>
<g id="clust2" class="cluster">
<title>cluster_operator_types</title>
<polygon fill="lightgray" stroke="black" points="240.5,-656.5 240.5,-747.5 532.5,-747.5 532.5,-656.5 240.5,-656.5"/>
<text text-anchor="middle" x="386.5" y="-732.3" font-family="Times,serif" font-size="14.00">Operator types</text>
</g>
<!-- op0 -->
<g id="node1" class="node">
<title>op0</title>
<polygon fill="none" stroke="black" points="232,-727 123,-727 123,-654 232,-654 232,-727"/>
<text text-anchor="start" x="140" y="-708.3" font-family="Times,serif" font-weight="bold" font-size="14.00">#0 arith.addi</text>
<text text-anchor="start" x="135.5" y="-686.3" font-family="Times,serif" font-size="14.00">linkedOpr:</text>
<text text-anchor="start" x="200.5" y="-686.3" font-family="Times,serif" font-size="14.00">add</text>
<text text-anchor="start" x="135.5" y="-665.3" font-family="Times,serif" font-size="14.00">startTime:</text>
<text text-anchor="start" x="213.5" y="-665.3" font-family="Times,serif" font-size="14.00">0</text>
</g>
<!-- op1 -->
<g id="node2" class="node">
<title>op1</title>
<polygon fill="none" stroke="black" points="194,-618 85,-618 85,-545 194,-545 194,-618"/>
<text text-anchor="start" x="102" y="-599.3" font-family="Times,serif" font-weight="bold" font-size="14.00">#1 arith.addi</text>
<text text-anchor="start" x="97.5" y="-577.3" font-family="Times,serif" font-size="14.00">linkedOpr:</text>
<text text-anchor="start" x="162.5" y="-577.3" font-family="Times,serif" font-size="14.00">add</text>
<text text-anchor="start" x="97.5" y="-556.3" font-family="Times,serif" font-size="14.00">startTime:</text>
<text text-anchor="start" x="175.5" y="-556.3" font-family="Times,serif" font-size="14.00">1</text>
</g>
<!-- op0&#45;&gt;op1 -->
<g id="edge1" class="edge">
<title>op0&#45;&gt;op1</title>
<path fill="none" stroke="black" d="M164.85,-653.87C161.9,-645.57 158.72,-636.61 155.64,-627.95"/>
<polygon fill="black" stroke="black" points="158.87,-626.59 152.23,-618.34 152.28,-628.93 158.87,-626.59"/>
</g>
<!-- op2 -->
<g id="node3" class="node">
<title>op2</title>
<polygon fill="none" stroke="black" points="251,-509 104,-509 104,-436 251,-436 251,-509"/>
<text text-anchor="start" x="132.5" y="-490.3" font-family="Times,serif" font-weight="bold" font-size="14.00">#2 more.results</text>
<text text-anchor="start" x="116.5" y="-468.3" font-family="Times,serif" font-size="14.00">linkedOpr:</text>
<text text-anchor="start" x="181.5" y="-468.3" font-family="Times,serif" font-size="14.00">multicycle</text>
<text text-anchor="start" x="116.5" y="-447.3" font-family="Times,serif" font-size="14.00">startTime:</text>
<text text-anchor="start" x="232.5" y="-447.3" font-family="Times,serif" font-size="14.00">2</text>
</g>
<!-- op0&#45;&gt;op2 -->
<g id="edge2" class="edge">
<title>op0&#45;&gt;op2</title>
<path fill="none" stroke="black" d="M191.43,-653.66C195.15,-642.42 198.64,-629.85 200.5,-618 205.53,-585.95 205.53,-577.05 200.5,-545 199.16,-536.48 196.98,-527.59 194.48,-519.09"/>
<polygon fill="black" stroke="black" points="197.76,-517.84 191.43,-509.34 191.08,-519.93 197.76,-517.84"/>
</g>
<!-- op1&#45;&gt;op2 -->
<g id="edge3" class="edge">
<title>op1&#45;&gt;op2</title>
<path fill="none" stroke="black" d="M152.15,-544.87C155.1,-536.57 158.28,-527.61 161.36,-518.95"/>
<polygon fill="black" stroke="black" points="164.72,-519.93 164.77,-509.34 158.13,-517.59 164.72,-519.93"/>
</g>
<!-- op3 -->
<g id="node4" class="node">
<title>op3</title>
<polygon fill="none" stroke="black" points="109,-400 0,-400 0,-327 109,-327 109,-400"/>
<text text-anchor="start" x="17" y="-381.3" font-family="Times,serif" font-weight="bold" font-size="14.00">#3 arith.addi</text>
<text text-anchor="start" x="12.5" y="-359.3" font-family="Times,serif" font-size="14.00">linkedOpr:</text>
<text text-anchor="start" x="77.5" y="-359.3" font-family="Times,serif" font-size="14.00">add</text>
<text text-anchor="start" x="12.5" y="-338.3" font-family="Times,serif" font-size="14.00">startTime:</text>
<text text-anchor="start" x="90.5" y="-338.3" font-family="Times,serif" font-size="14.00">5</text>
</g>
<!-- op2&#45;&gt;op3 -->
<g id="edge4" class="edge">
<title>op2&#45;&gt;op3</title>
<path fill="none" stroke="black" d="M136.54,-435.87C125.97,-426.67 114.48,-416.68 103.54,-407.16"/>
<polygon fill="black" stroke="black" points="105.54,-404.26 95.7,-400.34 100.95,-409.54 105.54,-404.26"/>
</g>
<!-- op4 -->
<g id="node5" class="node">
<title>op4</title>
<polygon fill="none" stroke="black" points="232,-400 123,-400 123,-327 232,-327 232,-400"/>
<text text-anchor="start" x="140" y="-381.3" font-family="Times,serif" font-weight="bold" font-size="14.00">#4 arith.addi</text>
<text text-anchor="start" x="135.5" y="-359.3" font-family="Times,serif" font-size="14.00">linkedOpr:</text>
<text text-anchor="start" x="200.5" y="-359.3" font-family="Times,serif" font-size="14.00">add</text>
<text text-anchor="start" x="135.5" y="-338.3" font-family="Times,serif" font-size="14.00">startTime:</text>
<text text-anchor="start" x="213.5" y="-338.3" font-family="Times,serif" font-size="14.00">5</text>
</g>
<!-- op2&#45;&gt;op4 -->
<g id="edge5" class="edge">
<title>op2&#45;&gt;op4</title>
<path fill="none" stroke="black" d="M172.52,-435.87C172.27,-427.75 172.19,-419 172.3,-410.51"/>
<polygon fill="black" stroke="black" points="175.8,-410.41 172.51,-400.34 168.8,-410.26 175.8,-410.41"/>
</g>
<!-- op2&#45;&gt;op4 -->
<g id="edge6" class="edge">
<title>op2&#45;&gt;op4</title>
<path fill="none" stroke="black" d="M182.48,-435.87C182.73,-427.75 182.81,-419 182.7,-410.51"/>
<polygon fill="black" stroke="black" points="186.2,-410.26 182.49,-400.34 179.2,-410.41 186.2,-410.26"/>
</g>
<!-- op5 -->
<g id="node6" class="node">
<title>op5</title>
<polygon fill="none" stroke="black" points="109,-291 0,-291 0,-218 109,-218 109,-291"/>
<text text-anchor="start" x="17" y="-272.3" font-family="Times,serif" font-weight="bold" font-size="14.00">#5 arith.addi</text>
<text text-anchor="start" x="12.5" y="-250.3" font-family="Times,serif" font-size="14.00">linkedOpr:</text>
<text text-anchor="start" x="77.5" y="-250.3" font-family="Times,serif" font-size="14.00">add</text>
<text text-anchor="start" x="12.5" y="-229.3" font-family="Times,serif" font-size="14.00">startTime:</text>
<text text-anchor="start" x="90.5" y="-229.3" font-family="Times,serif" font-size="14.00">6</text>
</g>
<!-- op3&#45;&gt;op5 -->
<g id="edge7" class="edge">
<title>op3&#45;&gt;op5</title>
<path fill="none" stroke="black" d="M49.52,-326.87C49.27,-318.75 49.19,-310 49.3,-301.51"/>
<polygon fill="black" stroke="black" points="52.8,-301.41 49.51,-291.34 45.8,-301.26 52.8,-301.41"/>
</g>
<!-- op3&#45;&gt;op5 -->
<g id="edge8" class="edge">
<title>op3&#45;&gt;op5</title>
<path fill="none" stroke="black" d="M59.48,-326.87C59.73,-318.75 59.81,-310 59.7,-301.51"/>
<polygon fill="black" stroke="black" points="63.2,-301.26 59.49,-291.34 56.2,-301.41 63.2,-301.26"/>
</g>
<!-- op6 -->
<g id="node7" class="node">
<title>op6</title>
<polygon fill="none" stroke="black" points="205,-182 58,-182 58,-109 205,-109 205,-182"/>
<text text-anchor="start" x="79" y="-163.3" font-family="Times,serif" font-weight="bold" font-size="14.00">#6 more.operands</text>
<text text-anchor="start" x="70.5" y="-141.3" font-family="Times,serif" font-size="14.00">linkedOpr:</text>
<text text-anchor="start" x="135.5" y="-141.3" font-family="Times,serif" font-size="14.00">multicycle</text>
<text text-anchor="start" x="70.5" y="-120.3" font-family="Times,serif" font-size="14.00">startTime:</text>
<text text-anchor="start" x="186.5" y="-120.3" font-family="Times,serif" font-size="14.00">7</text>
</g>
<!-- op3&#45;&gt;op6 -->
<g id="edge9" class="edge">
<title>op3&#45;&gt;op6</title>
<path fill="none" stroke="black" d="M92.1,-326.82C101.22,-316.17 109.93,-303.88 115.5,-291 128.93,-259.95 132.69,-221.8 133.21,-192.5"/>
<polygon fill="black" stroke="black" points="136.71,-192.15 133.27,-182.13 129.71,-192.11 136.71,-192.15"/>
</g>
<!-- op4&#45;&gt;op6 -->
<g id="edge10" class="edge">
<title>op4&#45;&gt;op6</title>
<path fill="none" stroke="black" d="M169.9,-326.83C162.05,-289.94 149.75,-232.2 141.2,-192.03"/>
<polygon fill="black" stroke="black" points="144.61,-191.27 139.11,-182.22 137.77,-192.73 144.61,-191.27"/>
</g>
<!-- op5&#45;&gt;op6 -->
<g id="edge11" class="edge">
<title>op5&#45;&gt;op6</title>
<path fill="none" stroke="black" d="M80.14,-217.87C86.44,-209.12 93.25,-199.65 99.8,-190.55"/>
<polygon fill="black" stroke="black" points="102.71,-192.5 105.71,-182.34 97.03,-188.41 102.71,-192.5"/>
</g>
<!-- op7 -->
<g id="node8" class="node">
<title>op7</title>
<polygon fill="none" stroke="black" points="192.5,-73 70.5,-73 70.5,0 192.5,0 192.5,-73"/>
<text text-anchor="start" x="89" y="-54.3" font-family="Times,serif" font-weight="bold" font-size="14.00">#7 func.return</text>
<text text-anchor="start" x="82.5" y="-32.3" font-family="Times,serif" font-size="14.00">linkedOpr:</text>
<text text-anchor="start" x="147.5" y="-32.3" font-family="Times,serif" font-size="14.00">return</text>
<text text-anchor="start" x="82.5" y="-11.3" font-family="Times,serif" font-size="14.00">startTime:</text>
<text text-anchor="start" x="166.5" y="-11.3" font-family="Times,serif" font-size="14.00">10</text>
</g>
<!-- op6&#45;&gt;op7 -->
<g id="edge12" class="edge">
<title>op6&#45;&gt;op7</title>
<path fill="none" stroke="black" d="M131.5,-108.87C131.5,-100.75 131.5,-92 131.5,-83.51"/>
<polygon fill="black" stroke="black" points="135,-83.34 131.5,-73.34 128,-83.34 135,-83.34"/>
</g>
<!-- opr0 -->
<g id="node9" class="node">
<title>opr0</title>
<path fill="white" stroke="black" d="M512.5,-716.5C512.5,-716.5 456.5,-716.5 456.5,-716.5 450.5,-716.5 444.5,-710.5 444.5,-704.5 444.5,-704.5 444.5,-676.5 444.5,-676.5 444.5,-670.5 450.5,-664.5 456.5,-664.5 456.5,-664.5 512.5,-664.5 512.5,-664.5 518.5,-664.5 524.5,-670.5 524.5,-676.5 524.5,-676.5 524.5,-704.5 524.5,-704.5 524.5,-710.5 518.5,-716.5 512.5,-716.5"/>
<text text-anchor="start" x="465.5" y="-698.3" font-family="Times,serif" font-weight="bold" font-size="14.00">return</text>
<text text-anchor="start" x="456.5" y="-676.3" font-family="Times,serif" font-size="14.00">latency:</text>
<text text-anchor="start" x="505.5" y="-676.3" font-family="Times,serif" font-size="14.00">0</text>
</g>
<!-- opr1 -->
<g id="node10" class="node">
<title>opr1</title>
<path fill="white" stroke="black" d="M418.5,-716.5C418.5,-716.5 362.5,-716.5 362.5,-716.5 356.5,-716.5 350.5,-710.5 350.5,-704.5 350.5,-704.5 350.5,-676.5 350.5,-676.5 350.5,-670.5 356.5,-664.5 362.5,-664.5 362.5,-664.5 418.5,-664.5 418.5,-664.5 424.5,-664.5 430.5,-670.5 430.5,-676.5 430.5,-676.5 430.5,-704.5 430.5,-704.5 430.5,-710.5 424.5,-716.5 418.5,-716.5"/>
<text text-anchor="start" x="379.5" y="-698.3" font-family="Times,serif" font-weight="bold" font-size="14.00">add</text>
<text text-anchor="start" x="362.5" y="-676.3" font-family="Times,serif" font-size="14.00">latency:</text>
<text text-anchor="start" x="411.5" y="-676.3" font-family="Times,serif" font-size="14.00">1</text>
</g>
<!-- opr2 -->
<g id="node11" class="node">
<title>opr2</title>
<path fill="white" stroke="black" d="M324,-716.5C324,-716.5 261,-716.5 261,-716.5 255,-716.5 249,-710.5 249,-704.5 249,-704.5 249,-676.5 249,-676.5 249,-670.5 255,-664.5 261,-664.5 261,-664.5 324,-664.5 324,-664.5 330,-664.5 336,-670.5 336,-676.5 336,-676.5 336,-704.5 336,-704.5 336,-710.5 330,-716.5 324,-716.5"/>
<text text-anchor="start" x="262.5" y="-698.3" font-family="Times,serif" font-weight="bold" font-size="14.00">multicycle</text>
<text text-anchor="start" x="261.5" y="-676.3" font-family="Times,serif" font-size="14.00">latency:</text>
<text text-anchor="start" x="317.5" y="-676.3" font-family="Times,serif" font-size="14.00">3</text>
</g>
</g>
</svg>
