<?xml version="1.0" encoding="UTF-8" standalone="no"?>
<!DOCTYPE svg PUBLIC "-//W3C//DTD SVG 1.1//EN"
 "http://www.w3.org/Graphics/SVG/1.1/DTD/svg11.dtd">
<!-- Generated by graphviz version 3.0.0 (20220226.1711)
 -->
<!-- Title: G Pages: 1 -->
<svg width="549pt" height="627pt"
 viewBox="0.00 0.00 548.50 627.00" xmlns="http://www.w3.org/2000/svg" xmlns:xlink="http://www.w3.org/1999/xlink">
<g id="page0,1_graph0" class="graph" transform="scale(1 1) rotate(0) translate(4 623)">
<title>G</title>
<polygon fill="white" stroke="transparent" points="-4,4 -4,-623 544.5,-623 544.5,4 -4,4"/>
<g id="clust2" class="cluster">
<title>cluster_operator_types</title>
<polygon fill="lightgray" stroke="black" points="240.5,-520 240.5,-611 532.5,-611 532.5,-520 240.5,-520"/>
<text text-anchor="middle" x="386.5" y="-595.8" font-family="Times,serif" font-size="14.00">Operator types</text>
</g>
<!-- op0 -->
<g id="node1" class="node">
<title>op0</title>
<polygon fill="none" stroke="black" points="232,-580 123,-580 123,-528 232,-528 232,-580"/>
<text text-anchor="start" x="140" y="-561.8" font-family="Times,serif" font-weight="bold" font-size="14.00">#0 arith.addi</text>
<text text-anchor="start" x="135.5" y="-539.8" font-family="Times,serif" font-size="14.00">linkedOpr:</text>
<text text-anchor="start" x="200.5" y="-539.8" font-family="Times,serif" font-size="14.00">add</text>
</g>
<!-- op1 -->
<g id="node2" class="node">
<title>op1</title>
<polygon fill="none" stroke="black" points="194,-492 85,-492 85,-440 194,-440 194,-492"/>
<text text-anchor="start" x="102" y="-473.8" font-family="Times,serif" font-weight="bold" font-size="14.00">#1 arith.addi</text>
<text text-anchor="start" x="97.5" y="-451.8" font-family="Times,serif" font-size="14.00">linkedOpr:</text>
<text text-anchor="start" x="162.5" y="-451.8" font-family="Times,serif" font-size="14.00">add</text>
</g>
<!-- op0&#45;&gt;op1 -->
<g id="edge1" class="edge">
<title>op0&#45;&gt;op1</title>
<path fill="none" stroke="black" d="M166.3,-527.66C162.67,-519.44 158.58,-510.17 154.7,-501.4"/>
<polygon fill="black" stroke="black" points="157.86,-499.89 150.62,-492.16 151.46,-502.72 157.86,-499.89"/>
</g>
<!-- op2 -->
<g id="node3" class="node">
<title>op2</title>
<polygon fill="none" stroke="black" points="251,-404 104,-404 104,-352 251,-352 251,-404"/>
<text text-anchor="start" x="132.5" y="-385.8" font-family="Times,serif" font-weight="bold" font-size="14.00">#2 more.results</text>
<text text-anchor="start" x="116.5" y="-363.8" font-family="Times,serif" font-size="14.00">linkedOpr:</text>
<text text-anchor="start" x="181.5" y="-363.8" font-family="Times,serif" font-size="14.00">multicycle</text>
</g>
<!-- op0&#45;&gt;op2 -->
<g id="edge2" class="edge">
<title>op0&#45;&gt;op2</title>
<path fill="none" stroke="black" d="M189.35,-527.76C193.79,-517 198.29,-504.14 200.5,-492 204.64,-469.26 204.64,-462.74 200.5,-440 198.91,-431.28 196.14,-422.18 193.06,-413.75"/>
<polygon fill="black" stroke="black" points="196.24,-412.28 189.35,-404.24 189.72,-414.82 196.24,-412.28"/>
</g>
<!-- op1&#45;&gt;op2 -->
<g id="edge3" class="edge">
<title>op1&#45;&gt;op2</title>
<path fill="none" stroke="black" d="M150.7,-439.66C154.33,-431.44 158.42,-422.17 162.3,-413.4"/>
<polygon fill="black" stroke="black" points="165.54,-414.72 166.38,-404.16 159.14,-411.89 165.54,-414.72"/>
</g>
<!-- op3 -->
<g id="node4" class="node">
<title>op3</title>
<polygon fill="none" stroke="black" points="109,-316 0,-316 0,-264 109,-264 109,-316"/>
<text text-anchor="start" x="17" y="-297.8" font-family="Times,serif" font-weight="bold" font-size="14.00">#3 arith.addi</text>
<text text-anchor="start" x="12.5" y="-275.8" font-family="Times,serif" font-size="14.00">linkedOpr:</text>
<text text-anchor="start" x="77.5" y="-275.8" font-family="Times,serif" font-size="14.00">add</text>
</g>
<!-- op2&#45;&gt;op3 -->
<g id="edge4" class="edge">
<title>op2&#45;&gt;op3</title>
<path fill="none" stroke="black" d="M141.59,-351.89C128.32,-342.62 113.12,-331.98 99.16,-322.23"/>
<polygon fill="black" stroke="black" points="100.87,-319.15 90.66,-316.29 96.85,-324.88 100.87,-319.15"/>
</g>
<!-- op4 -->
<g id="node5" class="node">
<title>op4</title>
<polygon fill="none" stroke="black" points="232,-316 123,-316 123,-264 232,-264 232,-316"/>
<text text-anchor="start" x="140" y="-297.8" font-family="Times,serif" font-weight="bold" font-size="14.00">#4 arith.addi</text>
<text text-anchor="start" x="135.5" y="-275.8" font-family="Times,serif" font-size="14.00">linkedOpr:</text>
<text text-anchor="start" x="200.5" y="-275.8" font-family="Times,serif" font-size="14.00">add</text>
</g>
<!-- op2&#45;&gt;op4 -->
<g id="edge5" class="edge">
<title>op2&#45;&gt;op4</title>
<path fill="none" stroke="black" d="M172.67,-351.66C172.27,-343.7 172.16,-334.76 172.33,-326.24"/>
<polygon fill="black" stroke="black" points="175.83,-326.27 172.67,-316.16 168.83,-326.03 175.83,-326.27"/>
</g>
<!-- op2&#45;&gt;op4 -->
<g id="edge6" class="edge">
<title>op2&#45;&gt;op4</title>
<path fill="none" stroke="black" d="M182.33,-351.66C182.73,-343.7 182.84,-334.76 182.67,-326.24"/>
<polygon fill="black" stroke="black" points="186.17,-326.03 182.33,-316.16 179.17,-326.27 186.17,-326.03"/>
</g>
<!-- op5 -->
<g id="node6" class="node">
<title>op5</title>
<polygon fill="none" stroke="black" points="109,-228 0,-228 0,-176 109,-176 109,-228"/>
<text text-anchor="start" x="17" y="-209.8" font-family="Times,serif" font-weight="bold" font-size="14.00">#5 arith.addi</text>
<text text-anchor="start" x="12.5" y="-187.8" font-family="Times,serif" font-size="14.00">linkedOpr:</text>
<text text-anchor="start" x="77.5" y="-187.8" font-family="Times,serif" font-size="14.00">add</text>
</g>
<!-- op3&#45;&gt;op5 -->
<g id="edge7" class="edge">
<title>op3&#45;&gt;op5</title>
<path fill="none" stroke="black" d="M49.67,-263.66C49.27,-255.7 49.16,-246.76 49.33,-238.24"/>
<polygon fill="black" stroke="black" points="52.83,-238.27 49.67,-228.16 45.83,-238.03 52.83,-238.27"/>
</g>
<!-- op3&#45;&gt;op5 -->
<g id="edge8" class="edge">
<title>op3&#45;&gt;op5</title>
<path fill="none" stroke="black" d="M59.33,-263.66C59.73,-255.7 59.84,-246.76 59.67,-238.24"/>
<polygon fill="black" stroke="black" points="63.17,-238.03 59.33,-228.16 56.17,-238.27 63.17,-238.03"/>
</g>
<!-- op6 -->
<g id="node7" class="node">
<title>op6</title>
<polygon fill="none" stroke="black" points="205,-140 58,-140 58,-88 205,-88 205,-140"/>
<text text-anchor="start" x="79" y="-121.8" font-family="Times,serif" font-weight="bold" font-size="14.00">#6 more.operands</text>
<text text-anchor="start" x="70.5" y="-99.8" font-family="Times,serif" font-size="14.00">linkedOpr:</text>
<text text-anchor="start" x="135.5" y="-99.8" font-family="Times,serif" font-size="14.00">multicycle</text>
</g>
<!-- op3&#45;&gt;op6 -->
<g id="edge9" class="edge">
<title>op3&#45;&gt;op6</title>
<path fill="none" stroke="black" d="M87.08,-263.88C97.82,-253.88 108.74,-241.53 115.5,-228 127.55,-203.86 131.31,-173.44 132.19,-150.24"/>
<polygon fill="black" stroke="black" points="135.69,-150.21 132.41,-140.14 128.69,-150.06 135.69,-150.21"/>
</g>
<!-- op4&#45;&gt;op6 -->
<g id="edge10" class="edge">
<title>op4&#45;&gt;op6</title>
<path fill="none" stroke="black" d="M170.81,-263.7C162.88,-233.72 149.63,-183.59 140.73,-149.93"/>
<polygon fill="black" stroke="black" points="144.06,-148.82 138.12,-140.05 137.29,-150.61 144.06,-148.82"/>
</g>
<!-- op5&#45;&gt;op6 -->
<g id="edge11" class="edge">
<title>op5&#45;&gt;op6</title>
<path fill="none" stroke="black" d="M77.19,-175.66C85.02,-166.91 93.91,-156.99 102.19,-147.73"/>
<polygon fill="black" stroke="black" points="104.91,-149.94 108.98,-140.16 99.7,-145.27 104.91,-149.94"/>
</g>
<!-- op7 -->
<g id="node8" class="node">
<title>op7</title>
<polygon fill="none" stroke="black" points="192.5,-52 70.5,-52 70.5,0 192.5,0 192.5,-52"/>
<text text-anchor="start" x="89" y="-33.8" font-family="Times,serif" font-weight="bold" font-size="14.00">#7 func.return</text>
<text text-anchor="start" x="82.5" y="-11.8" font-family="Times,serif" font-size="14.00">linkedOpr:</text>
<text text-anchor="start" x="147.5" y="-11.8" font-family="Times,serif" font-size="14.00">return</text>
</g>
<!-- op6&#45;&gt;op7 -->
<g id="edge12" class="edge">
<title>op6&#45;&gt;op7</title>
<path fill="none" stroke="black" d="M131.5,-87.66C131.5,-79.7 131.5,-70.76 131.5,-62.24"/>
<polygon fill="black" stroke="black" points="135,-62.16 131.5,-52.16 128,-62.16 135,-62.16"/>
</g>
<!-- opr0 -->
<g id="node9" class="node">
<title>opr0</title>
<path fill="white" stroke="black" d="M512.5,-580C512.5,-580 456.5,-580 456.5,-580 450.5,-580 444.5,-574 444.5,-568 444.5,-568 444.5,-540 444.5,-540 444.5,-534 450.5,-528 456.5,-528 456.5,-528 512.5,-528 512.5,-528 518.5,-528 524.5,-534 524.5,-540 524.5,-540 524.5,-568 524.5,-568 524.5,-574 518.5,-580 512.5,-580"/>
<text text-anchor="start" x="465.5" y="-561.8" font-family="Times,serif" font-weight="bold" font-size="14.00">return</text>
<text text-anchor="start" x="456.5" y="-539.8" font-family="Times,serif" font-size="14.00">latency:</text>
<text text-anchor="start" x="505.5" y="-539.8" font-family="Times,serif" font-size="14.00">0</text>
</g>
<!-- opr1 -->
<g id="node10" class="node">
<title>opr1</title>
<path fill="white" stroke="black" d="M418.5,-580C418.5,-580 362.5,-580 362.5,-580 356.5,-580 350.5,-574 350.5,-568 350.5,-568 350.5,-540 350.5,-540 350.5,-534 356.5,-528 362.5,-528 362.5,-528 418.5,-528 418.5,-528 424.5,-528 430.5,-534 430.5,-540 430.5,-540 430.5,-568 430.5,-568 430.5,-574 424.5,-580 418.5,-580"/>
<text text-anchor="start" x="379.5" y="-561.8" font-family="Times,serif" font-weight="bold" font-size="14.00">add</text>
<text text-anchor="start" x="362.5" y="-539.8" font-family="Times,serif" font-size="14.00">latency:</text>
<text text-anchor="start" x="411.5" y="-539.8" font-family="Times,serif" font-size="14.00">1</text>
</g>
<!-- opr2 -->
<g id="node11" class="node">
<title>opr2</title>
<path fill="white" stroke="black" d="M324,-580C324,-580 261,-580 261,-580 255,-580 249,-574 249,-568 249,-568 249,-540 249,-540 249,-534 255,-528 261,-528 261,-528 324,-528 324,-528 330,-528 336,-534 336,-540 336,-540 336,-568 336,-568 336,-574 330,-580 324,-580"/>
<text text-anchor="start" x="262.5" y="-561.8" font-family="Times,serif" font-weight="bold" font-size="14.00">multicycle</text>
<text text-anchor="start" x="261.5" y="-539.8" font-family="Times,serif" font-size="14.00">latency:</text>
<text text-anchor="start" x="317.5" y="-539.8" font-family="Times,serif" font-size="14.00">3</text>
</g>
</g>
</svg>
