<?xml version="1.0" encoding="UTF-8" standalone="no"?>
<!-- Generator: Adobe Illustrator 17.1.0, SVG Export Plug-In . SVG Version: 6.00 Build 0)  -->

<svg
   xmlns:dc="http://purl.org/dc/elements/1.1/"
   xmlns:cc="http://creativecommons.org/ns#"
   xmlns:rdf="http://www.w3.org/1999/02/22-rdf-syntax-ns#"
   xmlns:svg="http://www.w3.org/2000/svg"
   xmlns="http://www.w3.org/2000/svg"
   xmlns:sodipodi="http://sodipodi.sourceforge.net/DTD/sodipodi-0.dtd"
   xmlns:inkscape="http://www.inkscape.org/namespaces/inkscape"
   version="1.1"
   id="Layer_1"
   x="0px"
   y="0px"
   viewBox="0 0 55.299999 55.299998"
   enable-background="new 0 0 425.2 226.8"
   xml:space="preserve"
   inkscape:version="0.91 r13725"
   sodipodi:docname="chisel-tool.svg"
   width="55.299999"
   height="55.299999"
   inkscape:export-filename="/home/se/Downloads/chisel.png"
   inkscape:export-xdpi="90"
   inkscape:export-ydpi="90"><metadata
     id="metadata18"><rdf:RDF><cc:Work
         rdf:about=""><dc:format>image/svg+xml</dc:format><dc:type
           rdf:resource="http://purl.org/dc/dcmitype/StillImage" /><dc:title></dc:title></cc:Work></rdf:RDF></metadata><defs
     id="defs16"><linearGradient
       id="SVGID_1_"
       gradientUnits="userSpaceOnUse"
       x1="3.7488"
       y1="113.385"
       x2="420.66959"
       y2="113.385"
       gradientTransform="translate(-5.9,-85.700006)"><stop
         offset="0"
         style="stop-color:#1A1C54"
         id="stop8" /><stop
         offset="0.5427"
         style="stop-color:#2A3172"
         id="stop10" /></linearGradient><clipPath
       clipPathUnits="userSpaceOnUse"
       id="clipPath4248"><rect
         style="color:#000000;clip-rule:nonzero;display:inline;overflow:visible;visibility:visible;opacity:1;isolation:auto;mix-blend-mode:normal;color-interpolation:sRGB;color-interpolation-filters:linearRGB;solid-color:#000000;solid-opacity:1;fill:#969696;fill-opacity:1;fill-rule:nonzero;stroke:none;stroke-width:1;stroke-linecap:square;stroke-linejoin:miter;stroke-miterlimit:4;stroke-dasharray:none;stroke-dashoffset:0;stroke-opacity:1;color-rendering:auto;image-rendering:auto;shape-rendering:auto;text-rendering:auto;enable-background:accumulate"
         id="rect4250"
         width="14"
         height="56"
         x="164"
         y="-0.060326744" /></clipPath></defs><sodipodi:namedview
     pagecolor="#ffffff"
     bordercolor="#666666"
     borderopacity="1"
     objecttolerance="10"
     gridtolerance="10"
     guidetolerance="10"
     inkscape:pageopacity="0"
     inkscape:pageshadow="2"
     inkscape:window-width="1918"
     inkscape:window-height="1056"
     id="namedview14"
     showgrid="true"
     fit-margin-top="0"
     fit-margin-left="0"
     fit-margin-right="0"
     fit-margin-bottom="0"
     inkscape:zoom="7.8482143"
     inkscape:cx="49.645307"
     inkscape:cy="28.449342"
     inkscape:window-x="0"
     inkscape:window-y="22"
     inkscape:window-maximized="0"
     inkscape:current-layer="Layer_1"
     inkscape:snap-bbox="true"
     inkscape:bbox-nodes="true"
     showguides="false"><inkscape:grid
       type="xygrid"
       id="grid4157"
       originx="-164"
       originy="-179.63967" /></sodipodi:namedview><path
     d="m 161.6,0.1 -11.8,0 0,21.7 -55.2,0 0,-21.7 -11.8,0 0,55.2 11.8,0 0,-21.7 55.2,0 0,15.2 c 0,0.2 -0.1,0.4 -0.1,0.6 0,3.3 2.7,5.9 5.9,5.9 3.2,0 5.9,-2.7 5.9,-5.9 l 0,0 0,0 0,-49.3 z m -1.4,49.3 c 0,2.5 -2,4.6 -4.6,4.6 -2.6,0 -4.6,-2 -4.6,-4.6 l 0,0 c 0,-2.5 2,-4.6 4.6,-4.6 2.6,0 4.6,2 4.6,4.6 l 0,0 z m 83.2,-27.6 -45.3,0 c -1.4,0 -2.5,-0.5 -3.5,-1.4 -1,-1 -1.4,-2.1 -1.4,-3.5 0,-1.4 0.5,-2.5 1.4,-3.5 1,-1 2.1,-1.4 3.5,-1.4 l 55.8,0 c 0.1,0 0.2,0 0.4,0 3.3,0 5.9,-2.7 5.9,-5.9 0,-3.2 -2.7,-5.9 -5.9,-5.9 l -56.2,0 c -4.6,0 -8.6,1.6 -11.8,4.9 -3.3,3.3 -4.9,7.2 -4.9,11.8 0,4.6 1.6,8.6 4.9,11.8 3.3,3.3 7.2,4.9 11.8,4.9 l 45.3,0 c 1.4,0 2.5,0.5 3.5,1.4 1,1 1.4,2.1 1.4,3.5 0,1.4 -0.5,2.5 -1.4,3.5 -1,1 -2.1,1.4 -3.5,1.4 l -55.6,0 -6.5,11.8 62.1,0 c 4.6,0 8.6,-1.6 11.8,-4.9 3.3,-3.3 4.9,-7.2 4.9,-11.8 0,-4.6 -1.6,-8.6 -4.9,-11.8 -3.2,-3.3 -7.1,-4.9 -11.8,-4.9 z M 258.8,6 c 0,2.5 -2,4.6 -4.6,4.6 -2.5,0 -4.6,-2 -4.6,-4.6 0,-2.5 2,-4.6 4.6,-4.6 2.6,0.1 4.6,2.1 4.6,4.6 z m 149.1,37.5 -38.3,0 c -4.4,0 -8.1,-1.5 -11.2,-4.6 -3.1,-3.1 -4.6,-6.8 -4.6,-11.2 l 0,-21.3 c 0,-0.1 0,-0.2 0,-0.4 0,-3.3 -2.7,-5.9 -5.9,-5.9 -3.3,0 -5.9,2.7 -5.9,5.9 l 0,0 0,0 0,21.7 c 0,7.6 2.7,14.1 8.1,19.5 5.4,5.4 11.9,8.1 19.5,8.1 l 45.1,0 -6.8,-11.8 z M 348,1.5 c 2.5,0 4.6,2 4.6,4.6 l 0,0 c 0,2.5 -2,4.6 -4.6,4.6 -2.6,0 -4.6,-2 -4.6,-4.6 l 0,0 c 0,-2.6 2,-4.6 4.6,-4.6 z M 16.4,38.8 C 13.3,35.7 11.8,32 11.8,27.6 c 0,-4.4 1.5,-8.1 4.6,-11.2 3.1,-3.1 6.8,-4.6 11.2,-4.6 l 45,0 c 0.1,0 0.2,0 0.4,0 3.3,0 5.9,-2.7 5.9,-5.9 C 78.9,2.7 76.2,0 73,0 L 27.6,0 C 20,0 13.5,2.7 8.1,8.1 2.7,13.5 0,20 0,27.6 c 0,7.6 2.7,14.1 8.1,19.5 5.4,5.4 11.9,8.1 19.5,8.1 l 51.3,0 0,-11.8 -51.3,0 C 23.2,43.5 19.5,41.9 16.4,38.8 Z M 77.5,6 c 0,2.5 -2,4.6 -4.6,4.6 -2.5,0 -4.6,-2 -4.6,-4.6 0,-2.5 2,-4.6 4.6,-4.6 2.5,0.1 4.6,2.1 4.6,4.6 z m 213,5.9 46.6,0 0,-11.8 -46.6,0 c -7.6,0 -14.1,2.7 -19.5,8.1 -5.4,5.4 -8.1,11.9 -8.1,19.5 0,7.6 2.7,14.1 8.1,19.5 5.4,5.4 11.9,8.1 19.5,8.1 l 46.9,0 c 3.3,0 5.9,-2.7 5.9,-5.9 0,-3.3 -2.7,-5.9 -5.9,-5.9 -0.1,0 -0.2,0 -0.4,0 l -46.6,0 c -4.4,0 -8.1,-1.5 -11.2,-4.6 -1.6,-1.6 -2.7,-3.3 -3.5,-5.2 l 54.4,0 0,-11.8 -54.2,0 c 0.8,-1.9 1.9,-3.7 3.5,-5.2 3,-3.2 6.8,-4.8 11.1,-4.8 z m 42.4,37.5 c 0,-2.5 2,-4.6 4.6,-4.6 2.5,0 4.6,2 4.6,4.6 0,2.5 -2,4.6 -4.6,4.6 -2.6,-0.1 -4.6,-2.1 -4.6,-4.6 z M 175.5,1.7 l 0,21.2 c -2.3,2.3 -2.5,7 -0.3,11.5 0,0 0,0 0,0 1.2,2.4 1.9,5.1 1.9,7.8 l 0,7.1 c 0,3.2 -2.6,5.9 -5.9,5.9 l -0.1,0 c -3.2,0 -5.9,-2.6 -5.9,-5.9 l 0,-7 c 0,-2.7 0.7,-5.4 1.9,-7.8 0,0 0,0 0,0 2.2,-4.5 2,-9.3 -0.3,-11.5 l 0,-21.3 8.7,0 z M 166.8,1 165.5,0 177,0 l -1.3,1 -8.9,0 z m -1.5,-0.7 0,21.7 c 0.1,0.1 0.3,0.1 0.4,0.2 0.2,0.1 0.4,0.2 0.6,0.3 l 0,-21 -1,-1.2 z m 10.9,22.1 c 0.2,-0.1 0.4,-0.2 0.5,-0.3 0.1,-0.1 0.3,-0.1 0.4,-0.2 l 0,-21.7 -1,1.3 0,20.9 z m 1,-22.3 0,0 0,0 0,0 z m -11.9,0 0,0 0,0 0,0 z"
     id="path12"
     style="fill:url(#SVGID_1_)"
     inkscape:connector-curvature="0"
     clip-path="url(#clipPath4248)"
     transform="translate(-143.35,0)" /></svg>